<svg xmlns="http://www.w3.org/2000/svg" width="151mm" height="148mm" viewBox="0 0 151.40 147.94"><rect width="100%" height="100%" fill="white"/><g fill="#d8d8d8" stroke="black" stroke-width="0.4" fill-rule="evenodd"><polygon points="60.50,87.00 59.03,86.53 57.52,86.18 56.00,85.96 54.45,85.88 52.91,85.93 51.38,86.11 49.86,86.42 48.38,86.86 48.28,86.90 48.18,86.92 48.08,86.95 47.98,86.97 47.88,86.98 47.77,86.99 47.67,87.00 47.57,87.00 25.18,87.00 24.83,86.97 24.48,86.90 24.14,86.77 23.83,86.60 23.55,86.39 23.29,86.14 23.08,85.85 22.91,85.54 21.68,83.28 20.14,81.22 18.32,79.40 16.27,77.86 14.01,76.63 11.60,75.73 9.09,75.18 6.53,75.00 5.00,75.00 5.00,17.50 5.05,17.01 5.19,16.54 5.42,16.11 5.73,15.73 6.11,15.42 6.54,15.19 7.01,15.05 7.50,15.00 10.08,15.00 11.85,14.91 13.59,14.65 15.31,14.23 16.97,13.63 18.57,12.88 20.08,11.97 21.50,10.92 22.81,9.73 22.99,9.57 23.19,9.42 23.40,9.29 23.62,9.19 23.85,9.11 24.09,9.05 24.33,9.01 24.57,9.00 30.69,9.00 32.11,8.94 33.53,8.77 34.93,8.49 36.31,8.10 37.65,7.60 38.94,6.99 40.19,6.29 41.37,5.49 41.53,5.38 41.71,5.28 41.89,5.19 42.07,5.13 42.26,5.07 42.46,5.03 42.65,5.01 42.85,5.00 65.65,5.00 65.85,5.01 66.04,5.03 66.24,5.07 66.43,5.13 66.61,5.19 66.79,5.28 66.97,5.38 67.13,5.49 68.31,6.29 69.56,6.99 70.85,7.60 72.19,8.10 73.57,8.49 74.97,8.77 76.39,8.94 77.81,9.00 104.21,9.00 104.35,9.00 104.49,9.02 104.63,9.03 104.77,9.06 104.90,9.10 105.03,9.14 105.16,9.19 105.29,9.24 106.21,9.65 107.14,10.01 108.10,10.31 109.07,10.56 110.05,10.75 111.05,10.89 112.04,10.97 113.05,11.00 137.05,11.00 137.54,11.05 138.01,11.19 138.44,11.42 138.82,11.73 139.13,12.11 139.36,12.54 139.50,13.01 139.55,13.50 139.55,74.13 139.54,74.33 139.52,74.53 139.48,74.73 139.42,74.93 139.35,75.11 139.26,75.30 139.16,75.47 139.04,75.64 137.05,78.97 135.82,82.65 135.40,86.52 135.83,90.38 137.07,94.06 139.07,97.38 141.74,100.20 144.95,102.39 146.40,103.16 135.41,123.83 135.34,123.95 135.26,124.07 135.18,124.18 135.09,124.29 135.00,124.39 134.90,124.49 134.80,124.58 134.69,124.67 133.79,125.38 132.93,126.16 132.13,126.98 131.38,127.86 130.68,128.78 130.05,129.75 129.48,130.75 128.98,131.79 124.68,141.46 124.43,141.89 124.11,142.26 123.73,142.56 123.29,142.78 122.82,142.91 122.33,142.94 121.84,142.88 121.38,142.73 104.08,135.03 103.72,134.87 103.36,134.72 102.99,134.59 102.62,134.45 102.25,134.33 101.87,134.21 101.50,134.11 101.12,134.01 86.19,130.28 85.72,130.12 85.30,129.87 84.94,129.54 84.65,129.15 84.44,128.70 84.32,128.23 84.29,127.74 84.37,127.25 85.44,122.95 85.87,120.48 85.96,117.97 85.70,115.47 85.09,113.04 84.15,110.71 82.90,108.54 81.36,106.56 79.55,104.81 79.38,104.65 79.22,104.47 79.07,104.28 78.95,104.07 78.85,103.85 78.77,103.63 78.71,103.39 78.67,103.16 78.04,99.92 76.82,96.85 75.06,94.06 72.83,91.64 70.19,89.66 67.23,88.20 64.05,87.30 60.77,87.00 60.50,87.00 60.50,87.00" /><polygon points="59.46,83.11 59.61,82.94 59.71,82.74 59.78,82.52 59.80,82.30 59.78,82.08 59.71,81.86 59.61,81.66 59.46,81.49 59.29,81.34 59.09,81.24 58.87,81.17 58.65,81.15 58.43,81.17 58.21,81.24 58.01,81.34 57.84,81.49 57.69,81.66 57.59,81.86 57.52,82.08 57.50,82.30 57.52,82.52 57.59,82.74 57.69,82.94 57.84,83.11 58.01,83.26 58.21,83.36 58.43,83.43 58.65,83.45 58.87,83.43 59.09,83.36 59.29,83.26 59.46,83.11" /><polygon points="28.85,81.90 42.65,81.90 42.65,68.10 28.85,68.10 28.85,81.90" /><polygon points="65.85,81.90 79.65,81.90 79.65,68.10 65.85,68.10 65.85,81.90" /><polygon points="47.35,77.90 61.15,77.90 61.15,64.10 47.35,64.10 47.35,77.90" /><polygon points="10.35,69.90 24.15,69.90 24.15,56.10 10.35,56.10 10.35,69.90" /><polygon points="28.85,63.90 42.65,63.90 42.65,50.10 28.85,50.10 28.85,63.90" /><polygon points="65.85,63.90 79.65,63.90 79.65,50.10 65.85,50.10 65.85,63.90" /><polygon points="47.35,59.90 61.15,59.90 61.15,46.10 47.35,46.10 47.35,59.90" /><polygon points="10.35,51.90 24.15,51.90 24.15,38.10 10.35,38.10 10.35,51.90" /><polygon points="65.85,45.90 79.65,45.90 79.65,32.10 65.85,32.10 65.85,45.90" /><polygon points="28.85,45.90 42.65,45.90 42.65,32.10 28.85,32.10 28.85,45.90" /><polygon points="47.35,41.90 61.15,41.90 61.15,28.10 47.35,28.10 47.35,41.90" /><polygon points="10.35,33.90 24.15,33.90 24.15,20.10 10.35,20.10 10.35,33.90" /><polygon points="28.85,27.90 42.65,27.90 42.65,14.10 28.85,14.10 28.85,27.90" /><polygon points="65.85,27.90 79.65,27.90 79.65,14.10 65.85,14.10 65.85,27.90" /><polygon points="47.35,23.90 61.15,23.90 61.15,10.10 47.35,10.10 47.35,23.90" /><polygon points="21.46,17.11 21.61,16.94 21.71,16.74 21.78,16.52 21.80,16.30 21.78,16.08 21.71,15.86 21.61,15.66 21.46,15.49 21.29,15.34 21.09,15.24 20.87,15.17 20.65,15.15 20.43,15.17 20.21,15.24 20.01,15.34 19.84,15.49 19.69,15.66 19.59,15.86 19.52,16.08 19.50,16.30 19.52,16.52 19.59,16.74 19.69,16.94 19.84,17.11 20.01,17.26 20.21,17.36 20.43,17.43 20.65,17.45 20.87,17.43 21.09,17.36 21.29,17.26 21.46,17.11" /><polygon points="108.24,131.30 120.85,136.91 126.46,124.30 113.85,118.69 108.24,131.30" /><polygon points="90.19,126.03 103.58,129.36 106.91,115.97 93.52,112.64 90.19,126.03" /><polygon points="110.46,120.11 110.61,119.94 110.71,119.74 110.78,119.52 110.80,119.30 110.78,119.08 110.71,118.86 110.61,118.66 110.46,118.49 110.29,118.34 110.09,118.24 109.87,118.17 109.65,118.15 109.43,118.17 109.21,118.24 109.01,118.34 108.84,118.49 108.69,118.66 108.59,118.86 108.52,119.08 108.50,119.30 108.52,119.52 108.59,119.74 108.69,119.94 108.84,120.11 109.01,120.26 109.21,120.36 109.43,120.43 109.65,120.45 109.87,120.43 110.09,120.36 110.29,120.26 110.46,120.11" /><polygon points="120.62,110.85 132.80,117.33 139.28,105.15 127.10,98.67 120.62,110.85" /><polygon points="102.96,104.33 116.08,108.59 120.34,95.47 107.22,91.21 102.96,104.33" /><polygon points="84.76,99.87 98.42,101.79 100.34,88.13 86.68,86.21 84.76,99.87" /><polygon points="85.65,81.90 99.45,81.90 99.45,68.10 85.65,68.10 85.65,81.90" /><polygon points="135.46,75.11 135.61,74.94 135.71,74.74 135.78,74.52 135.80,74.30 135.78,74.08 135.71,73.86 135.61,73.66 135.46,73.49 135.29,73.34 135.09,73.24 134.87,73.17 134.65,73.15 134.43,73.17 134.21,73.24 134.01,73.34 133.84,73.49 133.69,73.66 133.59,73.86 133.52,74.08 133.50,74.30 133.52,74.52 133.59,74.74 133.69,74.94 133.84,75.11 134.01,75.26 134.21,75.36 134.43,75.43 134.65,75.45 134.87,75.43 135.09,75.36 135.29,75.26 135.46,75.11" /><polygon points="85.65,63.90 99.45,63.90 99.45,50.10 85.65,50.10 85.65,63.90" /><polygon points="104.50,52.70 136.60,52.70 136.60,33.30 104.50,33.30 104.50,52.70" /><polygon points="85.65,45.90 99.45,45.90 99.45,32.10 85.65,32.10 85.65,45.90" /><polygon points="83.46,30.11 83.61,29.94 83.71,29.74 83.78,29.52 83.80,29.30 83.78,29.08 83.71,28.86 83.61,28.66 83.46,28.49 83.29,28.34 83.09,28.24 82.87,28.17 82.65,28.15 82.43,28.17 82.21,28.24 82.01,28.34 81.84,28.49 81.69,28.66 81.59,28.86 81.52,29.08 81.50,29.30 81.52,29.52 81.59,29.74 81.69,29.94 81.84,30.11 82.01,30.26 82.21,30.36 82.43,30.43 82.65,30.45 82.87,30.43 83.09,30.36 83.29,30.26 83.46,30.11" /><polygon points="113.95,15.65 113.95,29.60 122.55,29.60 122.55,15.65 113.95,15.65" /><polygon points="85.65,27.90 99.45,27.90 99.45,14.10 85.65,14.10 85.65,27.90" /><polygon points="113.75,12.40 103.35,12.40 103.35,19.60 113.75,19.60 113.75,12.40" /><polygon points="135.29,16.26 135.46,16.11 135.61,15.94 135.71,15.74 135.78,15.52 135.80,15.30 135.78,15.08 135.71,14.86 135.61,14.66 135.46,14.49 135.29,14.34 135.09,14.24 134.87,14.17 134.65,14.15 134.43,14.17 134.21,14.24 134.01,14.34 133.84,14.49 133.69,14.66 133.59,14.86 133.52,15.08 133.50,15.30 133.52,15.52 133.59,15.74 133.69,15.94 133.84,16.11 134.01,16.26 134.21,16.36 134.43,16.43 134.65,16.45 134.87,16.43 135.09,16.36 135.29,16.26" /></g></svg>