<svg xmlns="http://www.w3.org/2000/svg" width="148mm" height="173mm" viewBox="0 0 147.90 172.59"><rect width="100%" height="100%" fill="white"/><g fill="#d8d8d8" stroke="black" stroke-width="0.4" fill-rule="evenodd"><polygon points="7.01,101.45 6.54,101.31 6.11,101.08 5.73,100.77 5.42,100.39 5.19,99.96 5.05,99.49 5.00,99.00 5.00,47.00 5.05,46.51 5.19,46.04 5.42,45.61 5.73,45.23 6.11,44.92 6.54,44.69 7.01,44.55 7.50,44.50 20.50,44.50 20.99,44.45 21.46,44.31 21.89,44.08 22.27,43.77 22.58,43.39 22.81,42.96 22.95,42.49 23.00,42.00 23.00,41.00 23.05,40.51 23.19,40.04 23.42,39.61 23.73,39.23 24.11,38.92 24.54,38.69 25.01,38.55 25.50,38.50 41.00,38.50 41.00,37.00 41.05,36.51 41.19,36.04 41.42,35.61 41.73,35.23 42.11,34.92 42.54,34.69 43.01,34.55 43.50,34.50 62.50,34.50 62.99,34.55 63.46,34.69 63.89,34.92 64.27,35.23 64.58,35.61 64.81,36.04 64.95,36.51 65.00,37.00 65.00,38.50 67.30,38.50 67.79,38.45 68.26,38.31 68.69,38.08 69.07,37.77 69.38,37.39 69.61,36.96 69.75,36.49 69.80,36.00 69.80,7.50 69.85,7.01 69.99,6.54 70.22,6.11 70.53,5.73 70.91,5.42 71.34,5.19 71.81,5.05 72.30,5.00 85.80,5.00 85.80,6.50 85.85,6.99 85.99,7.46 86.22,7.89 86.53,8.27 86.91,8.58 87.34,8.81 87.81,8.95 88.30,9.00 89.80,9.00 89.80,7.50 89.85,7.01 89.99,6.54 90.22,6.11 90.53,5.73 90.91,5.42 91.34,5.19 91.81,5.05 92.30,5.00 111.30,5.00 111.79,5.05 112.26,5.19 112.69,5.42 113.07,5.73 113.38,6.11 113.61,6.54 113.75,7.01 113.80,7.50 113.80,42.50 113.75,42.99 113.61,43.46 113.38,43.89 113.07,44.27 112.69,44.58 112.26,44.81 111.79,44.95 111.30,45.00 105.30,45.00 104.81,45.05 104.34,45.19 103.91,45.42 103.53,45.73 103.22,46.11 102.99,46.54 102.85,47.01 102.80,47.50 102.80,109.07 104.28,109.28 104.04,111.04 124.77,117.77 124.60,118.28 141.59,127.31 142.00,127.58 142.34,127.92 142.62,128.33 142.80,128.78 142.90,129.26 142.90,129.75 142.81,130.23 142.62,130.69 133.00,148.79 131.23,147.85 123.10,166.10 122.86,166.53 122.54,166.90 122.15,167.20 121.71,167.42 121.24,167.55 120.75,167.59 120.27,167.52 119.80,167.37 100.69,158.86 100.64,158.84 100.59,158.82 100.54,158.80 100.49,158.78 100.44,158.76 100.38,158.75 100.33,158.73 100.28,158.72 84.80,154.86 84.34,154.70 83.92,154.44 83.55,154.12 83.26,153.72 83.05,153.28 82.93,152.80 82.91,152.31 82.98,151.83 87.33,134.36 87.50,133.90 87.75,133.48 88.08,133.12 88.47,132.83 88.91,132.62 89.39,132.50 89.88,132.47 90.36,132.54 99.30,134.77 99.30,133.68 94.83,132.23 95.16,131.23 79.79,129.07 79.32,128.95 78.87,128.74 78.48,128.46 78.14,128.09 77.89,127.68 77.72,127.22 77.64,126.73 77.66,126.24 79.20,115.35 79.21,114.81 79.12,114.29 78.91,113.80 78.61,113.36 78.22,113.00 77.76,112.73 77.25,112.56 76.72,112.50 59.00,112.50 59.00,111.00 58.95,110.51 58.81,110.04 58.58,109.61 58.27,109.23 57.89,108.92 57.46,108.69 56.99,108.55 56.50,108.50 47.00,108.50 47.00,110.00 46.95,110.49 46.81,110.96 46.58,111.39 46.27,111.77 45.89,112.08 45.46,112.31 44.99,112.45 44.50,112.50 25.50,112.50 25.01,112.45 24.54,112.31 24.11,112.08 23.73,111.77 23.42,111.39 23.19,110.96 23.05,110.49 23.00,110.00 23.00,104.00 22.95,103.51 22.81,103.04 22.58,102.61 22.27,102.23 21.89,101.92 21.46,101.69 20.99,101.55 20.50,101.50 7.50,101.50 7.01,101.45" /><polygon points="28.10,107.90 41.90,107.90 41.90,94.10 28.10,94.10 28.10,107.90" /><polygon points="64.10,107.90 77.90,107.90 77.90,94.10 64.10,94.10 64.10,107.90" /><polygon points="46.10,103.90 59.90,103.90 59.90,90.10 46.10,90.10 46.10,103.90" /><polygon points="10.10,96.90 23.90,96.90 23.90,83.10 10.10,83.10 10.10,96.90" /><polygon points="28.10,90.90 41.90,90.90 41.90,77.10 28.10,77.10 28.10,90.90" /><polygon points="64.10,90.90 77.90,90.90 77.90,77.10 64.10,77.10 64.10,90.90" /><polygon points="46.10,86.90 59.90,86.90 59.90,73.10 46.10,73.10 46.10,86.90" /><polygon points="10.10,79.90 23.90,79.90 23.90,66.10 10.10,66.10 10.10,79.90" /><polygon points="28.10,73.90 41.90,73.90 41.90,60.10 28.10,60.10 28.10,73.90" /><polygon points="64.10,73.90 77.90,73.90 77.90,60.10 64.10,60.10 64.10,73.90" /><polygon points="46.10,69.90 59.90,69.90 59.90,56.10 46.10,56.10 46.10,69.90" /><polygon points="10.10,62.90 23.90,62.90 23.90,49.10 10.10,49.10 10.10,62.90" /><polygon points="28.10,56.90 41.90,56.90 41.90,43.10 28.10,43.10 28.10,56.90" /><polygon points="64.10,56.90 77.90,56.90 77.90,43.10 64.10,43.10 64.10,56.90" /><polygon points="46.10,52.90 59.90,52.90 59.90,39.10 46.10,39.10 46.10,52.90" /><polygon points="71.20,32.60 79.80,32.60 79.80,18.65 71.20,18.65 71.20,32.60" /><polygon points="74.81,10.51 74.96,10.34 75.06,10.14 75.13,9.92 75.15,9.70 75.13,9.48 75.06,9.26 74.96,9.06 74.81,8.89 74.64,8.74 74.44,8.64 74.22,8.57 74.00,8.55 73.78,8.57 73.56,8.64 73.36,8.74 73.19,8.89 73.04,9.06 72.94,9.26 72.87,9.48 72.85,9.70 72.87,9.92 72.94,10.14 73.04,10.34 73.19,10.51 73.36,10.66 73.56,10.76 73.78,10.83 74.00,10.85 74.22,10.83 74.44,10.76 74.64,10.66 74.81,10.51" /><polygon points="106.69,156.50 119.30,162.11 124.91,149.50 112.30,143.89 106.69,156.50" /><polygon points="127.81,147.51 127.96,147.34 128.06,147.14 128.13,146.92 128.15,146.70 128.13,146.48 128.06,146.26 127.96,146.06 127.81,145.89 127.64,145.74 127.44,145.64 127.22,145.57 127.00,145.55 126.78,145.57 126.56,145.64 126.36,145.74 126.19,145.89 126.04,146.06 125.94,146.26 125.87,146.48 125.85,146.70 125.87,146.92 125.94,147.14 126.04,147.34 126.19,147.51 126.36,147.66 126.56,147.76 126.78,147.83 127.00,147.85 127.22,147.83 127.44,147.76 127.64,147.66 127.81,147.51" /><polygon points="88.44,151.03 101.83,154.36 105.16,140.97 91.77,137.64 88.44,151.03" /><polygon points="118.47,135.85 130.65,142.33 137.13,130.15 124.95,123.67 118.47,135.85" /><polygon points="101.11,129.43 114.23,133.69 118.49,120.57 105.37,116.31 101.11,129.43" /><polygon points="122.81,122.51 122.96,122.34 123.06,122.14 123.13,121.92 123.15,121.70 123.13,121.48 123.06,121.26 122.96,121.06 122.81,120.89 122.64,120.74 122.44,120.64 122.22,120.57 122.00,120.55 121.78,120.57 121.56,120.64 121.36,120.74 121.19,120.89 121.04,121.06 120.94,121.26 120.87,121.48 120.85,121.70 120.87,121.92 120.94,122.14 121.04,122.34 121.19,122.51 121.36,122.66 121.56,122.76 121.78,122.83 122.00,122.85 122.22,122.83 122.44,122.76 122.64,122.66 122.81,122.51" /><polygon points="83.01,124.87 96.67,126.79 98.59,113.13 84.93,111.21 83.01,124.87" /><polygon points="81.81,110.51 81.96,110.34 82.06,110.14 82.13,109.92 82.15,109.70 82.13,109.48 82.06,109.26 81.96,109.06 81.81,108.89 81.64,108.74 81.44,108.64 81.22,108.57 81.00,108.55 80.78,108.57 80.56,108.64 80.36,108.74 80.19,108.89 80.04,109.06 79.94,109.26 79.87,109.48 79.85,109.70 79.87,109.92 79.94,110.14 80.04,110.34 80.19,110.51 80.36,110.66 80.56,110.76 80.78,110.83 81.00,110.85 81.22,110.83 81.44,110.76 81.64,110.66 81.81,110.51" /><polygon points="83.90,107.90 97.70,107.90 97.70,94.10 83.90,94.10 83.90,107.90" /><polygon points="81.81,87.51 81.96,87.34 82.06,87.14 82.13,86.92 82.15,86.70 82.13,86.48 82.06,86.26 81.96,86.06 81.81,85.89 81.64,85.74 81.44,85.64 81.22,85.57 81.00,85.55 80.78,85.57 80.56,85.64 80.36,85.74 80.19,85.89 80.04,86.06 79.94,86.26 79.87,86.48 79.85,86.70 79.87,86.92 79.94,87.14 80.04,87.34 80.19,87.51 80.36,87.66 80.56,87.76 80.78,87.83 81.00,87.85 81.22,87.83 81.44,87.76 81.64,87.66 81.81,87.51" /><polygon points="83.90,90.90 97.70,90.90 97.70,77.10 83.90,77.10 83.90,90.90" /><polygon points="83.90,73.90 97.70,73.90 97.70,60.10 83.90,60.10 83.90,73.90" /><polygon points="83.90,56.90 97.70,56.90 97.70,43.10 83.90,43.10 83.90,56.90" /><polygon points="86.81,36.51 86.96,36.34 87.06,36.14 87.13,35.92 87.15,35.70 87.13,35.48 87.06,35.26 86.96,35.06 86.81,34.89 86.64,34.74 86.44,34.64 86.22,34.57 86.00,34.55 85.78,34.57 85.56,34.64 85.36,34.74 85.19,34.89 85.04,35.06 84.94,35.26 84.87,35.48 84.85,35.70 84.87,35.92 84.94,36.14 85.04,36.34 85.19,36.51 85.36,36.66 85.56,36.76 85.78,36.83 86.00,36.85 86.22,36.83 86.44,36.76 86.64,36.66 86.81,36.51" /><polygon points="111.50,8.95 92.10,8.95 92.10,41.05 111.50,41.05 111.50,8.95" /><polygon points="92.00,13.40 81.60,13.40 81.60,20.60 92.00,20.60 92.00,13.40" /></g></svg>