0
SECTION
2
HEADER
9
$INSUNITS
70
4
0
ENDSEC
0
SECTION
2
TABLES
0
TABLE
2
LTYPE
0
LTYPE
72
65
70
0
2
CONTINUOUS
3
______
73
0
40
0
0
LTYPE
72
65
70
0
2
DASHED
3
_ _ _ 
73
2
40
7.5
49
5
49
-2.5
0
LTYPE
72
65
70
0
2
DOTTED
3
. . . 
73
2
40
1.5
49
0.5
49
-1
0
ENDTAB
0
TABLE
2
LAYER
0
ENDTAB
0
ENDSEC
0
SECTION
2
ENTITIES
0
LINE
8
0
6
CONTINUOUS
10
50.25
20
-172
11
107.447649
21
-172
0
ARC
8
0
6
CONTINUOUS
10
107.447649
20
-190
40
18
50
370.6939949
51
90
0
LINE
8
0
6
CONTINUOUS
10
125.1350295
20
-186.6598547
11
130.1085024
21
-211.1680041
0
LINE
8
0
6
CONTINUOUS
10
131.7245905
20
-213.0276063
11
162.7388652
21
-224.002276
0
LINE
8
0
6
CONTINUOUS
10
165.7139735
20
-222.9360371
11
176.3865968
21
-205.2293216
0
LINE
8
0
6
CONTINUOUS
10
176.4528302
20
-205.1124431
11
183.8100727
21
-191.2754825
0
ARC
8
0
6
CONTINUOUS
10
193.9400418
20
-173.7298736
40
18
50
133.6109662
51
232.9995446
0
LINE
8
0
6
CONTINUOUS
10
182.3
20
-158.8870565
11
182.3
21
-98.5
0
LINE
8
0
6
CONTINUOUS
10
179.8
20
-96
11
160.9664079
21
-96
0
ARC
8
0
6
CONTINUOUS
10
160.9664079
20
-78
40
18
50
225.0170423
51
270
0
LINE
8
0
6
CONTINUOUS
10
146.4750312
20
-90
11
50.25
21
-90
0
LINE
8
0
6
CONTINUOUS
10
47.75
20
-92.5
11
47.75
21
-169.5
0
ARC
8
0
6
CONTINUOUS
10
132.5585632
20
-210.6708098
40
2.5
50
191.4713378
51
250.5132358
0
ARC
8
0
6
CONTINUOUS
10
163.5728379
20
-221.6454796
40
2.5
50
250.5132358
51
328.9207626
0
ARC
8
0
6
CONTINUOUS
10
174.2454613
20
-203.9387641
40
2.5
50
328.9207626
51
331.9999983
0
ARC
8
0
6
CONTINUOUS
10
181.6027037
20
-190.1018035
40
2.5
50
331.9999983
51
52.9995446
0
ARC
8
0
6
CONTINUOUS
10
179.8
20
-158.8870565
40
2.5
50
313.6109662
51
0
0
ARC
8
0
6
CONTINUOUS
10
179.8
20
-98.5
40
2.5
50
0
51
90
0
ARC
8
0
6
CONTINUOUS
10
146.4750312
20
-92.5
40
2.5
50
45.0170423
51
90
0
ARC
8
0
6
CONTINUOUS
10
50.25
20
-92.5
40
2.5
50
90
51
180
0
ARC
8
0
6
CONTINUOUS
10
50.25
20
-169.5
40
2.5
50
180
51
270
0
CIRCLE
8
0
6
CONTINUOUS
10
177.7
20
-100.3
40
1.1
0
CIRCLE
8
0
6
CONTINUOUS
10
63.7
20
-105.3
40
1.1
0
CIRCLE
8
0
6
CONTINUOUS
10
125.7
20
-114.3
40
1.1
0
CIRCLE
8
0
6
CONTINUOUS
10
177.7
20
-159.3
40
1.1
0
CIRCLE
8
0
6
CONTINUOUS
10
103.7
20
-167.3
40
1.1
0
CIRCLE
8
0
6
CONTINUOUS
10
152.7
20
-204.3
40
1.1
0
LINE
8
0
6
CONTINUOUS
10
292.552351
20
-172
11
349.75
21
-172
0
LINE
8
0
6
CONTINUOUS
10
352.25
20
-169.5
11
352.25
21
-92.5
0
LINE
8
0
6
CONTINUOUS
10
349.75
20
-90
11
253.5249688
21
-90
0
ARC
8
0
6
CONTINUOUS
10
239.0335921
20
-78
40
18
50
270
51
314.9829577
0
LINE
8
0
6
CONTINUOUS
10
239.0335921
20
-96
11
220.2
21
-96
0
LINE
8
0
6
CONTINUOUS
10
217.7
20
-98.5
11
217.7
21
-158.8870565
0
ARC
8
0
6
CONTINUOUS
10
206.0599582
20
-173.7298736
40
18
50
307.0004554
51
46.3890338
0
LINE
8
0
6
CONTINUOUS
10
216.1899273
20
-191.2754825
11
223.5471698
21
-205.1124431
0
LINE
8
0
6
CONTINUOUS
10
223.6134032
20
-205.2293216
11
234.2860265
21
-222.9360371
0
LINE
8
0
6
CONTINUOUS
10
237.2611348
20
-224.002276
11
268.2754095
21
-213.0276063
0
LINE
8
0
6
CONTINUOUS
10
269.8914976
20
-211.1680041
11
274.8649705
21
-186.6598547
0
ARC
8
0
6
CONTINUOUS
10
292.552351
20
-190
40
18
50
90
51
169.3060051
0
ARC
8
0
6
CONTINUOUS
10
349.75
20
-169.5
40
2.5
50
270
51
0
0
ARC
8
0
6
CONTINUOUS
10
349.75
20
-92.5
40
2.5
50
0
51
90
0
ARC
8
0
6
CONTINUOUS
10
253.5249688
20
-92.5
40
2.5
50
90
51
134.9829577
0
ARC
8
0
6
CONTINUOUS
10
220.2
20
-98.5
40
2.5
50
90
51
180
0
ARC
8
0
6
CONTINUOUS
10
220.2
20
-158.8870565
40
2.5
50
180
51
226.3890338
0
ARC
8
0
6
CONTINUOUS
10
218.3972963
20
-190.1018035
40
2.5
50
127.0004554
51
208.0000017
0
ARC
8
0
6
CONTINUOUS
10
225.7545387
20
-203.9387641
40
2.5
50
208.0000017
51
211.0792374
0
ARC
8
0
6
CONTINUOUS
10
236.4271621
20
-221.6454796
40
2.5
50
211.0792374
51
289.4867642
0
ARC
8
0
6
CONTINUOUS
10
267.4414368
20
-210.6708098
40
2.5
50
289.4867642
51
348.5286622
0
CIRCLE
8
0
6
CONTINUOUS
10
222.3
20
-100.3
40
1.1
0
CIRCLE
8
0
6
CONTINUOUS
10
336.3
20
-105.3
40
1.1
0
CIRCLE
8
0
6
CONTINUOUS
10
274.3
20
-114.3
40
1.1
0
CIRCLE
8
0
6
CONTINUOUS
10
222.3
20
-159.3
40
1.1
0
CIRCLE
8
0
6
CONTINUOUS
10
296.3
20
-167.3
40
1.1
0
CIRCLE
8
0
6
CONTINUOUS
10
247.3
20
-204.3
40
1.1
0
ENDSEC
0
EOF