0
SECTION
2
HEADER
9
$INSUNITS
70
4
0
ENDSEC
0
SECTION
2
TABLES
0
TABLE
2
LTYPE
0
LTYPE
72
65
70
0
2
CONTINUOUS
3
______
73
0
40
0
0
LTYPE
72
65
70
0
2
DASHED
3
_ _ _ 
73
2
40
7.5
49
5
49
-2.5
0
LTYPE
72
65
70
0
2
DOTTED
3
. . . 
73
2
40
1.5
49
0.5
49
-1
0
ENDTAB
0
TABLE
2
LAYER
0
ENDTAB
0
ENDSEC
0
SECTION
2
ENTITIES
0
LINE
8
0
6
CONTINUOUS
10
350.7205628
20
-160
11
352.25
21
-160
0
LINE
8
0
6
CONTINUOUS
10
352.25
20
-160
11
352.25
21
-102.5
0
LINE
8
0
6
CONTINUOUS
10
349.75
20
-100
11
347.1664079
21
-100
0
ARC
8
0
6
CONTINUOUS
10
347.1664079
20
-82
40
18
50
225.0170423
51
270
0
LINE
8
0
6
CONTINUOUS
10
332.6750312
20
-94
11
326.5637085
21
-94
0
ARC
8
0
6
CONTINUOUS
10
326.5637085
20
-76
40
18
50
233.5984794
51
270
0
LINE
8
0
6
CONTINUOUS
10
314.3981834
20
-90
11
291.6018166
21
-90
0
ARC
8
0
6
CONTINUOUS
10
279.4362915
20
-76
40
18
50
270
51
306.4015206
0
LINE
8
0
6
CONTINUOUS
10
253.0355496
20
-94
11
279.4362915
21
-94
0
ARC
8
0
6
CONTINUOUS
10
244.2037887
20
-78
40
18
50
270
51
295.5194586
0
LINE
8
0
6
CONTINUOUS
10
244.2037887
20
-96
11
220.2
21
-96
0
LINE
8
0
6
CONTINUOUS
10
217.7
20
-98.5
11
217.7
21
-159.1308242
0
ARC
8
0
6
CONTINUOUS
10
203.8469121
20
-171.4931264
40
18
50
298.0000013
51
37.0878709
0
LINE
8
0
6
CONTINUOUS
10
212.2974006
20
-187.3861829
11
210.8519081
21
-188.1547648
0
ARC
8
0
6
CONTINUOUS
10
202.3997451
20
-172.2625988
40
18
50
297.9999999
51
298.0060382
0
LINE
8
0
6
CONTINUOUS
10
210.8502332
20
-188.1556555
11
221.8441798
21
-208.832262
0
ARC
8
0
6
CONTINUOUS
10
211.8239682
20
-224.1126485
40
18
50
384.0000001
51
53.3826932
0
LINE
8
0
6
CONTINUOUS
10
228.2677864
20
-216.7913889
11
233.5891361
21
-228.7433361
0
LINE
8
0
6
CONTINUOUS
10
233.5899079
20
-228.7450694
11
253.1673007
21
-220.0286525
0
ARC
8
0
6
CONTINUOUS
10
260.4885603
20
-236.4724707
40
18
50
104
51
114.0000001
0
LINE
8
0
6
CONTINUOUS
10
256.1339661
20
-219.0071476
11
271.0634461
21
-215.2848102
0
LINE
8
0
6
CONTINUOUS
10
272.8843807
20
-212.2542662
11
271.8114497
21
-207.9509752
0
ARC
8
0
6
CONTINUOUS
10
289.2767728
20
-203.5963811
40
18
50
130.0355887
51
193.9999998
0
ARC
8
0
6
CONTINUOUS
10
296.4820981
20
-190
40
18
50
450.0000003
51
174.1222108
0
LINE
8
0
6
CONTINUOUS
10
296.482098
20
-172
11
296.7499999
21
-172
0
ARC
8
0
6
CONTINUOUS
10
303
20
-188.8800918
40
18
50
70.9739281
51
470.3175077
0
LINE
8
0
6
CONTINUOUS
10
309.6829666
20
-172
11
332.0658047
21
-172
0
ARC
8
0
6
CONTINUOUS
10
350.7205628
20
-178
40
18
50
90
51
155.5037209
0
ARC
8
0
6
CONTINUOUS
10
349.75
20
-102.5
40
2.5
50
0
51
90
0
ARC
8
0
6
CONTINUOUS
10
332.6750312
20
-96.5
40
2.5
50
45.0170423
51
90
0
ARC
8
0
6
CONTINUOUS
10
314.3981834
20
-92.5
40
2.5
50
53.5984794
51
90
0
ARC
8
0
6
CONTINUOUS
10
291.6018166
20
-92.5
40
2.5
50
90
51
126.4015206
0
ARC
8
0
6
CONTINUOUS
10
253.0355496
20
-96.5
40
2.5
50
90
51
115.5194586
0
ARC
8
0
6
CONTINUOUS
10
220.2
20
-98.5
40
2.5
50
90
51
180
0
ARC
8
0
6
CONTINUOUS
10
220.2
20
-159.1308242
40
2.5
50
180
51
217.0878709
0
ARC
8
0
6
CONTINUOUS
10
224.0515488
20
-207.658583
40
2.5
50
208.0000017
51
233.3826932
0
ARC
8
0
6
CONTINUOUS
10
256.7387709
20
-221.4328869
40
2.5
50
104
51
104.0000006
0
ARC
8
0
6
CONTINUOUS
10
270.4586414
20
-212.8590709
40
2.5
50
284.0000006
51
14.0000006
0
ARC
8
0
6
CONTINUOUS
10
276.089875
20
-187.9006579
40
2.5
50
310.0355887
51
354.1222108
0
ARC
8
0
6
CONTINUOUS
10
309.6829666
20
-169.5
40
2.5
50
250.9739281
51
270
0
ARC
8
0
6
CONTINUOUS
10
332.0658047
20
-169.5
40
2.5
50
270
51
335.5037209
0
ENDSEC
0
EOF