0
SECTION
2
HEADER
9
$INSUNITS
70
4
0
ENDSEC
0
SECTION
2
TABLES
0
TABLE
2
LTYPE
0
LTYPE
72
65
70
0
2
CONTINUOUS
3
______
73
0
40
0
0
LTYPE
72
65
70
0
2
DASHED
3
_ _ _ 
73
2
40
7.5
49
5
49
-2.5
0
LTYPE
72
65
70
0
2
DOTTED
3
. . . 
73
2
40
1.5
49
0.5
49
-1
0
ENDTAB
0
TABLE
2
LAYER
0
ENDTAB
0
ENDSEC
0
SECTION
2
ENTITIES
0
LINE
8
0
6
CONTINUOUS
10
50.5
20
-154.5
11
63.5
21
-154.5
0
LINE
8
0
6
CONTINUOUS
10
48
20
-152
11
48
21
-117
0
LINE
8
0
6
CONTINUOUS
10
63.5
20
-114.5
11
50.5
21
-114.5
0
LINE
8
0
6
CONTINUOUS
10
68.5
20
-165.5
11
77.9948523
21
-165.5
0
LINE
8
0
6
CONTINUOUS
10
66
20
-157
11
66
21
-163
0
LINE
8
0
6
CONTINUOUS
10
66
20
-112
11
66
21
-94
0
LINE
8
0
6
CONTINUOUS
10
84
20
-91.5
11
68.5
21
-91.5
0
LINE
8
0
6
CONTINUOUS
10
89.5
20
-88.5
11
86.5
21
-88.5
0
LINE
8
0
6
CONTINUOUS
10
84
20
-91
11
84
21
-91.5
0
LINE
8
0
6
CONTINUOUS
10
138.7527103
20
-173.5
11
141.5
21
-173.5
0
LINE
8
0
6
CONTINUOUS
10
144
20
-171
11
144
21
-108.5
0
LINE
8
0
6
CONTINUOUS
10
84.9919627
20
-190.0659384
11
85.5889444
21
-190.1498387
0
LINE
8
0
6
CONTINUOUS
10
83.4209176
20
-183.2812632
11
82.8642253
21
-187.2423354
0
LINE
8
0
6
CONTINUOUS
10
136.4294433
20
-208.848023
11
138.1964481
21
-209.7875561
0
LINE
8
0
6
CONTINUOUS
10
138.1964481
20
-209.7875561
11
147.8206152
21
-191.6871305
0
LINE
8
0
6
CONTINUOUS
10
146.7869252
20
-188.3060825
11
136.837142
21
-183.015689
0
LINE
8
0
6
CONTINUOUS
10
135.7412835
20
-182.4330106
11
134.2853706
21
-181.658888
0
LINE
8
0
6
CONTINUOUS
10
90.0000888
20
-215.8601428
11
105.4788529
21
-219.7194322
0
LINE
8
0
6
CONTINUOUS
10
88.783959
20
-210.4038595
11
88.1791542
21
-212.8295988
0
LINE
8
0
6
CONTINUOUS
10
105.8908896
20
-219.8613078
11
125.0012106
21
-228.369771
0
LINE
8
0
6
CONTINUOUS
10
128.3019158
20
-227.1027488
11
136.4294433
21
-208.848023
0
LINE
8
0
6
CONTINUOUS
10
336.5
20
-154.5
11
349.5
21
-154.5
0
LINE
8
0
6
CONTINUOUS
10
352
20
-152
11
352
21
-117
0
LINE
8
0
6
CONTINUOUS
10
349.5
20
-114.5
11
336.5
21
-114.5
0
LINE
8
0
6
CONTINUOUS
10
322.0051477
20
-165.5
11
331.5
21
-165.5
0
LINE
8
0
6
CONTINUOUS
10
334
20
-163
11
334
21
-157
0
LINE
8
0
6
CONTINUOUS
10
334
20
-112
11
334
21
-94
0
LINE
8
0
6
CONTINUOUS
10
331.5
20
-91.5
11
318.5
21
-91.5
0
LINE
8
0
6
CONTINUOUS
10
316
20
-89
11
316
21
-88.5
0
LINE
8
0
6
CONTINUOUS
10
316
20
-88.5
11
310.5
21
-88.5
0
LINE
8
0
6
CONTINUOUS
10
258.5
20
-173.5
11
261.2472897
21
-173.5
0
LINE
8
0
6
CONTINUOUS
10
256
20
-171
11
256
21
-108.5
0
LINE
8
0
6
CONTINUOUS
10
317.1605659
20
-189.7634202
11
317.4837075
21
-189.7180056
0
LINE
8
0
6
CONTINUOUS
10
317.4837075
20
-189.7180056
11
316.9270151
21
-185.7569334
0
LINE
8
0
6
CONTINUOUS
10
261.8035519
20
-209.7875561
11
263.5705567
21
-208.848023
0
LINE
8
0
6
CONTINUOUS
10
265.7146294
20
-181.658888
11
264.2587165
21
-182.4330106
0
LINE
8
0
6
CONTINUOUS
10
263.162858
20
-183.015689
11
253.2130748
21
-188.3060825
0
LINE
8
0
6
CONTINUOUS
10
252.1793848
20
-191.6871305
11
261.8035519
21
-209.7875561
0
LINE
8
0
6
CONTINUOUS
10
294.5211471
20
-219.7194322
11
309.9999112
21
-215.8601428
0
LINE
8
0
6
CONTINUOUS
10
311.8208458
20
-212.8295988
11
311.216041
21
-210.4038595
0
LINE
8
0
6
CONTINUOUS
10
274.9987894
20
-228.369771
11
294.1091104
21
-219.8613078
0
LINE
8
0
6
CONTINUOUS
10
263.5705567
20
-208.848023
11
271.6980842
21
-227.1027488
0
LINE
8
0
6
CONTINUOUS
10
80.9452475
20
-182.9333305
11
83.4209176
21
-183.2812632
0
LINE
8
0
6
CONTINUOUS
10
80.4705225
20
-168.3479327
11
78.8175101
21
-180.1097275
0
LINE
8
0
6
CONTINUOUS
10
134.2853706
20
-181.658888
11
136.375069
21
-175.2274575
0
LINE
8
0
6
CONTINUOUS
10
319.0547526
20
-182.9333304
11
321.5304227
21
-182.5853977
0
LINE
8
0
6
CONTINUOUS
10
321.5304227
20
-182.5853977
11
319.5294775
21
-168.3479327
0
LINE
8
0
6
CONTINUOUS
10
263.624931
20
-175.2274575
11
265.7146294
21
-181.658888
0
LINE
8
0
6
CONTINUOUS
10
84.0521371
20
-206.6475497
11
86.9630244
21
-207.3733155
0
LINE
8
0
6
CONTINUOUS
10
136.837142
20
-183.015689
11
136.909781
21
-182.7243498
0
LINE
8
0
6
CONTINUOUS
10
136.909781
20
-182.7243498
11
135.7412835
21
-182.4330106
0
LINE
8
0
6
CONTINUOUS
10
85.5889444
20
-190.1498387
11
82.2312025
21
-203.6170057
0
LINE
8
0
6
CONTINUOUS
10
313.0369756
20
-207.3733155
11
315.9478629
21
-206.6475497
0
LINE
8
0
6
CONTINUOUS
10
317.7687975
20
-203.6170057
11
315.0827593
21
-192.8438951
0
LINE
8
0
6
CONTINUOUS
10
264.2587165
20
-182.4330106
11
263.090219
21
-182.7243498
0
LINE
8
0
6
CONTINUOUS
10
263.090219
20
-182.7243498
11
263.162858
21
-183.015689
0
LINE
8
0
6
CONTINUOUS
10
155
20
-103.5
11
155
21
-68.5
0
LINE
8
0
6
CONTINUOUS
10
106.5
20
-66
11
152.5
21
-66
0
LINE
8
0
6
CONTINUOUS
10
146.5
20
-106
11
152.5
21
-106
0
LINE
8
0
6
CONTINUOUS
10
245
20
-68.5
11
245
21
-103.5
0
LINE
8
0
6
CONTINUOUS
10
247.5
20
-106
11
253.5
21
-106
0
LINE
8
0
6
CONTINUOUS
10
247.5
20
-66
11
293.5
21
-66
0
LINE
8
0
6
CONTINUOUS
10
104
20
-68.5
11
104
21
-73.5
0
LINE
8
0
6
CONTINUOUS
10
296
20
-73.5
11
296
21
-68.5
0
LINE
8
0
6
CONTINUOUS
10
101.5
20
-76
11
94.5
21
-76
0
LINE
8
0
6
CONTINUOUS
10
92
20
-78.5
11
92
21
-86
0
LINE
8
0
6
CONTINUOUS
10
308
20
-86
11
308
21
-78.5
0
LINE
8
0
6
CONTINUOUS
10
305.5
20
-76
11
298.5
21
-76
0
ARC
8
0
6
CONTINUOUS
10
63.5
20
-157
40
2.5
50
0
51
90
0
ARC
8
0
6
CONTINUOUS
10
68.5
20
-163
40
2.5
50
180
51
270
0
ARC
8
0
6
CONTINUOUS
10
77.9948523
20
-168
40
2.5
50
352.0000003
51
90
0
ARC
8
0
6
CONTINUOUS
10
81.2931802
20
-180.4576603
40
2.5
50
172.0000003
51
262.0000003
0
ARC
8
0
6
CONTINUOUS
10
85.3398954
20
-187.5902682
40
2.5
50
172.0000003
51
262.0000003
0
ARC
8
0
6
CONTINUOUS
10
84.6569418
20
-204.2218104
40
2.5
50
165.9999994
51
255.9999994
0
ARC
8
0
6
CONTINUOUS
10
86.3582197
20
-209.7990547
40
2.5
50
345.9999994
51
75.9999994
0
ARC
8
0
6
CONTINUOUS
10
90.6048935
20
-213.4344035
40
2.5
50
165.9999994
51
255.9999994
0
ARC
8
0
6
CONTINUOUS
10
104.8740482
20
-222.1451715
40
2.5
50
66.0000032
51
75.9999994
0
ARC
8
0
6
CONTINUOUS
10
126.0180521
20
-226.0859073
40
2.5
50
246.0000032
51
336.0000032
0
ARC
8
0
6
CONTINUOUS
10
145.6132462
20
-190.5134515
40
2.5
50
331.9999983
51
61.9999983
0
ARC
8
0
6
CONTINUOUS
10
138.7527103
20
-176
40
2.5
50
90
51
161.9999994
0
ARC
8
0
6
CONTINUOUS
10
141.5
20
-171
40
2.5
50
270
51
0
0
ARC
8
0
6
CONTINUOUS
10
146.5
20
-108.5
40
2.5
50
90
51
180
0
ARC
8
0
6
CONTINUOUS
10
152.5
20
-103.5
40
2.5
50
270
51
0
0
ARC
8
0
6
CONTINUOUS
10
152.5
20
-68.5
40
2.5
50
0
51
90
0
ARC
8
0
6
CONTINUOUS
10
106.5
20
-68.5
40
2.5
50
90
51
180
0
ARC
8
0
6
CONTINUOUS
10
101.5
20
-73.5
40
2.5
50
270
51
0
0
ARC
8
0
6
CONTINUOUS
10
94.5
20
-78.5
40
2.5
50
90
51
180
0
ARC
8
0
6
CONTINUOUS
10
89.5
20
-86
40
2.5
50
270
51
0
0
ARC
8
0
6
CONTINUOUS
10
86.5
20
-91
40
2.5
50
90
51
180
0
ARC
8
0
6
CONTINUOUS
10
68.5
20
-94
40
2.5
50
90
51
180
0
ARC
8
0
6
CONTINUOUS
10
63.5
20
-112
40
2.5
50
270
51
0
0
ARC
8
0
6
CONTINUOUS
10
50.5
20
-117
40
2.5
50
90
51
180
0
ARC
8
0
6
CONTINUOUS
10
50.5
20
-152
40
2.5
50
180
51
270
0
ARC
8
0
6
CONTINUOUS
10
349.5
20
-152
40
2.5
50
270
51
0
0
ARC
8
0
6
CONTINUOUS
10
349.5
20
-117
40
2.5
50
0
51
90
0
ARC
8
0
6
CONTINUOUS
10
336.5
20
-112
40
2.5
50
180
51
270
0
ARC
8
0
6
CONTINUOUS
10
331.5
20
-94
40
2.5
50
0
51
90
0
ARC
8
0
6
CONTINUOUS
10
318.5
20
-89
40
2.5
50
180
51
270
0
ARC
8
0
6
CONTINUOUS
10
310.5
20
-86
40
2.5
50
180
51
270
0
ARC
8
0
6
CONTINUOUS
10
305.5
20
-78.5
40
2.5
50
0
51
90
0
ARC
8
0
6
CONTINUOUS
10
298.5
20
-73.5
40
2.5
50
180
51
270
0
ARC
8
0
6
CONTINUOUS
10
293.5
20
-68.5
40
2.5
50
0
51
90
0
ARC
8
0
6
CONTINUOUS
10
247.5
20
-68.5
40
2.5
50
90
51
180
0
ARC
8
0
6
CONTINUOUS
10
247.5
20
-103.5
40
2.5
50
180
51
270
0
ARC
8
0
6
CONTINUOUS
10
253.5
20
-108.5
40
2.5
50
0
51
90
0
ARC
8
0
6
CONTINUOUS
10
258.5
20
-171
40
2.5
50
180
51
270
0
ARC
8
0
6
CONTINUOUS
10
261.2472897
20
-176
40
2.5
50
18.0000006
51
90
0
ARC
8
0
6
CONTINUOUS
10
254.3867538
20
-190.5134515
40
2.5
50
118.0000017
51
208.0000017
0
ARC
8
0
6
CONTINUOUS
10
273.9819479
20
-226.0859073
40
2.5
50
203.9999968
51
293.9999968
0
ARC
8
0
6
CONTINUOUS
10
295.1259518
20
-222.1451715
40
2.5
50
104.0000006
51
113.9999968
0
ARC
8
0
6
CONTINUOUS
10
309.3951065
20
-213.4344035
40
2.5
50
284.0000006
51
14.0000006
0
ARC
8
0
6
CONTINUOUS
10
313.6417803
20
-209.7990547
40
2.5
50
104.0000006
51
194.0000006
0
ARC
8
0
6
CONTINUOUS
10
315.3430582
20
-204.2218104
40
2.5
50
284.0000006
51
14.0000006
0
ARC
8
0
6
CONTINUOUS
10
317.5084986
20
-192.2390904
40
2.5
50
97.9999997
51
194.0000006
0
ARC
8
0
6
CONTINUOUS
10
319.4026853
20
-185.4090006
40
2.5
50
97.9999997
51
187.9999997
0
ARC
8
0
6
CONTINUOUS
10
322.0051477
20
-168
40
2.5
50
90
51
187.9999997
0
ARC
8
0
6
CONTINUOUS
10
331.5
20
-163
40
2.5
50
270
51
0
0
ARC
8
0
6
CONTINUOUS
10
336.5
20
-157
40
2.5
50
90
51
180
0
CIRCLE
8
0
6
CONTINUOUS
10
108.8
20
-70.7
40
1.1
0
CIRCLE
8
0
6
CONTINUOUS
10
128.8
20
-97.7
40
1.1
0
CIRCLE
8
0
6
CONTINUOUS
10
84.8
20
-167.7
40
1.1
0
CIRCLE
8
0
6
CONTINUOUS
10
118.8
20
-170.7
40
1.1
0
CIRCLE
8
0
6
CONTINUOUS
10
86.8
20
-202.7
40
1.1
0
CIRCLE
8
0
6
CONTINUOUS
10
132.8
20
-206.7
40
1.1
0
CIRCLE
8
0
6
CONTINUOUS
10
291.2
20
-70.7
40
1.1
0
CIRCLE
8
0
6
CONTINUOUS
10
271.2
20
-97.7
40
1.1
0
CIRCLE
8
0
6
CONTINUOUS
10
315.2
20
-167.7
40
1.1
0
CIRCLE
8
0
6
CONTINUOUS
10
281.2
20
-170.7
40
1.1
0
CIRCLE
8
0
6
CONTINUOUS
10
313.2
20
-202.7
40
1.1
0
CIRCLE
8
0
6
CONTINUOUS
10
267.2
20
-206.7
40
1.1
0
ENDSEC
0
EOF