0
SECTION
2
HEADER
9
$INSUNITS
70
4
0
ENDSEC
0
SECTION
2
TABLES
0
TABLE
2
LTYPE
0
LTYPE
72
65
70
0
2
CONTINUOUS
3
______
73
0
40
0
0
LTYPE
72
65
70
0
2
DASHED
3
_ _ _ 
73
2
40
7.5
49
5
49
-2.5
0
LTYPE
72
65
70
0
2
DOTTED
3
. . . 
73
2
40
1.5
49
0.5
49
-1
0
ENDTAB
0
TABLE
2
LAYER
0
ENDTAB
0
ENDSEC
0
SECTION
2
ENTITIES
0
LINE
8
0
6
CONTINUOUS
10
50.5
20
-154.5
11
63.5
21
-154.5
0
LINE
8
0
6
CONTINUOUS
10
48
20
-152
11
48
21
-117
0
LINE
8
0
6
CONTINUOUS
10
63.5
20
-114.5
11
50.5
21
-114.5
0
LINE
8
0
6
CONTINUOUS
10
68.5
20
-165.5
11
85.9948523
21
-165.5
0
LINE
8
0
6
CONTINUOUS
10
66
20
-157
11
66
21
-163
0
LINE
8
0
6
CONTINUOUS
10
66
20
-112
11
66
21
-94
0
LINE
8
0
6
CONTINUOUS
10
84
20
-91.5
11
68.5
21
-91.5
0
LINE
8
0
6
CONTINUOUS
10
89.5
20
-88.5
11
86.5
21
-88.5
0
LINE
8
0
6
CONTINUOUS
10
84
20
-91
11
84
21
-91.5
0
LINE
8
0
6
CONTINUOUS
10
144
20
-162.3309091
11
144
21
-108.5
0
LINE
8
0
6
CONTINUOUS
10
92.9919627
20
-190.0659384
11
93.5889444
21
-190.1498387
0
LINE
8
0
6
CONTINUOUS
10
91.4209176
20
-183.2812632
11
90.8642253
21
-187.2423354
0
LINE
8
0
6
CONTINUOUS
10
144.4294433
20
-208.848023
11
146.1964481
21
-209.7875561
0
LINE
8
0
6
CONTINUOUS
10
146.1964481
20
-209.7875561
11
155.8206152
21
-191.6871305
0
LINE
8
0
6
CONTINUOUS
10
154.7869252
20
-188.3060825
11
144.837142
21
-183.015689
0
LINE
8
0
6
CONTINUOUS
10
143.7412835
20
-182.4330106
11
142.2853706
21
-181.658888
0
LINE
8
0
6
CONTINUOUS
10
98.0000888
20
-215.8601428
11
113.4788529
21
-219.7194322
0
LINE
8
0
6
CONTINUOUS
10
96.783959
20
-210.4038595
11
96.1791542
21
-212.8295988
0
LINE
8
0
6
CONTINUOUS
10
113.8908896
20
-219.8613078
11
133.0012106
21
-228.369771
0
LINE
8
0
6
CONTINUOUS
10
136.3019158
20
-227.1027488
11
144.4294433
21
-208.848023
0
LINE
8
0
6
CONTINUOUS
10
88.9452475
20
-182.9333305
11
91.4209176
21
-183.2812632
0
LINE
8
0
6
CONTINUOUS
10
88.4705225
20
-168.3479327
11
86.8175101
21
-180.1097275
0
LINE
8
0
6
CONTINUOUS
10
142.2853706
20
-181.658888
11
147.3569111
21
-166.0502912
0
LINE
8
0
6
CONTINUOUS
10
145.7518123
20
-162.9001074
11
144
21
-162.3309091
0
LINE
8
0
6
CONTINUOUS
10
92.0521371
20
-206.6475497
11
94.9630244
21
-207.3733155
0
LINE
8
0
6
CONTINUOUS
10
144.837142
20
-183.015689
11
144.909781
21
-182.7243498
0
LINE
8
0
6
CONTINUOUS
10
144.909781
20
-182.7243498
11
143.7412835
21
-182.4330106
0
LINE
8
0
6
CONTINUOUS
10
93.5889444
20
-190.1498387
11
90.2312025
21
-203.6170057
0
LINE
8
0
6
CONTINUOUS
10
155
20
-103.5
11
155
21
-68.5
0
LINE
8
0
6
CONTINUOUS
10
106.5
20
-66
11
152.5
21
-66
0
LINE
8
0
6
CONTINUOUS
10
146.5
20
-106
11
152.5
21
-106
0
LINE
8
0
6
CONTINUOUS
10
104
20
-68.5
11
104
21
-73.5
0
LINE
8
0
6
CONTINUOUS
10
101.5
20
-76
11
94.5
21
-76
0
LINE
8
0
6
CONTINUOUS
10
92
20
-78.5
11
92
21
-86
0
ARC
8
0
6
CONTINUOUS
10
63.5
20
-157
40
2.5
50
0
51
90
0
ARC
8
0
6
CONTINUOUS
10
68.5
20
-163
40
2.5
50
180
51
270
0
ARC
8
0
6
CONTINUOUS
10
85.9948523
20
-168
40
2.5
50
352.0000003
51
90
0
ARC
8
0
6
CONTINUOUS
10
89.2931802
20
-180.4576603
40
2.5
50
172.0000003
51
262.0000003
0
ARC
8
0
6
CONTINUOUS
10
93.3398954
20
-187.5902682
40
2.5
50
172.0000003
51
262.0000003
0
ARC
8
0
6
CONTINUOUS
10
92.6569418
20
-204.2218104
40
2.5
50
165.9999994
51
255.9999994
0
ARC
8
0
6
CONTINUOUS
10
94.3582197
20
-209.7990547
40
2.5
50
345.9999994
51
75.9999994
0
ARC
8
0
6
CONTINUOUS
10
98.6048935
20
-213.4344035
40
2.5
50
165.9999994
51
255.9999994
0
ARC
8
0
6
CONTINUOUS
10
112.8740482
20
-222.1451715
40
2.5
50
66.0000032
51
75.9999994
0
ARC
8
0
6
CONTINUOUS
10
134.0180521
20
-226.0859073
40
2.5
50
246.0000032
51
336.0000032
0
ARC
8
0
6
CONTINUOUS
10
153.6132462
20
-190.5134515
40
2.5
50
331.9999983
51
61.9999983
0
ARC
8
0
6
CONTINUOUS
10
144.9792698
20
-165.2777487
40
2.5
50
341.9999994
51
71.9999994
0
ARC
8
0
6
CONTINUOUS
10
146.5
20
-108.5
40
2.5
50
90
51
180
0
ARC
8
0
6
CONTINUOUS
10
152.5
20
-103.5
40
2.5
50
270
51
0
0
ARC
8
0
6
CONTINUOUS
10
152.5
20
-68.5
40
2.5
50
0
51
90
0
ARC
8
0
6
CONTINUOUS
10
106.5
20
-68.5
40
2.5
50
90
51
180
0
ARC
8
0
6
CONTINUOUS
10
101.5
20
-73.5
40
2.5
50
270
51
0
0
ARC
8
0
6
CONTINUOUS
10
94.5
20
-78.5
40
2.5
50
90
51
180
0
ARC
8
0
6
CONTINUOUS
10
89.5
20
-86
40
2.5
50
270
51
0
0
ARC
8
0
6
CONTINUOUS
10
86.5
20
-91
40
2.5
50
90
51
180
0
ARC
8
0
6
CONTINUOUS
10
68.5
20
-94
40
2.5
50
90
51
180
0
ARC
8
0
6
CONTINUOUS
10
63.5
20
-112
40
2.5
50
270
51
0
0
ARC
8
0
6
CONTINUOUS
10
50.5
20
-117
40
2.5
50
90
51
180
0
ARC
8
0
6
CONTINUOUS
10
50.5
20
-152
40
2.5
50
180
51
270
0
CIRCLE
8
0
6
CONTINUOUS
10
109.5
20
-70.7
40
1.1
0
CIRCLE
8
0
6
CONTINUOUS
10
129.5
20
-98.7
40
1.1
0
CIRCLE
8
0
6
CONTINUOUS
10
92.5
20
-165.7
40
1.1
0
CIRCLE
8
0
6
CONTINUOUS
10
142.5
20
-166.7
40
1.1
0
CIRCLE
8
0
6
CONTINUOUS
10
95.5
20
-202.7
40
1.1
0
CIRCLE
8
0
6
CONTINUOUS
10
140.5
20
-207.7
40
1.1
0
ENDSEC
0
EOF