0
SECTION
2
HEADER
9
$INSUNITS
70
4
0
ENDSEC
0
SECTION
2
TABLES
0
TABLE
2
LTYPE
0
LTYPE
72
65
70
0
2
CONTINUOUS
3
______
73
0
40
0
0
LTYPE
72
65
70
0
2
DASHED
3
_ _ _ 
73
2
40
7.5
49
5
49
-2.5
0
LTYPE
72
65
70
0
2
DOTTED
3
. . . 
73
2
40
1.5
49
0.5
49
-1
0
ENDTAB
0
TABLE
2
LAYER
0
ENDTAB
0
ENDSEC
0
SECTION
2
ENTITIES
0
LINE
8
0
6
CONTINUOUS
10
50.5
20
-154.5
11
63.5
21
-154.5
0
LINE
8
0
6
CONTINUOUS
10
48
20
-152
11
48
21
-117
0
LINE
8
0
6
CONTINUOUS
10
63.5
20
-114.5
11
50.5
21
-114.5
0
LINE
8
0
6
CONTINUOUS
10
68.5
20
-165.5
11
87.5
21
-165.5
0
LINE
8
0
6
CONTINUOUS
10
90
20
-163
11
90
21
-162.5
0
LINE
8
0
6
CONTINUOUS
10
66
20
-157
11
66
21
-163
0
LINE
8
0
6
CONTINUOUS
10
66
20
-112
11
66
21
-94
0
LINE
8
0
6
CONTINUOUS
10
84
20
-91.5
11
68.5
21
-91.5
0
LINE
8
0
6
CONTINUOUS
10
90
20
-162.5
11
99.5
21
-162.5
0
LINE
8
0
6
CONTINUOUS
10
89.5
20
-88.5
11
86.5
21
-88.5
0
LINE
8
0
6
CONTINUOUS
10
84
20
-91
11
84
21
-91.5
0
LINE
8
0
6
CONTINUOUS
10
102
20
-167.5
11
113.7137706
21
-167.5
0
LINE
8
0
6
CONTINUOUS
10
102
20
-165
11
102
21
-167.5
0
LINE
8
0
6
CONTINUOUS
10
144
20
-150.2282735
11
144
21
-108.5
0
LINE
8
0
6
CONTINUOUS
10
120.9919627
20
-190.0659384
11
121.5889444
21
-190.1498387
0
LINE
8
0
6
CONTINUOUS
10
119.4209176
20
-183.2812632
11
118.8642253
21
-187.2423354
0
LINE
8
0
6
CONTINUOUS
10
172.4294433
20
-208.848023
11
174.1964481
21
-209.7875561
0
LINE
8
0
6
CONTINUOUS
10
174.1964481
20
-209.7875561
11
183.8206152
21
-191.6871305
0
LINE
8
0
6
CONTINUOUS
10
182.7869252
20
-188.3060825
11
172.837142
21
-183.015689
0
LINE
8
0
6
CONTINUOUS
10
171.7412835
20
-182.4330106
11
170.2853706
21
-181.658888
0
LINE
8
0
6
CONTINUOUS
10
126.0000888
20
-215.8601428
11
141.4788529
21
-219.7194322
0
LINE
8
0
6
CONTINUOUS
10
124.783959
20
-210.4038595
11
124.1791542
21
-212.8295988
0
LINE
8
0
6
CONTINUOUS
10
141.8908896
20
-219.8613078
11
161.0012106
21
-228.369771
0
LINE
8
0
6
CONTINUOUS
10
164.3019158
20
-227.1027488
11
172.4294433
21
-208.848023
0
LINE
8
0
6
CONTINUOUS
10
336.5
20
-154.5
11
349.5
21
-154.5
0
LINE
8
0
6
CONTINUOUS
10
352
20
-152
11
352
21
-117
0
LINE
8
0
6
CONTINUOUS
10
349.5
20
-114.5
11
336.5
21
-114.5
0
LINE
8
0
6
CONTINUOUS
10
310
20
-165.5
11
331.5
21
-165.5
0
LINE
8
0
6
CONTINUOUS
10
334
20
-163
11
334
21
-157
0
LINE
8
0
6
CONTINUOUS
10
310
20
-165
11
310
21
-165.5
0
LINE
8
0
6
CONTINUOUS
10
334
20
-112
11
334
21
-94
0
LINE
8
0
6
CONTINUOUS
10
331.5
20
-91.5
11
318.5
21
-91.5
0
LINE
8
0
6
CONTINUOUS
10
298
20
-162.5
11
307.5
21
-162.5
0
LINE
8
0
6
CONTINUOUS
10
316
20
-89
11
316
21
-88.5
0
LINE
8
0
6
CONTINUOUS
10
316
20
-88.5
11
310.5
21
-88.5
0
LINE
8
0
6
CONTINUOUS
10
286.2862294
20
-167.5
11
295.5
21
-167.5
0
LINE
8
0
6
CONTINUOUS
10
298
20
-165
11
298
21
-162.5
0
LINE
8
0
6
CONTINUOUS
10
256
20
-150.2282735
11
256
21
-108.5
0
LINE
8
0
6
CONTINUOUS
10
281.1605659
20
-189.7634202
11
281.4837075
21
-189.7180056
0
LINE
8
0
6
CONTINUOUS
10
281.4837075
20
-189.7180056
11
280.9270151
21
-185.7569334
0
LINE
8
0
6
CONTINUOUS
10
225.8035519
20
-209.7875561
11
227.5705567
21
-208.848023
0
LINE
8
0
6
CONTINUOUS
10
229.7146294
20
-181.658888
11
228.2587165
21
-182.4330106
0
LINE
8
0
6
CONTINUOUS
10
227.162858
20
-183.015689
11
217.2130748
21
-188.3060825
0
LINE
8
0
6
CONTINUOUS
10
216.1793848
20
-191.6871305
11
225.8035519
21
-209.7875561
0
LINE
8
0
6
CONTINUOUS
10
258.5211471
20
-219.7194322
11
273.9999112
21
-215.8601428
0
LINE
8
0
6
CONTINUOUS
10
275.8208458
20
-212.8295988
11
275.216041
21
-210.4038595
0
LINE
8
0
6
CONTINUOUS
10
238.9987894
20
-228.369771
11
258.1091104
21
-219.8613078
0
LINE
8
0
6
CONTINUOUS
10
227.5705567
20
-208.848023
11
235.6980842
21
-227.1027488
0
LINE
8
0
6
CONTINUOUS
10
116.9452475
20
-182.9333305
11
119.4209176
21
-183.2812632
0
LINE
8
0
6
CONTINUOUS
10
152.5389752
20
-156.0076388
11
152.8705771
21
-153.6481687
0
LINE
8
0
6
CONTINUOUS
10
152.8705771
20
-153.6481687
11
146.1520673
21
-152.7039437
0
LINE
8
0
6
CONTINUOUS
10
116.1894408
20
-170.3479327
11
114.8175101
21
-180.1097275
0
LINE
8
0
6
CONTINUOUS
10
170.2853706
20
-181.658888
11
175.3569111
21
-166.0502912
0
LINE
8
0
6
CONTINUOUS
10
173.7518123
20
-162.9001074
11
152.5389752
21
-156.0076388
0
LINE
8
0
6
CONTINUOUS
10
283.0547526
20
-182.9333304
11
285.5304227
21
-182.5853977
0
LINE
8
0
6
CONTINUOUS
10
285.5304227
20
-182.5853977
11
283.8105592
21
-170.3479327
0
LINE
8
0
6
CONTINUOUS
10
253.8479327
20
-152.7039437
11
247.1294229
21
-153.6481687
0
LINE
8
0
6
CONTINUOUS
10
247.1294229
20
-153.6481687
11
247.4610248
21
-156.0076388
0
LINE
8
0
6
CONTINUOUS
10
247.4610248
20
-156.0076388
11
226.2481877
21
-162.9001074
0
LINE
8
0
6
CONTINUOUS
10
224.6430889
20
-166.0502912
11
229.7146294
21
-181.658888
0
LINE
8
0
6
CONTINUOUS
10
120.0521371
20
-206.6475497
11
122.9630244
21
-207.3733155
0
LINE
8
0
6
CONTINUOUS
10
172.837142
20
-183.015689
11
172.909781
21
-182.7243498
0
LINE
8
0
6
CONTINUOUS
10
172.909781
20
-182.7243498
11
171.7412835
21
-182.4330106
0
LINE
8
0
6
CONTINUOUS
10
121.5889444
20
-190.1498387
11
118.2312025
21
-203.6170057
0
LINE
8
0
6
CONTINUOUS
10
277.0369756
20
-207.3733155
11
279.9478629
21
-206.6475497
0
LINE
8
0
6
CONTINUOUS
10
281.7687975
20
-203.6170057
11
279.0827593
21
-192.8438951
0
LINE
8
0
6
CONTINUOUS
10
228.2587165
20
-182.4330106
11
227.090219
21
-182.7243498
0
LINE
8
0
6
CONTINUOUS
10
227.090219
20
-182.7243498
11
227.162858
21
-183.015689
0
LINE
8
0
6
CONTINUOUS
10
155
20
-103.5
11
155
21
-68.5
0
LINE
8
0
6
CONTINUOUS
10
106.5
20
-66
11
152.5
21
-66
0
LINE
8
0
6
CONTINUOUS
10
146.5
20
-106
11
152.5
21
-106
0
LINE
8
0
6
CONTINUOUS
10
245
20
-68.5
11
245
21
-103.5
0
LINE
8
0
6
CONTINUOUS
10
247.5
20
-106
11
253.5
21
-106
0
LINE
8
0
6
CONTINUOUS
10
247.5
20
-66
11
293.5
21
-66
0
LINE
8
0
6
CONTINUOUS
10
104
20
-68.5
11
104
21
-73.5
0
LINE
8
0
6
CONTINUOUS
10
296
20
-73.5
11
296
21
-68.5
0
LINE
8
0
6
CONTINUOUS
10
101.5
20
-76
11
94.5
21
-76
0
LINE
8
0
6
CONTINUOUS
10
92
20
-78.5
11
92
21
-86
0
LINE
8
0
6
CONTINUOUS
10
308
20
-86
11
308
21
-78.5
0
LINE
8
0
6
CONTINUOUS
10
305.5
20
-76
11
298.5
21
-76
0
ARC
8
0
6
CONTINUOUS
10
349.5
20
-152
40
2.5
50
270
51
0
0
ARC
8
0
6
CONTINUOUS
10
349.5
20
-117
40
2.5
50
0
51
90
0
ARC
8
0
6
CONTINUOUS
10
336.5
20
-112
40
2.5
50
180
51
270
0
ARC
8
0
6
CONTINUOUS
10
331.5
20
-94
40
2.5
50
0
51
90
0
ARC
8
0
6
CONTINUOUS
10
318.5
20
-89
40
2.5
50
180
51
270
0
ARC
8
0
6
CONTINUOUS
10
310.5
20
-86
40
2.5
50
180
51
270
0
ARC
8
0
6
CONTINUOUS
10
305.5
20
-78.5
40
2.5
50
0
51
90
0
ARC
8
0
6
CONTINUOUS
10
298.5
20
-73.5
40
2.5
50
180
51
270
0
ARC
8
0
6
CONTINUOUS
10
293.5
20
-68.5
40
2.5
50
0
51
90
0
ARC
8
0
6
CONTINUOUS
10
247.5
20
-68.5
40
2.5
50
90
51
180
0
ARC
8
0
6
CONTINUOUS
10
247.5
20
-103.5
40
2.5
50
180
51
270
0
ARC
8
0
6
CONTINUOUS
10
253.5
20
-108.5
40
2.5
50
0
51
90
0
ARC
8
0
6
CONTINUOUS
10
253.5
20
-150.2282735
40
2.5
50
277.9999997
51
0
0
ARC
8
0
6
CONTINUOUS
10
227.0207302
20
-165.2777487
40
2.5
50
108.0000006
51
198.0000006
0
ARC
8
0
6
CONTINUOUS
10
218.3867538
20
-190.5134515
40
2.5
50
118.0000017
51
208.0000017
0
ARC
8
0
6
CONTINUOUS
10
237.9819479
20
-226.0859073
40
2.5
50
203.9999968
51
293.9999968
0
ARC
8
0
6
CONTINUOUS
10
259.1259518
20
-222.1451715
40
2.5
50
104.0000006
51
113.9999968
0
ARC
8
0
6
CONTINUOUS
10
273.3951065
20
-213.4344035
40
2.5
50
284.0000006
51
14.0000006
0
ARC
8
0
6
CONTINUOUS
10
277.6417803
20
-209.7990547
40
2.5
50
104.0000006
51
194.0000006
0
ARC
8
0
6
CONTINUOUS
10
279.3430582
20
-204.2218104
40
2.5
50
284.0000006
51
14.0000006
0
ARC
8
0
6
CONTINUOUS
10
281.5084986
20
-192.2390904
40
2.5
50
97.9999997
51
194.0000006
0
ARC
8
0
6
CONTINUOUS
10
283.4026853
20
-185.4090006
40
2.5
50
97.9999997
51
187.9999997
0
ARC
8
0
6
CONTINUOUS
10
286.2862294
20
-170
40
2.5
50
90
51
187.9999997
0
ARC
8
0
6
CONTINUOUS
10
295.5
20
-165
40
2.5
50
270
51
0
0
ARC
8
0
6
CONTINUOUS
10
307.5
20
-165
40
2.5
50
0
51
90
0
ARC
8
0
6
CONTINUOUS
10
331.5
20
-163
40
2.5
50
270
51
0
0
ARC
8
0
6
CONTINUOUS
10
336.5
20
-157
40
2.5
50
90
51
180
0
ARC
8
0
6
CONTINUOUS
10
63.5
20
-157
40
2.5
50
0
51
90
0
ARC
8
0
6
CONTINUOUS
10
68.5
20
-163
40
2.5
50
180
51
270
0
ARC
8
0
6
CONTINUOUS
10
87.5
20
-163
40
2.5
50
270
51
0
0
ARC
8
0
6
CONTINUOUS
10
99.5
20
-165
40
2.5
50
0
51
90
0
ARC
8
0
6
CONTINUOUS
10
113.7137706
20
-170
40
2.5
50
352.0000003
51
90
0
ARC
8
0
6
CONTINUOUS
10
117.2931802
20
-180.4576603
40
2.5
50
172.0000003
51
262.0000003
0
ARC
8
0
6
CONTINUOUS
10
121.3398954
20
-187.5902682
40
2.5
50
172.0000003
51
262.0000003
0
ARC
8
0
6
CONTINUOUS
10
120.6569418
20
-204.2218104
40
2.5
50
165.9999994
51
255.9999994
0
ARC
8
0
6
CONTINUOUS
10
122.3582197
20
-209.7990547
40
2.5
50
345.9999994
51
75.9999994
0
ARC
8
0
6
CONTINUOUS
10
126.6048935
20
-213.4344035
40
2.5
50
165.9999994
51
255.9999994
0
ARC
8
0
6
CONTINUOUS
10
140.8740482
20
-222.1451715
40
2.5
50
66.0000032
51
75.9999994
0
ARC
8
0
6
CONTINUOUS
10
162.0180521
20
-226.0859073
40
2.5
50
246.0000032
51
336.0000032
0
ARC
8
0
6
CONTINUOUS
10
181.6132462
20
-190.5134515
40
2.5
50
331.9999983
51
61.9999983
0
ARC
8
0
6
CONTINUOUS
10
172.9792698
20
-165.2777487
40
2.5
50
341.9999994
51
71.9999994
0
ARC
8
0
6
CONTINUOUS
10
146.5
20
-150.2282735
40
2.5
50
180
51
262.0000003
0
ARC
8
0
6
CONTINUOUS
10
146.5
20
-108.5
40
2.5
50
90
51
180
0
ARC
8
0
6
CONTINUOUS
10
152.5
20
-103.5
40
2.5
50
270
51
0
0
ARC
8
0
6
CONTINUOUS
10
152.5
20
-68.5
40
2.5
50
0
51
90
0
ARC
8
0
6
CONTINUOUS
10
106.5
20
-68.5
40
2.5
50
90
51
180
0
ARC
8
0
6
CONTINUOUS
10
101.5
20
-73.5
40
2.5
50
270
51
0
0
ARC
8
0
6
CONTINUOUS
10
94.5
20
-78.5
40
2.5
50
90
51
180
0
ARC
8
0
6
CONTINUOUS
10
89.5
20
-86
40
2.5
50
270
51
0
0
ARC
8
0
6
CONTINUOUS
10
86.5
20
-91
40
2.5
50
90
51
180
0
ARC
8
0
6
CONTINUOUS
10
68.5
20
-94
40
2.5
50
90
51
180
0
ARC
8
0
6
CONTINUOUS
10
63.5
20
-112
40
2.5
50
270
51
0
0
ARC
8
0
6
CONTINUOUS
10
50.5
20
-117
40
2.5
50
90
51
180
0
ARC
8
0
6
CONTINUOUS
10
50.5
20
-152
40
2.5
50
180
51
270
0
CIRCLE
8
0
6
CONTINUOUS
10
109.1
20
-70.7
40
1.1
0
CIRCLE
8
0
6
CONTINUOUS
10
129.1
20
-98.7
40
1.1
0
CIRCLE
8
0
6
CONTINUOUS
10
169.1
20
-165.7
40
1.1
0
CIRCLE
8
0
6
CONTINUOUS
10
120.1
20
-167.7
40
1.1
0
CIRCLE
8
0
6
CONTINUOUS
10
124.1
20
-196.7
40
1.1
0
CIRCLE
8
0
6
CONTINUOUS
10
168.1
20
-207.7
40
1.1
0
CIRCLE
8
0
6
CONTINUOUS
10
290.9
20
-70.7
40
1.1
0
CIRCLE
8
0
6
CONTINUOUS
10
270.9
20
-98.7
40
1.1
0
CIRCLE
8
0
6
CONTINUOUS
10
230.9
20
-165.7
40
1.1
0
CIRCLE
8
0
6
CONTINUOUS
10
279.9
20
-167.7
40
1.1
0
CIRCLE
8
0
6
CONTINUOUS
10
275.9
20
-196.7
40
1.1
0
CIRCLE
8
0
6
CONTINUOUS
10
231.9
20
-207.7
40
1.1
0
ENDSEC
0
EOF