<svg width="141.4mm" height="138.745mm" viewBox="0 0 141.4 138.745" xmlns="http://www.w3.org/2000/svg"><g id="svgGroup" stroke-linecap="round" fill-rule="evenodd" font-size="9pt" stroke="#000" stroke-width="0.25mm" fill="none" style="stroke:#000;stroke-width:0.25mm;fill:none"><path d="M 139.87 70 L 141.4 70 L 141.4 12.5 A 2.5 2.5 0 0 0 138.9 10 L 136.316 10 A 18 18 0 0 1 123.592 4.732 A 2.5 2.5 0 0 0 121.825 4 L 115.713 4 A 18 18 0 0 1 105.032 0.488 A 2.5 2.5 0 0 0 103.548 0 L 80.752 0 A 2.5 2.5 0 0 0 79.268 0.488 A 18 18 0 0 1 68.586 4 L 42.185 4 A 2.5 2.5 0 0 0 41.108 4.244 A 18 18 0 0 1 33.354 6 L 9.35 6 A 2.5 2.5 0 0 0 6.85 8.5 L 6.85 69.131 A 2.5 2.5 0 0 0 7.355 70.638 A 18 18 0 0 1 1.447 97.386 L 0.002 98.155 A 18 18 0 0 1 0 98.156 L 10.994 118.832 A 2.5 2.5 0 0 0 11.71 119.665 A 18 18 0 0 1 17.418 126.791 L 22.739 138.743 L 42.317 130.029 A 18 18 0 0 1 45.284 129.007 L 60.213 125.285 A 2.5 2.5 0 0 0 62.034 122.254 L 60.961 117.951 A 18 18 0 0 1 66.848 99.815 A 2.5 2.5 0 0 0 67.726 98.157 A 18 18 0 0 1 85.632 82 L 85.9 82 A 18 18 0 0 1 98.018 81.863 A 2.5 2.5 0 0 0 98.833 82 L 121.216 82 A 2.5 2.5 0 0 0 123.491 80.537 A 18 18 0 0 1 139.87 70 Z" vector-effect="non-scaling-stroke"/></g></svg>