0
SECTION
2
HEADER
9
$INSUNITS
70
4
0
ENDSEC
0
SECTION
2
TABLES
0
TABLE
2
LTYPE
0
LTYPE
72
65
70
0
2
CONTINUOUS
3
______
73
0
40
0
0
LTYPE
72
65
70
0
2
DASHED
3
_ _ _ 
73
2
40
7.5
49
5
49
-2.5
0
LTYPE
72
65
70
0
2
DOTTED
3
. . . 
73
2
40
1.5
49
0.5
49
-1
0
ENDTAB
0
TABLE
2
LAYER
0
ENDTAB
0
ENDSEC
0
SECTION
2
ENTITIES
0
LINE
8
0
6
CONTINUOUS
10
50.25
20
-166
11
52.8335921
21
-166
0
ARC
8
0
6
CONTINUOUS
10
52.8335921
20
-184
40
18
50
45.0170423
51
90
0
LINE
8
0
6
CONTINUOUS
10
67.3249688
20
-172
11
90.3170334
21
-172
0
ARC
8
0
6
CONTINUOUS
10
97
20
-188.8800918
40
18
50
429.6824923
51
109.0260719
0
LINE
8
0
6
CONTINUOUS
10
103.25
20
-172
11
103.5179019
21
-172
0
ARC
8
0
6
CONTINUOUS
10
103.5179019
20
-190
40
18
50
5.8777892
51
90
0
ARC
8
0
6
CONTINUOUS
10
110.7232272
20
-203.5963811
40
18
50
345.9999998
51
49.9644113
0
LINE
8
0
6
CONTINUOUS
10
128.1885503
20
-207.9509753
11
127.1156194
21
-212.2542662
0
LINE
8
0
6
CONTINUOUS
10
128.9365539
20
-215.2848102
11
143.866034
21
-219.0071477
0
ARC
8
0
6
CONTINUOUS
10
139.5114398
20
-236.4724708
40
18
50
425.9999998
51
76
0
LINE
8
0
6
CONTINUOUS
10
146.8326994
20
-220.0286526
11
164.1262286
21
-227.7282278
0
LINE
8
0
6
CONTINUOUS
10
167.4269337
20
-226.4612058
11
171.7322137
21
-216.7913887
0
ARC
8
0
6
CONTINUOUS
10
188.1760318
20
-224.1126485
40
18
50
126.6173068
51
155.9999994
0
LINE
8
0
6
CONTINUOUS
10
178.1558202
20
-208.832262
11
189.1497668
21
-188.1556555
0
LINE
8
0
6
CONTINUOUS
10
189.1497671
20
-188.1556557
11
187.7026001
21
-187.3861834
0
ARC
8
0
6
CONTINUOUS
10
196.1530879
20
-171.4931265
40
18
50
142.9121291
51
242.0000013
0
LINE
8
0
6
CONTINUOUS
10
182.3
20
-159.1308243
11
182.3
21
-98.5
0
LINE
8
0
6
CONTINUOUS
10
179.8
20
-96
11
155.7962113
21
-96
0
ARC
8
0
6
CONTINUOUS
10
155.7962113
20
-78
40
18
50
244.4805414
51
270
0
LINE
8
0
6
CONTINUOUS
10
120.5637085
20
-94
11
146.9644504
21
-94
0
ARC
8
0
6
CONTINUOUS
10
120.5637085
20
-76
40
18
50
233.5984794
51
270
0
LINE
8
0
6
CONTINUOUS
10
108.3981834
20
-90
11
85.6018166
21
-90
0
ARC
8
0
6
CONTINUOUS
10
73.4362915
20
-76
40
18
50
270
51
306.4015206
0
LINE
8
0
6
CONTINUOUS
10
73.4362915
20
-94
11
67.9341953
21
-94
0
ARC
8
0
6
CONTINUOUS
10
49.2794372
20
-88
40
18
50
270
51
335.5037209
0
LINE
8
0
6
CONTINUOUS
10
49.2794372
20
-106
11
47.75
21
-106
0
LINE
8
0
6
CONTINUOUS
10
47.75
20
-163.5
11
47.75
21
-106
0
ARC
8
0
6
CONTINUOUS
10
67.3249688
20
-169.5
40
2.5
50
225.0170423
51
270
0
ARC
8
0
6
CONTINUOUS
10
90.3170334
20
-169.5
40
2.5
50
270
51
289.0260719
0
ARC
8
0
6
CONTINUOUS
10
123.910125
20
-187.9006579
40
2.5
50
185.8777892
51
229.9644113
0
ARC
8
0
6
CONTINUOUS
10
129.5413587
20
-212.859071
40
2.5
50
165.9999994
51
255.9999994
0
ARC
8
0
6
CONTINUOUS
10
143.2612292
20
-221.432887
40
2.5
50
75.9999994
51
76
0
ARC
8
0
6
CONTINUOUS
10
165.1430701
20
-225.4443642
40
2.5
50
246.0000032
51
335.999998
0
ARC
8
0
6
CONTINUOUS
10
174.0160773
20
-217.8082304
40
2.5
50
155.999998
51
155.9999994
0
ARC
8
0
6
CONTINUOUS
10
175.9484512
20
-207.658583
40
2.5
50
306.6173068
51
331.9999983
0
ARC
8
0
6
CONTINUOUS
10
179.8
20
-159.1308243
40
2.5
50
322.9121291
51
0
0
ARC
8
0
6
CONTINUOUS
10
179.8
20
-98.5
40
2.5
50
0
51
90
0
ARC
8
0
6
CONTINUOUS
10
146.9644504
20
-96.5
40
2.5
50
64.4805414
51
90
0
ARC
8
0
6
CONTINUOUS
10
108.3981834
20
-92.5
40
2.5
50
53.5984794
51
90
0
ARC
8
0
6
CONTINUOUS
10
85.6018166
20
-92.5
40
2.5
50
90
51
126.4015206
0
ARC
8
0
6
CONTINUOUS
10
67.9341953
20
-96.5
40
2.5
50
90
51
155.5037209
0
ARC
8
0
6
CONTINUOUS
10
50.25
20
-163.5
40
2.5
50
180
51
270
0
CIRCLE
8
0
6
CONTINUOUS
10
177.7
20
-100.3
40
1.1
0
CIRCLE
8
0
6
CONTINUOUS
10
63.7
20
-105.3
40
1.1
0
CIRCLE
8
0
6
CONTINUOUS
10
125.7
20
-114.3
40
1.1
0
CIRCLE
8
0
6
CONTINUOUS
10
177.7
20
-159.3
40
1.1
0
CIRCLE
8
0
6
CONTINUOUS
10
103.7
20
-167.3
40
1.1
0
CIRCLE
8
0
6
CONTINUOUS
10
152.7
20
-204.3
40
1.1
0
LINE
8
0
6
CONTINUOUS
10
347.1664079
20
-166
11
349.75
21
-166
0
LINE
8
0
6
CONTINUOUS
10
352.25
20
-163.5
11
352.25
21
-106
0
LINE
8
0
6
CONTINUOUS
10
352.25
20
-106
11
350.7205628
21
-106
0
ARC
8
0
6
CONTINUOUS
10
350.7205628
20
-88
40
18
50
204.4962791
51
270
0
LINE
8
0
6
CONTINUOUS
10
332.0658047
20
-94
11
326.5637085
21
-94
0
ARC
8
0
6
CONTINUOUS
10
326.5637085
20
-76
40
18
50
233.5984794
51
270
0
LINE
8
0
6
CONTINUOUS
10
314.3981834
20
-90
11
291.6018166
21
-90
0
ARC
8
0
6
CONTINUOUS
10
279.4362915
20
-76
40
18
50
270
51
306.4015206
0
LINE
8
0
6
CONTINUOUS
10
253.0355496
20
-94
11
279.4362915
21
-94
0
ARC
8
0
6
CONTINUOUS
10
244.2037887
20
-78
40
18
50
270
51
295.5194586
0
LINE
8
0
6
CONTINUOUS
10
244.2037887
20
-96
11
220.2
21
-96
0
LINE
8
0
6
CONTINUOUS
10
217.7
20
-98.5
11
217.7
21
-159.1308242
0
ARC
8
0
6
CONTINUOUS
10
203.8469121
20
-171.4931264
40
18
50
298.0000013
51
37.0878709
0
LINE
8
0
6
CONTINUOUS
10
212.2974006
20
-187.3861829
11
210.8519081
21
-188.1547648
0
ARC
8
0
6
CONTINUOUS
10
202.3997451
20
-172.2625988
40
18
50
297.9999999
51
298.0060382
0
LINE
8
0
6
CONTINUOUS
10
210.8502332
20
-188.1556555
11
221.8441798
21
-208.832262
0
ARC
8
0
6
CONTINUOUS
10
211.8239682
20
-224.1126485
40
18
50
384.0000001
51
53.3826932
0
LINE
8
0
6
CONTINUOUS
10
228.2677864
20
-216.7913889
11
233.5891361
21
-228.7433361
0
LINE
8
0
6
CONTINUOUS
10
233.5899079
20
-228.7450694
11
253.1673007
21
-220.0286525
0
ARC
8
0
6
CONTINUOUS
10
260.4885603
20
-236.4724707
40
18
50
104
51
114.0000001
0
LINE
8
0
6
CONTINUOUS
10
256.1339661
20
-219.0071476
11
271.0634461
21
-215.2848102
0
LINE
8
0
6
CONTINUOUS
10
272.8843807
20
-212.2542662
11
271.8114497
21
-207.9509752
0
ARC
8
0
6
CONTINUOUS
10
289.2767728
20
-203.5963811
40
18
50
130.0355887
51
193.9999998
0
ARC
8
0
6
CONTINUOUS
10
296.4820981
20
-190
40
18
50
450.0000003
51
174.1222108
0
LINE
8
0
6
CONTINUOUS
10
296.482098
20
-172
11
296.7499999
21
-172
0
ARC
8
0
6
CONTINUOUS
10
303
20
-188.8800918
40
18
50
70.9739281
51
470.3175077
0
LINE
8
0
6
CONTINUOUS
10
309.6829666
20
-172
11
332.6750312
21
-172
0
ARC
8
0
6
CONTINUOUS
10
347.1664079
20
-184
40
18
50
90
51
134.9829577
0
ARC
8
0
6
CONTINUOUS
10
349.75
20
-163.5
40
2.5
50
270
51
0
0
ARC
8
0
6
CONTINUOUS
10
332.0658047
20
-96.5
40
2.5
50
24.4962791
51
90
0
ARC
8
0
6
CONTINUOUS
10
314.3981834
20
-92.5
40
2.5
50
53.5984794
51
90
0
ARC
8
0
6
CONTINUOUS
10
291.6018166
20
-92.5
40
2.5
50
90
51
126.4015206
0
ARC
8
0
6
CONTINUOUS
10
253.0355496
20
-96.5
40
2.5
50
90
51
115.5194586
0
ARC
8
0
6
CONTINUOUS
10
220.2
20
-98.5
40
2.5
50
90
51
180
0
ARC
8
0
6
CONTINUOUS
10
220.2
20
-159.1308242
40
2.5
50
180
51
217.0878709
0
ARC
8
0
6
CONTINUOUS
10
224.0515488
20
-207.658583
40
2.5
50
208.0000017
51
233.3826932
0
ARC
8
0
6
CONTINUOUS
10
256.7387709
20
-221.4328869
40
2.5
50
104
51
104.0000006
0
ARC
8
0
6
CONTINUOUS
10
270.4586414
20
-212.8590709
40
2.5
50
284.0000006
51
14.0000006
0
ARC
8
0
6
CONTINUOUS
10
276.089875
20
-187.9006579
40
2.5
50
310.0355887
51
354.1222108
0
ARC
8
0
6
CONTINUOUS
10
309.6829666
20
-169.5
40
2.5
50
250.9739281
51
270
0
ARC
8
0
6
CONTINUOUS
10
332.6750312
20
-169.5
40
2.5
50
270
51
314.9829577
0
CIRCLE
8
0
6
CONTINUOUS
10
222.3
20
-100.3
40
1.1
0
CIRCLE
8
0
6
CONTINUOUS
10
336.3
20
-105.3
40
1.1
0
CIRCLE
8
0
6
CONTINUOUS
10
274.3
20
-114.3
40
1.1
0
CIRCLE
8
0
6
CONTINUOUS
10
222.3
20
-159.3
40
1.1
0
CIRCLE
8
0
6
CONTINUOUS
10
296.3
20
-167.3
40
1.1
0
CIRCLE
8
0
6
CONTINUOUS
10
247.3
20
-204.3
40
1.1
0
ENDSEC
0
EOF