0
SECTION
2
HEADER
9
$INSUNITS
70
4
0
ENDSEC
0
SECTION
2
TABLES
0
TABLE
2
LTYPE
0
LTYPE
72
65
70
0
2
CONTINUOUS
3
______
73
0
40
0
0
LTYPE
72
65
70
0
2
DASHED
3
_ _ _ 
73
2
40
7.5
49
5
49
-2.5
0
LTYPE
72
65
70
0
2
DOTTED
3
. . . 
73
2
40
1.5
49
0.5
49
-1
0
ENDTAB
0
TABLE
2
LAYER
0
ENDTAB
0
ENDSEC
0
SECTION
2
ENTITIES
0
LINE
8
0
6
CONTINUOUS
10
50.5
20
-160.5
11
63.5
21
-160.5
0
LINE
8
0
6
CONTINUOUS
10
48
20
-158
11
48
21
-106
0
LINE
8
0
6
CONTINUOUS
10
63.5
20
-103.5
11
50.5
21
-103.5
0
LINE
8
0
6
CONTINUOUS
10
68.5
20
-171.5
11
87.5
21
-171.5
0
LINE
8
0
6
CONTINUOUS
10
90
20
-169
11
90
21
-167.5
0
LINE
8
0
6
CONTINUOUS
10
66
20
-163
11
66
21
-169
0
LINE
8
0
6
CONTINUOUS
10
84
20
-97.5
11
68.5
21
-97.5
0
LINE
8
0
6
CONTINUOUS
10
66
20
-100
11
66
21
-101
0
LINE
8
0
6
CONTINUOUS
10
90
20
-167.5
11
99.5
21
-167.5
0
LINE
8
0
6
CONTINUOUS
10
108
20
-97.5
11
108
21
-96
0
LINE
8
0
6
CONTINUOUS
10
105.5
20
-93.5
11
86.5
21
-93.5
0
LINE
8
0
6
CONTINUOUS
10
84
20
-96
11
84
21
-97.5
0
LINE
8
0
6
CONTINUOUS
10
102
20
-171.5
11
119.7196635
21
-171.5
0
LINE
8
0
6
CONTINUOUS
10
102
20
-170
11
102
21
-171.5
0
LINE
8
0
6
CONTINUOUS
10
110.3
20
-97.5
11
108
21
-97.5
0
LINE
8
0
6
CONTINUOUS
10
145.8
20
-168.0734729
11
145.8
21
-106.5
0
LINE
8
0
6
CONTINUOUS
10
122.7919627
20
-188.0659384
11
138.1595949
21
-190.2257182
0
LINE
8
0
6
CONTINUOUS
10
147.0372335
20
-170.0357481
11
147.2837075
21
-168.2819944
0
LINE
8
0
6
CONTINUOUS
10
147.2837075
20
-168.2819944
11
145.8
21
-168.0734729
0
LINE
8
0
6
CONTINUOUS
10
122.1953337
20
-174.3479327
11
120.6642253
21
-185.2423354
0
LINE
8
0
6
CONTINUOUS
10
137.8336264
20
-191.228946
11
142.3
21
-192.6801588
0
LINE
8
0
6
CONTINUOUS
10
167.6025282
20
-177.2753184
11
167.7663736
21
-176.771054
0
LINE
8
0
6
CONTINUOUS
10
167.7663736
20
-176.771054
11
147.0372335
21
-170.0357481
0
LINE
8
0
6
CONTINUOUS
10
138.1595949
20
-190.2257182
11
137.8336264
21
-191.228946
0
LINE
8
0
6
CONTINUOUS
10
174.2294433
20
-206.848023
11
175.9964481
21
-207.7875561
0
LINE
8
0
6
CONTINUOUS
10
175.9964481
20
-207.7875561
11
185.6206152
21
-189.6871305
0
LINE
8
0
6
CONTINUOUS
10
184.5869252
20
-186.3060825
11
167.6025282
21
-177.2753184
0
LINE
8
0
6
CONTINUOUS
10
127.8000888
20
-213.8601428
11
143.2788529
21
-217.7194322
0
LINE
8
0
6
CONTINUOUS
10
142.3
20
-193.7712633
11
133.3642924
21
-191.5433411
0
LINE
8
0
6
CONTINUOUS
10
130.3337484
20
-193.3642757
11
125.9791542
21
-210.8295988
0
LINE
8
0
6
CONTINUOUS
10
143.6908896
20
-217.8613078
11
162.8012106
21
-226.369771
0
LINE
8
0
6
CONTINUOUS
10
166.1019158
20
-225.1027488
11
174.2294433
21
-206.848023
0
LINE
8
0
6
CONTINUOUS
10
336.5
20
-160.5
11
349.5
21
-160.5
0
LINE
8
0
6
CONTINUOUS
10
352
20
-158
11
352
21
-106
0
LINE
8
0
6
CONTINUOUS
10
349.5
20
-103.5
11
336.5
21
-103.5
0
LINE
8
0
6
CONTINUOUS
10
310
20
-171.5
11
331.5
21
-171.5
0
LINE
8
0
6
CONTINUOUS
10
334
20
-169
11
334
21
-163
0
LINE
8
0
6
CONTINUOUS
10
310
20
-170
11
310
21
-171.5
0
LINE
8
0
6
CONTINUOUS
10
334
20
-101
11
334
21
-100
0
LINE
8
0
6
CONTINUOUS
10
331.5
20
-97.5
11
318.5
21
-97.5
0
LINE
8
0
6
CONTINUOUS
10
298
20
-167.5
11
307.5
21
-167.5
0
LINE
8
0
6
CONTINUOUS
10
316
20
-95
11
316
21
-93.5
0
LINE
8
0
6
CONTINUOUS
10
316
20
-93.5
11
294.5
21
-93.5
0
LINE
8
0
6
CONTINUOUS
10
292
20
-96
11
292
21
-97.5
0
LINE
8
0
6
CONTINUOUS
10
280.2803365
20
-171.5
11
295.5
21
-171.5
0
LINE
8
0
6
CONTINUOUS
10
298
20
-169
11
298
21
-167.5
0
LINE
8
0
6
CONTINUOUS
10
292
20
-97.5
11
289.7
21
-97.5
0
LINE
8
0
6
CONTINUOUS
10
254.2
20
-168.0734729
11
254.2
21
-106.5
0
LINE
8
0
6
CONTINUOUS
10
261.8404051
20
-190.2257182
11
277.2080373
21
-188.0659384
0
LINE
8
0
6
CONTINUOUS
10
279.3357747
20
-185.2423354
11
277.8046663
21
-174.3479327
0
LINE
8
0
6
CONTINUOUS
10
254.2
20
-168.0734729
11
252.7162925
21
-168.2819944
0
LINE
8
0
6
CONTINUOUS
10
252.7162925
20
-168.2819944
11
252.9627665
21
-170.0357481
0
LINE
8
0
6
CONTINUOUS
10
257.7
20
-192.6801588
11
262.1663736
21
-191.228946
0
LINE
8
0
6
CONTINUOUS
10
262.1663736
20
-191.228946
11
261.8404051
21
-190.2257182
0
LINE
8
0
6
CONTINUOUS
10
252.9627665
20
-170.0357481
11
232.2336264
21
-176.771054
0
LINE
8
0
6
CONTINUOUS
10
232.2336264
20
-176.771054
11
232.3974718
21
-177.2753184
0
LINE
8
0
6
CONTINUOUS
10
224.0035519
20
-207.7875561
11
225.7705567
21
-206.848023
0
LINE
8
0
6
CONTINUOUS
10
232.3974718
20
-177.2753184
11
215.4130748
21
-186.3060825
0
LINE
8
0
6
CONTINUOUS
10
214.3793848
20
-189.6871305
11
224.0035519
21
-207.7875561
0
LINE
8
0
6
CONTINUOUS
10
256.7211471
20
-217.7194322
11
272.1999112
21
-213.8601428
0
LINE
8
0
6
CONTINUOUS
10
274.0208458
20
-210.8295988
11
269.6662516
21
-193.3642757
0
LINE
8
0
6
CONTINUOUS
10
266.6357076
20
-191.5433411
11
257.7
21
-193.7712633
0
LINE
8
0
6
CONTINUOUS
10
237.1987894
20
-226.369771
11
256.3091104
21
-217.8613078
0
LINE
8
0
6
CONTINUOUS
10
225.7705567
20
-206.848023
11
233.8980842
21
-225.1027488
0
LINE
8
0
6
CONTINUOUS
10
142.3
20
-192.6801588
11
142.3
21
-193.7712633
0
LINE
8
0
6
CONTINUOUS
10
257.7
20
-193.7712633
11
257.7
21
-192.6801588
0
LINE
8
0
6
CONTINUOUS
10
156.8
20
-101.5
11
156.8
21
-66.5
0
LINE
8
0
6
CONTINUOUS
10
154.3
20
-64
11
135.3
21
-64
0
LINE
8
0
6
CONTINUOUS
10
132.8
20
-66.5
11
132.8
21
-68
0
LINE
8
0
6
CONTINUOUS
10
148.3
20
-104
11
154.3
21
-104
0
LINE
8
0
6
CONTINUOUS
10
243.2
20
-66.5
11
243.2
21
-101.5
0
LINE
8
0
6
CONTINUOUS
10
245.7
20
-104
11
251.7
21
-104
0
LINE
8
0
6
CONTINUOUS
10
267.2
20
-65.5
11
267.2
21
-64
0
LINE
8
0
6
CONTINUOUS
10
267.2
20
-64
11
245.7
21
-64
0
LINE
8
0
6
CONTINUOUS
10
128.8
20
-65.5
11
128.8
21
-64
0
LINE
8
0
6
CONTINUOUS
10
128.8
20
-64
11
115.3
21
-64
0
LINE
8
0
6
CONTINUOUS
10
112.8
20
-66.5
11
112.8
21
-95
0
LINE
8
0
6
CONTINUOUS
10
287.2
20
-95
11
287.2
21
-66.5
0
LINE
8
0
6
CONTINUOUS
10
284.7
20
-64
11
273.7
21
-64
0
LINE
8
0
6
CONTINUOUS
10
271.2
20
-66.5
11
271.2
21
-68
0
LINE
8
0
6
CONTINUOUS
10
132.8
20
-68
11
131.3
21
-68
0
LINE
8
0
6
CONTINUOUS
10
271.2
20
-68
11
269.7
21
-68
0
ARC
8
0
6
CONTINUOUS
10
63.5
20
-163
40
2.5
50
0
51
90
0
ARC
8
0
6
CONTINUOUS
10
68.5
20
-169
40
2.5
50
180
51
270
0
ARC
8
0
6
CONTINUOUS
10
87.5
20
-169
40
2.5
50
270
51
0
0
ARC
8
0
6
CONTINUOUS
10
99.5
20
-170
40
2.5
50
0
51
90
0
ARC
8
0
6
CONTINUOUS
10
119.7196635
20
-174
40
2.5
50
352.0000003
51
90
0
ARC
8
0
6
CONTINUOUS
10
123.1398954
20
-185.5902682
40
2.5
50
172.0000003
51
262.0000003
0
ARC
8
0
6
CONTINUOUS
10
132.7594877
20
-193.9690804
40
2.5
50
75.9999994
51
165.9999994
0
ARC
8
0
6
CONTINUOUS
10
128.4048935
20
-211.4344035
40
2.5
50
165.9999994
51
255.9999994
0
ARC
8
0
6
CONTINUOUS
10
142.6740482
20
-220.1451715
40
2.5
50
66.0000032
51
75.9999994
0
ARC
8
0
6
CONTINUOUS
10
163.8180521
20
-224.0859073
40
2.5
50
246.0000032
51
336.0000032
0
ARC
8
0
6
CONTINUOUS
10
183.4132462
20
-188.5134515
40
2.5
50
331.9999983
51
61.9999983
0
ARC
8
0
6
CONTINUOUS
10
148.3
20
-106.5
40
2.5
50
90
51
180
0
ARC
8
0
6
CONTINUOUS
10
154.3
20
-101.5
40
2.5
50
270
51
0
0
ARC
8
0
6
CONTINUOUS
10
154.3
20
-66.5
40
2.5
50
0
51
90
0
ARC
8
0
6
CONTINUOUS
10
135.3
20
-66.5
40
2.5
50
90
51
180
0
ARC
8
0
6
CONTINUOUS
10
131.3
20
-65.5
40
2.5
50
180
51
270
0
ARC
8
0
6
CONTINUOUS
10
115.3
20
-66.5
40
2.5
50
90
51
180
0
ARC
8
0
6
CONTINUOUS
10
110.3
20
-95
40
2.5
50
270
51
0
0
ARC
8
0
6
CONTINUOUS
10
105.5
20
-96
40
2.5
50
0
51
90
0
ARC
8
0
6
CONTINUOUS
10
86.5
20
-96
40
2.5
50
90
51
180
0
ARC
8
0
6
CONTINUOUS
10
68.5
20
-100
40
2.5
50
90
51
180
0
ARC
8
0
6
CONTINUOUS
10
63.5
20
-101
40
2.5
50
270
51
0
0
ARC
8
0
6
CONTINUOUS
10
50.5
20
-106
40
2.5
50
90
51
180
0
ARC
8
0
6
CONTINUOUS
10
50.5
20
-158
40
2.5
50
180
51
270
0
ARC
8
0
6
CONTINUOUS
10
349.5
20
-158
40
2.5
50
270
51
0
0
ARC
8
0
6
CONTINUOUS
10
349.5
20
-106
40
2.5
50
0
51
90
0
ARC
8
0
6
CONTINUOUS
10
336.5
20
-101
40
2.5
50
180
51
270
0
ARC
8
0
6
CONTINUOUS
10
331.5
20
-100
40
2.5
50
0
51
90
0
ARC
8
0
6
CONTINUOUS
10
318.5
20
-95
40
2.5
50
180
51
270
0
ARC
8
0
6
CONTINUOUS
10
294.5
20
-96
40
2.5
50
90
51
180
0
ARC
8
0
6
CONTINUOUS
10
289.7
20
-95
40
2.5
50
180
51
270
0
ARC
8
0
6
CONTINUOUS
10
284.7
20
-66.5
40
2.5
50
0
51
90
0
ARC
8
0
6
CONTINUOUS
10
273.7
20
-66.5
40
2.5
50
90
51
180
0
ARC
8
0
6
CONTINUOUS
10
269.7
20
-65.5
40
2.5
50
180
51
270
0
ARC
8
0
6
CONTINUOUS
10
245.7
20
-66.5
40
2.5
50
90
51
180
0
ARC
8
0
6
CONTINUOUS
10
245.7
20
-101.5
40
2.5
50
180
51
270
0
ARC
8
0
6
CONTINUOUS
10
251.7
20
-106.5
40
2.5
50
0
51
90
0
ARC
8
0
6
CONTINUOUS
10
216.5867538
20
-188.5134515
40
2.5
50
118.0000017
51
208.0000017
0
ARC
8
0
6
CONTINUOUS
10
236.1819479
20
-224.0859073
40
2.5
50
203.9999968
51
293.9999968
0
ARC
8
0
6
CONTINUOUS
10
257.3259518
20
-220.1451715
40
2.5
50
104.0000006
51
113.9999968
0
ARC
8
0
6
CONTINUOUS
10
271.5951065
20
-211.4344035
40
2.5
50
284.0000006
51
14.0000006
0
ARC
8
0
6
CONTINUOUS
10
267.2405123
20
-193.9690804
40
2.5
50
14.0000006
51
104.0000006
0
ARC
8
0
6
CONTINUOUS
10
276.8601046
20
-185.5902682
40
2.5
50
277.9999997
51
7.9999997
0
ARC
8
0
6
CONTINUOUS
10
280.2803365
20
-174
40
2.5
50
90
51
187.9999997
0
ARC
8
0
6
CONTINUOUS
10
295.5
20
-169
40
2.5
50
270
51
0
0
ARC
8
0
6
CONTINUOUS
10
307.5
20
-170
40
2.5
50
0
51
90
0
ARC
8
0
6
CONTINUOUS
10
331.5
20
-169
40
2.5
50
270
51
0
0
ARC
8
0
6
CONTINUOUS
10
336.5
20
-163
40
2.5
50
90
51
180
0
CIRCLE
8
0
6
CONTINUOUS
10
117
20
-68.7
40
1.1
0
CIRCLE
8
0
6
CONTINUOUS
10
129
20
-94.7
40
1.1
0
CIRCLE
8
0
6
CONTINUOUS
10
124
20
-145.7
40
1.1
0
CIRCLE
8
0
6
CONTINUOUS
10
124
20
-168.7
40
1.1
0
CIRCLE
8
0
6
CONTINUOUS
10
165
20
-180.7
40
1.1
0
CIRCLE
8
0
6
CONTINUOUS
10
170
20
-205.7
40
1.1
0
CIRCLE
8
0
6
CONTINUOUS
10
283
20
-68.7
40
1.1
0
CIRCLE
8
0
6
CONTINUOUS
10
271
20
-94.7
40
1.1
0
CIRCLE
8
0
6
CONTINUOUS
10
276
20
-145.7
40
1.1
0
CIRCLE
8
0
6
CONTINUOUS
10
276
20
-168.7
40
1.1
0
CIRCLE
8
0
6
CONTINUOUS
10
235
20
-180.7
40
1.1
0
CIRCLE
8
0
6
CONTINUOUS
10
230
20
-205.7
40
1.1
0
ENDSEC
0
EOF