0
SECTION
2
HEADER
9
$INSUNITS
70
4
0
ENDSEC
0
SECTION
2
TABLES
0
TABLE
2
LTYPE
0
LTYPE
72
65
70
0
2
CONTINUOUS
3
______
73
0
40
0
0
LTYPE
72
65
70
0
2
DASHED
3
_ _ _ 
73
2
40
7.5
49
5
49
-2.5
0
LTYPE
72
65
70
0
2
DOTTED
3
. . . 
73
2
40
1.5
49
0.5
49
-1
0
ENDTAB
0
TABLE
2
LAYER
0
ENDTAB
0
ENDSEC
0
SECTION
2
ENTITIES
0
LINE
8
0
6
CONTINUOUS
10
50.5
20
-154.5
11
63.5
21
-154.5
0
LINE
8
0
6
CONTINUOUS
10
48
20
-152
11
48
21
-117
0
LINE
8
0
6
CONTINUOUS
10
63.5
20
-114.5
11
50.5
21
-114.5
0
LINE
8
0
6
CONTINUOUS
10
68.5
20
-165.5
11
85.9948523
21
-165.5
0
LINE
8
0
6
CONTINUOUS
10
66
20
-157
11
66
21
-163
0
LINE
8
0
6
CONTINUOUS
10
66
20
-112
11
66
21
-94
0
LINE
8
0
6
CONTINUOUS
10
84
20
-91.5
11
68.5
21
-91.5
0
LINE
8
0
6
CONTINUOUS
10
89.5
20
-88.5
11
86.5
21
-88.5
0
LINE
8
0
6
CONTINUOUS
10
84
20
-91
11
84
21
-91.5
0
LINE
8
0
6
CONTINUOUS
10
144
20
-162.3309091
11
144
21
-108.5
0
LINE
8
0
6
CONTINUOUS
10
92.9919627
20
-190.0659384
11
93.5889444
21
-190.1498387
0
LINE
8
0
6
CONTINUOUS
10
91.4209176
20
-183.2812632
11
90.8642253
21
-187.2423354
0
LINE
8
0
6
CONTINUOUS
10
144.4294433
20
-208.848023
11
146.1964481
21
-209.7875561
0
LINE
8
0
6
CONTINUOUS
10
146.1964481
20
-209.7875561
11
155.8206152
21
-191.6871305
0
LINE
8
0
6
CONTINUOUS
10
154.7869252
20
-188.3060825
11
144.837142
21
-183.015689
0
LINE
8
0
6
CONTINUOUS
10
143.7412835
20
-182.4330106
11
142.2853706
21
-181.658888
0
LINE
8
0
6
CONTINUOUS
10
98.0000888
20
-215.8601428
11
113.4788529
21
-219.7194322
0
LINE
8
0
6
CONTINUOUS
10
96.783959
20
-210.4038595
11
96.1791542
21
-212.8295988
0
LINE
8
0
6
CONTINUOUS
10
113.8908896
20
-219.8613078
11
133.0012106
21
-228.369771
0
LINE
8
0
6
CONTINUOUS
10
136.3019158
20
-227.1027488
11
144.4294433
21
-208.848023
0
LINE
8
0
6
CONTINUOUS
10
88.9452475
20
-182.9333305
11
91.4209176
21
-183.2812632
0
LINE
8
0
6
CONTINUOUS
10
88.4705225
20
-168.3479327
11
86.8175101
21
-180.1097275
0
LINE
8
0
6
CONTINUOUS
10
142.2853706
20
-181.658888
11
147.3569111
21
-166.0502912
0
LINE
8
0
6
CONTINUOUS
10
145.7518123
20
-162.9001074
11
144
21
-162.3309091
0
LINE
8
0
6
CONTINUOUS
10
92.0521371
20
-206.6475497
11
94.9630244
21
-207.3733155
0
LINE
8
0
6
CONTINUOUS
10
144.837142
20
-183.015689
11
144.909781
21
-182.7243498
0
LINE
8
0
6
CONTINUOUS
10
144.909781
20
-182.7243498
11
143.7412835
21
-182.4330106
0
LINE
8
0
6
CONTINUOUS
10
93.5889444
20
-190.1498387
11
90.2312025
21
-203.6170057
0
LINE
8
0
6
CONTINUOUS
10
155
20
-103.5
11
155
21
-68.5
0
LINE
8
0
6
CONTINUOUS
10
106.5
20
-66
11
152.5
21
-66
0
LINE
8
0
6
CONTINUOUS
10
146.5
20
-106
11
152.5
21
-106
0
LINE
8
0
6
CONTINUOUS
10
104
20
-68.5
11
104
21
-73.5
0
LINE
8
0
6
CONTINUOUS
10
101.5
20
-76
11
94.5
21
-76
0
LINE
8
0
6
CONTINUOUS
10
92
20
-78.5
11
92
21
-86
0
ARC
8
0
6
CONTINUOUS
10
63.5
20
-157
40
2.5
50
0
51
90
0
ARC
8
0
6
CONTINUOUS
10
68.5
20
-163
40
2.5
50
180
51
270
0
ARC
8
0
6
CONTINUOUS
10
85.9948523
20
-168
40
2.5
50
352.0000003
51
90
0
ARC
8
0
6
CONTINUOUS
10
89.2931802
20
-180.4576603
40
2.5
50
172.0000003
51
262.0000003
0
ARC
8
0
6
CONTINUOUS
10
93.3398954
20
-187.5902682
40
2.5
50
172.0000003
51
262.0000003
0
ARC
8
0
6
CONTINUOUS
10
92.6569418
20
-204.2218104
40
2.5
50
165.9999994
51
255.9999994
0
ARC
8
0
6
CONTINUOUS
10
94.3582197
20
-209.7990547
40
2.5
50
345.9999994
51
75.9999994
0
ARC
8
0
6
CONTINUOUS
10
98.6048935
20
-213.4344035
40
2.5
50
165.9999994
51
255.9999994
0
ARC
8
0
6
CONTINUOUS
10
112.8740482
20
-222.1451715
40
2.5
50
66.0000032
51
75.9999994
0
ARC
8
0
6
CONTINUOUS
10
134.0180521
20
-226.0859073
40
2.5
50
246.0000032
51
336.0000032
0
ARC
8
0
6
CONTINUOUS
10
153.6132462
20
-190.5134515
40
2.5
50
331.9999983
51
61.9999983
0
ARC
8
0
6
CONTINUOUS
10
144.9792698
20
-165.2777487
40
2.5
50
341.9999994
51
71.9999994
0
ARC
8
0
6
CONTINUOUS
10
146.5
20
-108.5
40
2.5
50
90
51
180
0
ARC
8
0
6
CONTINUOUS
10
152.5
20
-103.5
40
2.5
50
270
51
0
0
ARC
8
0
6
CONTINUOUS
10
152.5
20
-68.5
40
2.5
50
0
51
90
0
ARC
8
0
6
CONTINUOUS
10
106.5
20
-68.5
40
2.5
50
90
51
180
0
ARC
8
0
6
CONTINUOUS
10
101.5
20
-73.5
40
2.5
50
270
51
0
0
ARC
8
0
6
CONTINUOUS
10
94.5
20
-78.5
40
2.5
50
90
51
180
0
ARC
8
0
6
CONTINUOUS
10
89.5
20
-86
40
2.5
50
270
51
0
0
ARC
8
0
6
CONTINUOUS
10
86.5
20
-91
40
2.5
50
90
51
180
0
ARC
8
0
6
CONTINUOUS
10
68.5
20
-94
40
2.5
50
90
51
180
0
ARC
8
0
6
CONTINUOUS
10
63.5
20
-112
40
2.5
50
270
51
0
0
ARC
8
0
6
CONTINUOUS
10
50.5
20
-117
40
2.5
50
90
51
180
0
ARC
8
0
6
CONTINUOUS
10
50.5
20
-152
40
2.5
50
180
51
270
0
CIRCLE
8
0
6
CONTINUOUS
10
109.5
20
-70.7
40
1.1
0
CIRCLE
8
0
6
CONTINUOUS
10
129.5
20
-98.7
40
1.1
0
CIRCLE
8
0
6
CONTINUOUS
10
92.5
20
-165.7
40
1.1
0
CIRCLE
8
0
6
CONTINUOUS
10
142.5
20
-166.7
40
1.1
0
CIRCLE
8
0
6
CONTINUOUS
10
95.5
20
-202.7
40
1.1
0
CIRCLE
8
0
6
CONTINUOUS
10
140.5
20
-207.7
40
1.1
0
LINE
8
0
6
CONTINUOUS
10
53.1
20
-149.9
11
66.9
21
-149.9
0
LINE
8
0
6
CONTINUOUS
10
66.9
20
-149.9
11
66.9
21
-136.1
0
LINE
8
0
6
CONTINUOUS
10
66.9
20
-136.1
11
53.1
21
-136.1
0
LINE
8
0
6
CONTINUOUS
10
53.1
20
-136.1
11
53.1
21
-149.9
0
LINE
8
0
6
CONTINUOUS
10
53.1
20
-132.9
11
66.9
21
-132.9
0
LINE
8
0
6
CONTINUOUS
10
66.9
20
-132.9
11
66.9
21
-119.1
0
LINE
8
0
6
CONTINUOUS
10
66.9
20
-119.1
11
53.1
21
-119.1
0
LINE
8
0
6
CONTINUOUS
10
53.1
20
-119.1
11
53.1
21
-132.9
0
LINE
8
0
6
CONTINUOUS
10
71.1
20
-160.9
11
84.9
21
-160.9
0
LINE
8
0
6
CONTINUOUS
10
84.9
20
-160.9
11
84.9
21
-147.1
0
LINE
8
0
6
CONTINUOUS
10
84.9
20
-147.1
11
71.1
21
-147.1
0
LINE
8
0
6
CONTINUOUS
10
71.1
20
-147.1
11
71.1
21
-160.9
0
LINE
8
0
6
CONTINUOUS
10
71.1
20
-143.9
11
84.9
21
-143.9
0
LINE
8
0
6
CONTINUOUS
10
84.9
20
-143.9
11
84.9
21
-130.1
0
LINE
8
0
6
CONTINUOUS
10
84.9
20
-130.1
11
71.1
21
-130.1
0
LINE
8
0
6
CONTINUOUS
10
71.1
20
-130.1
11
71.1
21
-143.9
0
LINE
8
0
6
CONTINUOUS
10
71.1
20
-126.9
11
84.9
21
-126.9
0
LINE
8
0
6
CONTINUOUS
10
84.9
20
-126.9
11
84.9
21
-113.1
0
LINE
8
0
6
CONTINUOUS
10
84.9
20
-113.1
11
71.1
21
-113.1
0
LINE
8
0
6
CONTINUOUS
10
71.1
20
-113.1
11
71.1
21
-126.9
0
LINE
8
0
6
CONTINUOUS
10
71.1
20
-109.9
11
84.9
21
-109.9
0
LINE
8
0
6
CONTINUOUS
10
84.9
20
-109.9
11
84.9
21
-96.1
0
LINE
8
0
6
CONTINUOUS
10
84.9
20
-96.1
11
71.1
21
-96.1
0
LINE
8
0
6
CONTINUOUS
10
71.1
20
-96.1
11
71.1
21
-109.9
0
LINE
8
0
6
CONTINUOUS
10
89.1
20
-157.9
11
102.9
21
-157.9
0
LINE
8
0
6
CONTINUOUS
10
102.9
20
-157.9
11
102.9
21
-144.1
0
LINE
8
0
6
CONTINUOUS
10
102.9
20
-144.1
11
89.1
21
-144.1
0
LINE
8
0
6
CONTINUOUS
10
89.1
20
-144.1
11
89.1
21
-157.9
0
LINE
8
0
6
CONTINUOUS
10
89.1
20
-140.9
11
102.9
21
-140.9
0
LINE
8
0
6
CONTINUOUS
10
102.9
20
-140.9
11
102.9
21
-127.1
0
LINE
8
0
6
CONTINUOUS
10
102.9
20
-127.1
11
89.1
21
-127.1
0
LINE
8
0
6
CONTINUOUS
10
89.1
20
-127.1
11
89.1
21
-140.9
0
LINE
8
0
6
CONTINUOUS
10
89.1
20
-123.9
11
102.9
21
-123.9
0
LINE
8
0
6
CONTINUOUS
10
102.9
20
-123.9
11
102.9
21
-110.1
0
LINE
8
0
6
CONTINUOUS
10
102.9
20
-110.1
11
89.1
21
-110.1
0
LINE
8
0
6
CONTINUOUS
10
89.1
20
-110.1
11
89.1
21
-123.9
0
LINE
8
0
6
CONTINUOUS
10
89.1
20
-106.9
11
102.9
21
-106.9
0
LINE
8
0
6
CONTINUOUS
10
102.9
20
-106.9
11
102.9
21
-93.1
0
LINE
8
0
6
CONTINUOUS
10
102.9
20
-93.1
11
89.1
21
-93.1
0
LINE
8
0
6
CONTINUOUS
10
89.1
20
-93.1
11
89.1
21
-106.9
0
LINE
8
0
6
CONTINUOUS
10
107.1
20
-162.9
11
120.9
21
-162.9
0
LINE
8
0
6
CONTINUOUS
10
120.9
20
-162.9
11
120.9
21
-149.1
0
LINE
8
0
6
CONTINUOUS
10
120.9
20
-149.1
11
107.1
21
-149.1
0
LINE
8
0
6
CONTINUOUS
10
107.1
20
-149.1
11
107.1
21
-162.9
0
LINE
8
0
6
CONTINUOUS
10
107.1
20
-145.9
11
120.9
21
-145.9
0
LINE
8
0
6
CONTINUOUS
10
120.9
20
-145.9
11
120.9
21
-132.1
0
LINE
8
0
6
CONTINUOUS
10
120.9
20
-132.1
11
107.1
21
-132.1
0
LINE
8
0
6
CONTINUOUS
10
107.1
20
-132.1
11
107.1
21
-145.9
0
LINE
8
0
6
CONTINUOUS
10
107.1
20
-128.9
11
120.9
21
-128.9
0
LINE
8
0
6
CONTINUOUS
10
120.9
20
-128.9
11
120.9
21
-115.1
0
LINE
8
0
6
CONTINUOUS
10
120.9
20
-115.1
11
107.1
21
-115.1
0
LINE
8
0
6
CONTINUOUS
10
107.1
20
-115.1
11
107.1
21
-128.9
0
LINE
8
0
6
CONTINUOUS
10
107.1
20
-111.9
11
120.9
21
-111.9
0
LINE
8
0
6
CONTINUOUS
10
120.9
20
-111.9
11
120.9
21
-98.1
0
LINE
8
0
6
CONTINUOUS
10
120.9
20
-98.1
11
107.1
21
-98.1
0
LINE
8
0
6
CONTINUOUS
10
107.1
20
-98.1
11
107.1
21
-111.9
0
LINE
8
0
6
CONTINUOUS
10
125.1
20
-168.9
11
138.9
21
-168.9
0
LINE
8
0
6
CONTINUOUS
10
138.9
20
-168.9
11
138.9
21
-155.1
0
LINE
8
0
6
CONTINUOUS
10
138.9
20
-155.1
11
125.1
21
-155.1
0
LINE
8
0
6
CONTINUOUS
10
125.1
20
-155.1
11
125.1
21
-168.9
0
LINE
8
0
6
CONTINUOUS
10
125.1
20
-151.9
11
138.9
21
-151.9
0
LINE
8
0
6
CONTINUOUS
10
138.9
20
-151.9
11
138.9
21
-138.1
0
LINE
8
0
6
CONTINUOUS
10
138.9
20
-138.1
11
125.1
21
-138.1
0
LINE
8
0
6
CONTINUOUS
10
125.1
20
-138.1
11
125.1
21
-151.9
0
LINE
8
0
6
CONTINUOUS
10
125.1
20
-134.9
11
138.9
21
-134.9
0
LINE
8
0
6
CONTINUOUS
10
138.9
20
-134.9
11
138.9
21
-121.1
0
LINE
8
0
6
CONTINUOUS
10
138.9
20
-121.1
11
125.1
21
-121.1
0
LINE
8
0
6
CONTINUOUS
10
125.1
20
-121.1
11
125.1
21
-134.9
0
LINE
8
0
6
CONTINUOUS
10
125.1
20
-117.9
11
138.9
21
-117.9
0
LINE
8
0
6
CONTINUOUS
10
138.9
20
-117.9
11
138.9
21
-104.1
0
LINE
8
0
6
CONTINUOUS
10
138.9
20
-104.1
11
125.1
21
-104.1
0
LINE
8
0
6
CONTINUOUS
10
125.1
20
-104.1
11
125.1
21
-117.9
0
LINE
8
0
6
CONTINUOUS
10
96.2068559
20
-185.8725553
11
109.8725553
21
-187.7931441
0
LINE
8
0
6
CONTINUOUS
10
109.8725553
20
-187.7931441
11
111.7931441
21
-174.1274447
0
LINE
8
0
6
CONTINUOUS
10
111.7931441
20
-174.1274447
11
98.1274447
21
-172.2068559
0
LINE
8
0
6
CONTINUOUS
10
98.1274447
20
-172.2068559
11
96.2068559
21
-185.8725553
0
LINE
8
0
6
CONTINUOUS
10
114.3054928
20
-190.4300727
11
127.4300727
21
-194.6945072
0
LINE
8
0
6
CONTINUOUS
10
127.4300727
20
-194.6945072
11
131.6945072
21
-181.5699273
0
LINE
8
0
6
CONTINUOUS
10
131.6945072
20
-181.5699273
11
118.5699273
21
-177.3054928
0
LINE
8
0
6
CONTINUOUS
10
118.5699273
20
-177.3054928
11
114.3054928
21
-190.4300727
0
LINE
8
0
6
CONTINUOUS
10
131.6683078
20
-196.8529846
11
143.8529846
21
-203.3316922
0
LINE
8
0
6
CONTINUOUS
10
143.8529846
20
-203.3316922
11
150.3316922
21
-191.1470154
0
LINE
8
0
6
CONTINUOUS
10
150.3316922
20
-191.1470154
11
138.1470154
21
-184.6683078
0
LINE
8
0
6
CONTINUOUS
10
138.1470154
20
-184.6683078
11
131.6683078
21
-196.8529846
0
LINE
8
0
6
CONTINUOUS
10
101.6356984
20
-212.0257794
11
115.0257794
21
-215.3643016
0
LINE
8
0
6
CONTINUOUS
10
115.0257794
20
-215.3643016
11
118.3643016
21
-201.9742206
0
LINE
8
0
6
CONTINUOUS
10
118.3643016
20
-201.9742206
11
104.9742206
21
-198.6356984
0
LINE
8
0
6
CONTINUOUS
10
104.9742206
20
-198.6356984
11
101.6356984
21
-212.0257794
0
LINE
8
0
6
CONTINUOUS
10
119.8900535
20
-217.4969808
11
132.4969808
21
-223.1099465
0
LINE
8
0
6
CONTINUOUS
10
132.4969808
20
-223.1099465
11
138.1099465
21
-210.5030192
0
LINE
8
0
6
CONTINUOUS
10
138.1099465
20
-210.5030192
11
125.5030192
21
-204.8900535
0
LINE
8
0
6
CONTINUOUS
10
125.5030192
20
-204.8900535
11
119.8900535
21
-217.4969808
0
ENDSEC
0
EOF