0
SECTION
2
HEADER
9
$INSUNITS
70
4
0
ENDSEC
0
SECTION
2
TABLES
0
TABLE
2
LTYPE
0
LTYPE
72
65
70
0
2
CONTINUOUS
3
______
73
0
40
0
0
LTYPE
72
65
70
0
2
DASHED
3
_ _ _ 
73
2
40
7.5
49
5
49
-2.5
0
LTYPE
72
65
70
0
2
DOTTED
3
. . . 
73
2
40
1.5
49
0.5
49
-1
0
ENDTAB
0
TABLE
2
LAYER
0
ENDTAB
0
ENDSEC
0
SECTION
2
ENTITIES
0
LINE
8
0
6
CONTINUOUS
10
50.25
20
-172
11
107.447649
21
-172
0
ARC
8
0
6
CONTINUOUS
10
107.447649
20
-190
40
18
50
370.6939949
51
90
0
LINE
8
0
6
CONTINUOUS
10
125.1350295
20
-186.6598547
11
130.1085024
21
-211.1680041
0
LINE
8
0
6
CONTINUOUS
10
131.7245905
20
-213.0276063
11
162.7388652
21
-224.002276
0
LINE
8
0
6
CONTINUOUS
10
165.7139735
20
-222.9360371
11
176.3865968
21
-205.2293216
0
LINE
8
0
6
CONTINUOUS
10
176.4528302
20
-205.1124431
11
183.8100727
21
-191.2754825
0
ARC
8
0
6
CONTINUOUS
10
193.9400418
20
-173.7298736
40
18
50
133.6109662
51
232.9995446
0
LINE
8
0
6
CONTINUOUS
10
182.3
20
-158.8870565
11
182.3
21
-98.5
0
LINE
8
0
6
CONTINUOUS
10
179.8
20
-96
11
160.9664079
21
-96
0
ARC
8
0
6
CONTINUOUS
10
160.9664079
20
-78
40
18
50
225.0170423
51
270
0
LINE
8
0
6
CONTINUOUS
10
146.4750312
20
-90
11
50.25
21
-90
0
LINE
8
0
6
CONTINUOUS
10
47.75
20
-92.5
11
47.75
21
-169.5
0
ARC
8
0
6
CONTINUOUS
10
132.5585632
20
-210.6708098
40
2.5
50
191.4713378
51
250.5132358
0
ARC
8
0
6
CONTINUOUS
10
163.5728379
20
-221.6454796
40
2.5
50
250.5132358
51
328.9207626
0
ARC
8
0
6
CONTINUOUS
10
174.2454613
20
-203.9387641
40
2.5
50
328.9207626
51
331.9999983
0
ARC
8
0
6
CONTINUOUS
10
181.6027037
20
-190.1018035
40
2.5
50
331.9999983
51
52.9995446
0
ARC
8
0
6
CONTINUOUS
10
179.8
20
-158.8870565
40
2.5
50
313.6109662
51
0
0
ARC
8
0
6
CONTINUOUS
10
179.8
20
-98.5
40
2.5
50
0
51
90
0
ARC
8
0
6
CONTINUOUS
10
146.4750312
20
-92.5
40
2.5
50
45.0170423
51
90
0
ARC
8
0
6
CONTINUOUS
10
50.25
20
-92.5
40
2.5
50
90
51
180
0
ARC
8
0
6
CONTINUOUS
10
50.25
20
-169.5
40
2.5
50
180
51
270
0
CIRCLE
8
0
6
CONTINUOUS
10
177.7
20
-100.3
40
1.1
0
CIRCLE
8
0
6
CONTINUOUS
10
63.7
20
-105.3
40
1.1
0
CIRCLE
8
0
6
CONTINUOUS
10
125.7
20
-114.3
40
1.1
0
CIRCLE
8
0
6
CONTINUOUS
10
177.7
20
-159.3
40
1.1
0
CIRCLE
8
0
6
CONTINUOUS
10
103.7
20
-167.3
40
1.1
0
CIRCLE
8
0
6
CONTINUOUS
10
152.7
20
-204.3
40
1.1
0
LINE
8
0
6
CONTINUOUS
10
53.1
20
-160.9
11
66.9
21
-160.9
0
LINE
8
0
6
CONTINUOUS
10
66.9
20
-160.9
11
66.9
21
-147.1
0
LINE
8
0
6
CONTINUOUS
10
66.9
20
-147.1
11
53.1
21
-147.1
0
LINE
8
0
6
CONTINUOUS
10
53.1
20
-147.1
11
53.1
21
-160.9
0
LINE
8
0
6
CONTINUOUS
10
53.1
20
-142.9
11
66.9
21
-142.9
0
LINE
8
0
6
CONTINUOUS
10
66.9
20
-142.9
11
66.9
21
-129.1
0
LINE
8
0
6
CONTINUOUS
10
66.9
20
-129.1
11
53.1
21
-129.1
0
LINE
8
0
6
CONTINUOUS
10
53.1
20
-129.1
11
53.1
21
-142.9
0
LINE
8
0
6
CONTINUOUS
10
53.1
20
-124.9
11
66.9
21
-124.9
0
LINE
8
0
6
CONTINUOUS
10
66.9
20
-124.9
11
66.9
21
-111.1
0
LINE
8
0
6
CONTINUOUS
10
66.9
20
-111.1
11
53.1
21
-111.1
0
LINE
8
0
6
CONTINUOUS
10
53.1
20
-111.1
11
53.1
21
-124.9
0
LINE
8
0
6
CONTINUOUS
10
71.6
20
-166.9
11
85.4
21
-166.9
0
LINE
8
0
6
CONTINUOUS
10
85.4
20
-166.9
11
85.4
21
-153.1
0
LINE
8
0
6
CONTINUOUS
10
85.4
20
-153.1
11
71.6
21
-153.1
0
LINE
8
0
6
CONTINUOUS
10
71.6
20
-153.1
11
71.6
21
-166.9
0
LINE
8
0
6
CONTINUOUS
10
71.6
20
-148.9
11
85.4
21
-148.9
0
LINE
8
0
6
CONTINUOUS
10
85.4
20
-148.9
11
85.4
21
-135.1
0
LINE
8
0
6
CONTINUOUS
10
85.4
20
-135.1
11
71.6
21
-135.1
0
LINE
8
0
6
CONTINUOUS
10
71.6
20
-135.1
11
71.6
21
-148.9
0
LINE
8
0
6
CONTINUOUS
10
71.6
20
-130.9
11
85.4
21
-130.9
0
LINE
8
0
6
CONTINUOUS
10
85.4
20
-130.9
11
85.4
21
-117.1
0
LINE
8
0
6
CONTINUOUS
10
85.4
20
-117.1
11
71.6
21
-117.1
0
LINE
8
0
6
CONTINUOUS
10
71.6
20
-117.1
11
71.6
21
-130.9
0
LINE
8
0
6
CONTINUOUS
10
71.6
20
-112.9
11
85.4
21
-112.9
0
LINE
8
0
6
CONTINUOUS
10
85.4
20
-112.9
11
85.4
21
-99.1
0
LINE
8
0
6
CONTINUOUS
10
85.4
20
-99.1
11
71.6
21
-99.1
0
LINE
8
0
6
CONTINUOUS
10
71.6
20
-99.1
11
71.6
21
-112.9
0
LINE
8
0
6
CONTINUOUS
10
90.1
20
-162.9
11
103.9
21
-162.9
0
LINE
8
0
6
CONTINUOUS
10
103.9
20
-162.9
11
103.9
21
-149.1
0
LINE
8
0
6
CONTINUOUS
10
103.9
20
-149.1
11
90.1
21
-149.1
0
LINE
8
0
6
CONTINUOUS
10
90.1
20
-149.1
11
90.1
21
-162.9
0
LINE
8
0
6
CONTINUOUS
10
90.1
20
-144.9
11
103.9
21
-144.9
0
LINE
8
0
6
CONTINUOUS
10
103.9
20
-144.9
11
103.9
21
-131.1
0
LINE
8
0
6
CONTINUOUS
10
103.9
20
-131.1
11
90.1
21
-131.1
0
LINE
8
0
6
CONTINUOUS
10
90.1
20
-131.1
11
90.1
21
-144.9
0
LINE
8
0
6
CONTINUOUS
10
90.1
20
-126.9
11
103.9
21
-126.9
0
LINE
8
0
6
CONTINUOUS
10
103.9
20
-126.9
11
103.9
21
-113.1
0
LINE
8
0
6
CONTINUOUS
10
103.9
20
-113.1
11
90.1
21
-113.1
0
LINE
8
0
6
CONTINUOUS
10
90.1
20
-113.1
11
90.1
21
-126.9
0
LINE
8
0
6
CONTINUOUS
10
90.1
20
-108.9
11
103.9
21
-108.9
0
LINE
8
0
6
CONTINUOUS
10
103.9
20
-108.9
11
103.9
21
-95.1
0
LINE
8
0
6
CONTINUOUS
10
103.9
20
-95.1
11
90.1
21
-95.1
0
LINE
8
0
6
CONTINUOUS
10
90.1
20
-95.1
11
90.1
21
-108.9
0
LINE
8
0
6
CONTINUOUS
10
108.6
20
-166.9
11
122.4
21
-166.9
0
LINE
8
0
6
CONTINUOUS
10
122.4
20
-166.9
11
122.4
21
-153.1
0
LINE
8
0
6
CONTINUOUS
10
122.4
20
-153.1
11
108.6
21
-153.1
0
LINE
8
0
6
CONTINUOUS
10
108.6
20
-153.1
11
108.6
21
-166.9
0
LINE
8
0
6
CONTINUOUS
10
108.6
20
-148.9
11
122.4
21
-148.9
0
LINE
8
0
6
CONTINUOUS
10
122.4
20
-148.9
11
122.4
21
-135.1
0
LINE
8
0
6
CONTINUOUS
10
122.4
20
-135.1
11
108.6
21
-135.1
0
LINE
8
0
6
CONTINUOUS
10
108.6
20
-135.1
11
108.6
21
-148.9
0
LINE
8
0
6
CONTINUOUS
10
108.6
20
-130.9
11
122.4
21
-130.9
0
LINE
8
0
6
CONTINUOUS
10
122.4
20
-130.9
11
122.4
21
-117.1
0
LINE
8
0
6
CONTINUOUS
10
122.4
20
-117.1
11
108.6
21
-117.1
0
LINE
8
0
6
CONTINUOUS
10
108.6
20
-117.1
11
108.6
21
-130.9
0
LINE
8
0
6
CONTINUOUS
10
108.6
20
-112.9
11
122.4
21
-112.9
0
LINE
8
0
6
CONTINUOUS
10
122.4
20
-112.9
11
122.4
21
-99.1
0
LINE
8
0
6
CONTINUOUS
10
122.4
20
-99.1
11
108.6
21
-99.1
0
LINE
8
0
6
CONTINUOUS
10
108.6
20
-99.1
11
108.6
21
-112.9
0
LINE
8
0
6
CONTINUOUS
10
128.4
20
-166.9
11
142.2
21
-166.9
0
LINE
8
0
6
CONTINUOUS
10
142.2
20
-166.9
11
142.2
21
-153.1
0
LINE
8
0
6
CONTINUOUS
10
142.2
20
-153.1
11
128.4
21
-153.1
0
LINE
8
0
6
CONTINUOUS
10
128.4
20
-153.1
11
128.4
21
-166.9
0
LINE
8
0
6
CONTINUOUS
10
128.4
20
-148.9
11
142.2
21
-148.9
0
LINE
8
0
6
CONTINUOUS
10
142.2
20
-148.9
11
142.2
21
-135.1
0
LINE
8
0
6
CONTINUOUS
10
142.2
20
-135.1
11
128.4
21
-135.1
0
LINE
8
0
6
CONTINUOUS
10
128.4
20
-135.1
11
128.4
21
-148.9
0
LINE
8
0
6
CONTINUOUS
10
128.4
20
-130.9
11
142.2
21
-130.9
0
LINE
8
0
6
CONTINUOUS
10
142.2
20
-130.9
11
142.2
21
-117.1
0
LINE
8
0
6
CONTINUOUS
10
142.2
20
-117.1
11
128.4
21
-117.1
0
LINE
8
0
6
CONTINUOUS
10
128.4
20
-117.1
11
128.4
21
-130.9
0
LINE
8
0
6
CONTINUOUS
10
128.4
20
-112.9
11
142.2
21
-112.9
0
LINE
8
0
6
CONTINUOUS
10
142.2
20
-112.9
11
142.2
21
-99.1
0
LINE
8
0
6
CONTINUOUS
10
142.2
20
-99.1
11
128.4
21
-99.1
0
LINE
8
0
6
CONTINUOUS
10
128.4
20
-99.1
11
128.4
21
-112.9
0
LINE
8
0
6
CONTINUOUS
10
127.5068559
20
-184.8725553
11
141.1725553
21
-186.7931441
0
LINE
8
0
6
CONTINUOUS
10
141.1725553
20
-186.7931441
11
143.0931441
21
-173.1274447
0
LINE
8
0
6
CONTINUOUS
10
143.0931441
20
-173.1274447
11
129.4274447
21
-171.2068559
0
LINE
8
0
6
CONTINUOUS
10
129.4274447
20
-171.2068559
11
127.5068559
21
-184.8725553
0
LINE
8
0
6
CONTINUOUS
10
145.7054928
20
-189.3300727
11
158.8300727
21
-193.5945072
0
LINE
8
0
6
CONTINUOUS
10
158.8300727
20
-193.5945072
11
163.0945072
21
-180.4699273
0
LINE
8
0
6
CONTINUOUS
10
163.0945072
20
-180.4699273
11
149.9699273
21
-176.2054928
0
LINE
8
0
6
CONTINUOUS
10
149.9699273
20
-176.2054928
11
145.7054928
21
-189.3300727
0
LINE
8
0
6
CONTINUOUS
10
163.3683078
20
-195.8529846
11
175.5529846
21
-202.3316922
0
LINE
8
0
6
CONTINUOUS
10
175.5529846
20
-202.3316922
11
182.0316922
21
-190.1470154
0
LINE
8
0
6
CONTINUOUS
10
182.0316922
20
-190.1470154
11
169.8470154
21
-183.6683078
0
LINE
8
0
6
CONTINUOUS
10
169.8470154
20
-183.6683078
11
163.3683078
21
-195.8529846
0
LINE
8
0
6
CONTINUOUS
10
132.9356984
20
-211.0257794
11
146.3257794
21
-214.3643016
0
LINE
8
0
6
CONTINUOUS
10
146.3257794
20
-214.3643016
11
149.6643016
21
-200.9742206
0
LINE
8
0
6
CONTINUOUS
10
149.6643016
20
-200.9742206
11
136.2742206
21
-197.6356984
0
LINE
8
0
6
CONTINUOUS
10
136.2742206
20
-197.6356984
11
132.9356984
21
-211.0257794
0
LINE
8
0
6
CONTINUOUS
10
150.9900535
20
-216.2969808
11
163.5969808
21
-221.9099465
0
LINE
8
0
6
CONTINUOUS
10
163.5969808
20
-221.9099465
11
169.2099465
21
-209.3030192
0
LINE
8
0
6
CONTINUOUS
10
169.2099465
20
-209.3030192
11
156.6030192
21
-203.6900535
0
LINE
8
0
6
CONTINUOUS
10
156.6030192
20
-203.6900535
11
150.9900535
21
-216.2969808
0
ENDSEC
0
EOF