0
SECTION
2
HEADER
9
$INSUNITS
70
4
0
ENDSEC
0
SECTION
2
TABLES
0
TABLE
2
LTYPE
0
LTYPE
72
65
70
0
2
CONTINUOUS
3
______
73
0
40
0
0
LTYPE
72
65
70
0
2
DASHED
3
_ _ _ 
73
2
40
7.5
49
5
49
-2.5
0
LTYPE
72
65
70
0
2
DOTTED
3
. . . 
73
2
40
1.5
49
0.5
49
-1
0
ENDTAB
0
TABLE
2
LAYER
0
ENDTAB
0
ENDSEC
0
SECTION
2
ENTITIES
0
LINE
8
0
6
CONTINUOUS
10
50.5
20
-160.5
11
60
21
-160.5
0
ARC
8
0
6
CONTINUOUS
10
60
20
-166.5
40
6
50
360
51
90
0
LINE
8
0
6
CONTINUOUS
10
66
20
-166.5
11
66
21
-169
0
LINE
8
0
6
CONTINUOUS
10
68.5
20
-171.5
11
88.4457518
21
-171.5
0
ARC
8
0
6
CONTINUOUS
10
95.6568543
20
-173.5
40
6
50
450
51
148.0342811
0
LINE
8
0
6
CONTINUOUS
10
95.6568543
20
-167.5
11
96.3431457
21
-167.5
0
ARC
8
0
6
CONTINUOUS
10
96.3431457
20
-173.5
40
6
50
31.9657189
51
90
0
LINE
8
0
6
CONTINUOUS
10
103.5542482
20
-171.5
11
115.6933741
21
-171.5
0
ARC
8
0
6
CONTINUOUS
10
115.6933741
20
-177.5
40
6
50
352.0000008
51
90
0
LINE
8
0
6
CONTINUOUS
10
121.6349825
20
-178.3350385
11
120.6642253
21
-185.2423354
0
LINE
8
0
6
CONTINUOUS
10
122.7919627
20
-188.0659384
11
124.7559017
21
-188.341952
0
ARC
8
0
6
CONTINUOUS
10
123.9208631
20
-194.2835604
40
6
50
346
51
81.9999999
0
LINE
8
0
6
CONTINUOUS
10
129.7426375
20
-195.7350918
11
125.9791542
21
-210.8295988
0
LINE
8
0
6
CONTINUOUS
10
127.8000887
20
-213.8601428
11
142.9817385
21
-217.6453533
0
ARC
8
0
6
CONTINUOUS
10
141.5302071
20
-223.4671276
40
6
50
425.9999991
51
76
0
LINE
8
0
6
CONTINUOUS
10
143.970627
20
-217.9858549
11
162.8012107
21
-226.3697709
0
LINE
8
0
6
CONTINUOUS
10
166.1019158
20
-225.1027487
11
172.3549985
21
-211.058095
0
ARC
8
0
6
CONTINUOUS
10
177.8362712
20
-213.4985149
40
6
50
115.1930625
51
155.9999999
0
LINE
8
0
6
CONTINUOUS
10
176.4254474
20
-206.9807258
11
185.6206152
21
-189.6871305
0
LINE
8
0
6
CONTINUOUS
10
184.5869252
20
-186.3060825
11
169.6827915
21
-178.3814141
0
ARC
8
0
6
CONTINUOUS
10
172.499621
20
-173.0837285
40
6
50
223.4938333
51
241.9999998
0
LINE
8
0
6
CONTINUOUS
10
167.1058516
20
-176.5564374
11
158.334151
21
-173.7063391
0
ARC
8
0
6
CONTINUOUS
10
160.188253
20
-168
40
6
50
89.9999998
51
251.9999997
0
LINE
8
0
6
CONTINUOUS
10
160.188253
20
-162
11
178.3
21
-162
0
LINE
8
0
6
CONTINUOUS
10
180.8
20
-159.5
11
180.8
21
-100.5
0
LINE
8
0
6
CONTINUOUS
10
178.3
20
-98
11
148.1979158
21
-98
0
ARC
8
0
6
CONTINUOUS
10
148.1979158
20
-92
40
6
50
246.4435354
51
270
0
LINE
8
0
6
CONTINUOUS
10
113.6568543
20
-97.5
11
145.8
21
-97.5
0
ARC
8
0
6
CONTINUOUS
10
113.6568543
20
-91.5
40
6
50
211.9657189
51
270
0
LINE
8
0
6
CONTINUOUS
10
106.4457518
20
-93.5
11
85.5542482
21
-93.5
0
ARC
8
0
6
CONTINUOUS
10
78.3431457
20
-91.5
40
6
50
270
51
328.0342811
0
LINE
8
0
6
CONTINUOUS
10
78.3431457
20
-97.5
11
68.1240384
21
-97.5
0
ARC
8
0
6
CONTINUOUS
10
60
20
-97.5
40
6
50
270
51
342.8953648
0
LINE
8
0
6
CONTINUOUS
10
60
20
-103.5
11
50.5
21
-103.5
0
LINE
8
0
6
CONTINUOUS
10
48
20
-158
11
48
21
-106
0
ARC
8
0
6
CONTINUOUS
10
68.5
20
-169
40
2.5
50
180
51
270
0
ARC
8
0
6
CONTINUOUS
10
88.4457518
20
-169
40
2.5
50
270
51
328.0342811
0
ARC
8
0
6
CONTINUOUS
10
103.5542482
20
-169
40
2.5
50
211.9657189
51
270
0
ARC
8
0
6
CONTINUOUS
10
119.1593123
20
-177.9871058
40
2.5
50
352.0000003
51
352.0000008
0
ARC
8
0
6
CONTINUOUS
10
123.1398955
20
-185.5902682
40
2.5
50
172.0000003
51
262.0000003
0
ARC
8
0
6
CONTINUOUS
10
128.4048935
20
-211.4344035
40
2.5
50
165.9999994
51
255.9999994
0
ARC
8
0
6
CONTINUOUS
10
163.8180521
20
-224.0859072
40
2.5
50
246.0000032
51
336.0000032
0
ARC
8
0
6
CONTINUOUS
10
174.2180785
20
-205.8070468
40
2.5
50
295.1930625
51
331.9999983
0
ARC
8
0
6
CONTINUOUS
10
183.4132462
20
-188.5134515
40
2.5
50
331.9999983
51
61.9999983
0
ARC
8
0
6
CONTINUOUS
10
170.8564705
20
-176.1740451
40
2.5
50
241.9999983
51
241.9999998
0
ARC
8
0
6
CONTINUOUS
10
166.3333091
20
-178.9340788
40
2.5
50
43.4938333
51
71.9999994
0
ARC
8
0
6
CONTINUOUS
10
159.1066935
20
-171.3286978
40
2.5
50
251.9999994
51
251.9999997
0
ARC
8
0
6
CONTINUOUS
10
178.3
20
-159.5
40
2.5
50
270
51
0
0
ARC
8
0
6
CONTINUOUS
10
178.3
20
-100.5
40
2.5
50
0
51
90
0
ARC
8
0
6
CONTINUOUS
10
106.4457518
20
-96
40
2.5
50
31.9657189
51
90
0
ARC
8
0
6
CONTINUOUS
10
85.5542482
20
-96
40
2.5
50
90
51
148.0342811
0
ARC
8
0
6
CONTINUOUS
10
68.1240384
20
-100
40
2.5
50
90
51
162.8953648
0
ARC
8
0
6
CONTINUOUS
10
50.5
20
-106
40
2.5
50
90
51
180
0
ARC
8
0
6
CONTINUOUS
10
50.5
20
-158
40
2.5
50
180
51
270
0
CIRCLE
8
0
6
CONTINUOUS
10
176
20
-102.7
40
1.1
0
CIRCLE
8
0
6
CONTINUOUS
10
124
20
-129.7
40
1.1
0
CIRCLE
8
0
6
CONTINUOUS
10
149
20
-147.7
40
1.1
0
CIRCLE
8
0
6
CONTINUOUS
10
176
20
-157.7
40
1.1
0
CIRCLE
8
0
6
CONTINUOUS
10
124
20
-168.7
40
1.1
0
CIRCLE
8
0
6
CONTINUOUS
10
151
20
-203.7
40
1.1
0
LINE
8
0
6
CONTINUOUS
10
53.1
20
-155.9
11
66.9
21
-155.9
0
LINE
8
0
6
CONTINUOUS
10
66.9
20
-155.9
11
66.9
21
-142.1
0
LINE
8
0
6
CONTINUOUS
10
66.9
20
-142.1
11
53.1
21
-142.1
0
LINE
8
0
6
CONTINUOUS
10
53.1
20
-142.1
11
53.1
21
-155.9
0
LINE
8
0
6
CONTINUOUS
10
53.1
20
-138.9
11
66.9
21
-138.9
0
LINE
8
0
6
CONTINUOUS
10
66.9
20
-138.9
11
66.9
21
-125.1
0
LINE
8
0
6
CONTINUOUS
10
66.9
20
-125.1
11
53.1
21
-125.1
0
LINE
8
0
6
CONTINUOUS
10
53.1
20
-125.1
11
53.1
21
-138.9
0
LINE
8
0
6
CONTINUOUS
10
53.1
20
-121.9
11
66.9
21
-121.9
0
LINE
8
0
6
CONTINUOUS
10
66.9
20
-121.9
11
66.9
21
-108.1
0
LINE
8
0
6
CONTINUOUS
10
66.9
20
-108.1
11
53.1
21
-108.1
0
LINE
8
0
6
CONTINUOUS
10
53.1
20
-108.1
11
53.1
21
-121.9
0
LINE
8
0
6
CONTINUOUS
10
71.1
20
-166.9
11
84.9
21
-166.9
0
LINE
8
0
6
CONTINUOUS
10
84.9
20
-166.9
11
84.9
21
-153.1
0
LINE
8
0
6
CONTINUOUS
10
84.9
20
-153.1
11
71.1
21
-153.1
0
LINE
8
0
6
CONTINUOUS
10
71.1
20
-153.1
11
71.1
21
-166.9
0
LINE
8
0
6
CONTINUOUS
10
71.1
20
-149.9
11
84.9
21
-149.9
0
LINE
8
0
6
CONTINUOUS
10
84.9
20
-149.9
11
84.9
21
-136.1
0
LINE
8
0
6
CONTINUOUS
10
84.9
20
-136.1
11
71.1
21
-136.1
0
LINE
8
0
6
CONTINUOUS
10
71.1
20
-136.1
11
71.1
21
-149.9
0
LINE
8
0
6
CONTINUOUS
10
71.1
20
-132.9
11
84.9
21
-132.9
0
LINE
8
0
6
CONTINUOUS
10
84.9
20
-132.9
11
84.9
21
-119.1
0
LINE
8
0
6
CONTINUOUS
10
84.9
20
-119.1
11
71.1
21
-119.1
0
LINE
8
0
6
CONTINUOUS
10
71.1
20
-119.1
11
71.1
21
-132.9
0
LINE
8
0
6
CONTINUOUS
10
71.1
20
-115.9
11
84.9
21
-115.9
0
LINE
8
0
6
CONTINUOUS
10
84.9
20
-115.9
11
84.9
21
-102.1
0
LINE
8
0
6
CONTINUOUS
10
84.9
20
-102.1
11
71.1
21
-102.1
0
LINE
8
0
6
CONTINUOUS
10
71.1
20
-102.1
11
71.1
21
-115.9
0
LINE
8
0
6
CONTINUOUS
10
89.1
20
-162.9
11
102.9
21
-162.9
0
LINE
8
0
6
CONTINUOUS
10
102.9
20
-162.9
11
102.9
21
-149.1
0
LINE
8
0
6
CONTINUOUS
10
102.9
20
-149.1
11
89.1
21
-149.1
0
LINE
8
0
6
CONTINUOUS
10
89.1
20
-149.1
11
89.1
21
-162.9
0
LINE
8
0
6
CONTINUOUS
10
89.1
20
-145.9
11
102.9
21
-145.9
0
LINE
8
0
6
CONTINUOUS
10
102.9
20
-145.9
11
102.9
21
-132.1
0
LINE
8
0
6
CONTINUOUS
10
102.9
20
-132.1
11
89.1
21
-132.1
0
LINE
8
0
6
CONTINUOUS
10
89.1
20
-132.1
11
89.1
21
-145.9
0
LINE
8
0
6
CONTINUOUS
10
89.1
20
-128.9
11
102.9
21
-128.9
0
LINE
8
0
6
CONTINUOUS
10
102.9
20
-128.9
11
102.9
21
-115.1
0
LINE
8
0
6
CONTINUOUS
10
102.9
20
-115.1
11
89.1
21
-115.1
0
LINE
8
0
6
CONTINUOUS
10
89.1
20
-115.1
11
89.1
21
-128.9
0
LINE
8
0
6
CONTINUOUS
10
89.1
20
-111.9
11
102.9
21
-111.9
0
LINE
8
0
6
CONTINUOUS
10
102.9
20
-111.9
11
102.9
21
-98.1
0
LINE
8
0
6
CONTINUOUS
10
102.9
20
-98.1
11
89.1
21
-98.1
0
LINE
8
0
6
CONTINUOUS
10
89.1
20
-98.1
11
89.1
21
-111.9
0
LINE
8
0
6
CONTINUOUS
10
107.1
20
-166.9
11
120.9
21
-166.9
0
LINE
8
0
6
CONTINUOUS
10
120.9
20
-166.9
11
120.9
21
-153.1
0
LINE
8
0
6
CONTINUOUS
10
120.9
20
-153.1
11
107.1
21
-153.1
0
LINE
8
0
6
CONTINUOUS
10
107.1
20
-153.1
11
107.1
21
-166.9
0
LINE
8
0
6
CONTINUOUS
10
107.1
20
-149.9
11
120.9
21
-149.9
0
LINE
8
0
6
CONTINUOUS
10
120.9
20
-149.9
11
120.9
21
-136.1
0
LINE
8
0
6
CONTINUOUS
10
120.9
20
-136.1
11
107.1
21
-136.1
0
LINE
8
0
6
CONTINUOUS
10
107.1
20
-136.1
11
107.1
21
-149.9
0
LINE
8
0
6
CONTINUOUS
10
107.1
20
-132.9
11
120.9
21
-132.9
0
LINE
8
0
6
CONTINUOUS
10
120.9
20
-132.9
11
120.9
21
-119.1
0
LINE
8
0
6
CONTINUOUS
10
120.9
20
-119.1
11
107.1
21
-119.1
0
LINE
8
0
6
CONTINUOUS
10
107.1
20
-119.1
11
107.1
21
-132.9
0
LINE
8
0
6
CONTINUOUS
10
107.1
20
-115.9
11
120.9
21
-115.9
0
LINE
8
0
6
CONTINUOUS
10
120.9
20
-115.9
11
120.9
21
-102.1
0
LINE
8
0
6
CONTINUOUS
10
120.9
20
-102.1
11
107.1
21
-102.1
0
LINE
8
0
6
CONTINUOUS
10
107.1
20
-102.1
11
107.1
21
-115.9
0
LINE
8
0
6
CONTINUOUS
10
126.9
20
-166.9
11
140.7
21
-166.9
0
LINE
8
0
6
CONTINUOUS
10
140.7
20
-166.9
11
140.7
21
-153.1
0
LINE
8
0
6
CONTINUOUS
10
140.7
20
-153.1
11
126.9
21
-153.1
0
LINE
8
0
6
CONTINUOUS
10
126.9
20
-153.1
11
126.9
21
-166.9
0
LINE
8
0
6
CONTINUOUS
10
126.9
20
-149.9
11
140.7
21
-149.9
0
LINE
8
0
6
CONTINUOUS
10
140.7
20
-149.9
11
140.7
21
-136.1
0
LINE
8
0
6
CONTINUOUS
10
140.7
20
-136.1
11
126.9
21
-136.1
0
LINE
8
0
6
CONTINUOUS
10
126.9
20
-136.1
11
126.9
21
-149.9
0
LINE
8
0
6
CONTINUOUS
10
126.9
20
-132.9
11
140.7
21
-132.9
0
LINE
8
0
6
CONTINUOUS
10
140.7
20
-132.9
11
140.7
21
-119.1
0
LINE
8
0
6
CONTINUOUS
10
140.7
20
-119.1
11
126.9
21
-119.1
0
LINE
8
0
6
CONTINUOUS
10
126.9
20
-119.1
11
126.9
21
-132.9
0
LINE
8
0
6
CONTINUOUS
10
126.9
20
-115.9
11
140.7
21
-115.9
0
LINE
8
0
6
CONTINUOUS
10
140.7
20
-115.9
11
140.7
21
-102.1
0
LINE
8
0
6
CONTINUOUS
10
140.7
20
-102.1
11
126.9
21
-102.1
0
LINE
8
0
6
CONTINUOUS
10
126.9
20
-102.1
11
126.9
21
-115.9
0
LINE
8
0
6
CONTINUOUS
10
126.0068559
20
-183.8725553
11
139.6725553
21
-185.7931441
0
LINE
8
0
6
CONTINUOUS
10
139.6725553
20
-185.7931441
11
141.5931441
21
-172.1274447
0
LINE
8
0
6
CONTINUOUS
10
141.5931441
20
-172.1274447
11
127.9274447
21
-170.2068559
0
LINE
8
0
6
CONTINUOUS
10
127.9274447
20
-170.2068559
11
126.0068559
21
-183.8725553
0
LINE
8
0
6
CONTINUOUS
10
144.1054928
20
-188.4300727
11
157.2300727
21
-192.6945072
0
LINE
8
0
6
CONTINUOUS
10
157.2300727
20
-192.6945072
11
161.4945072
21
-179.5699273
0
LINE
8
0
6
CONTINUOUS
10
161.4945072
20
-179.5699273
11
148.3699273
21
-175.3054928
0
LINE
8
0
6
CONTINUOUS
10
148.3699273
20
-175.3054928
11
144.1054928
21
-188.4300727
0
LINE
8
0
6
CONTINUOUS
10
161.4683078
20
-194.8529846
11
173.6529846
21
-201.3316922
0
LINE
8
0
6
CONTINUOUS
10
173.6529846
20
-201.3316922
11
180.1316922
21
-189.1470154
0
LINE
8
0
6
CONTINUOUS
10
180.1316922
20
-189.1470154
11
167.9470154
21
-182.6683078
0
LINE
8
0
6
CONTINUOUS
10
167.9470154
20
-182.6683078
11
161.4683078
21
-194.8529846
0
LINE
8
0
6
CONTINUOUS
10
131.4356984
20
-210.0257794
11
144.8257794
21
-213.3643016
0
LINE
8
0
6
CONTINUOUS
10
144.8257794
20
-213.3643016
11
148.1643016
21
-199.9742206
0
LINE
8
0
6
CONTINUOUS
10
148.1643016
20
-199.9742206
11
134.7742206
21
-196.6356984
0
LINE
8
0
6
CONTINUOUS
10
134.7742206
20
-196.6356984
11
131.4356984
21
-210.0257794
0
LINE
8
0
6
CONTINUOUS
10
149.6900535
20
-215.4969808
11
162.2969808
21
-221.1099465
0
LINE
8
0
6
CONTINUOUS
10
162.2969808
20
-221.1099465
11
167.9099465
21
-208.5030192
0
LINE
8
0
6
CONTINUOUS
10
167.9099465
20
-208.5030192
11
155.3030192
21
-202.8900535
0
LINE
8
0
6
CONTINUOUS
10
155.3030192
20
-202.8900535
11
149.6900535
21
-215.4969808
0
ENDSEC
0
EOF