0
SECTION
2
HEADER
9
$INSUNITS
70
4
0
ENDSEC
0
SECTION
2
TABLES
0
TABLE
2
LTYPE
0
LTYPE
72
65
70
0
2
CONTINUOUS
3
______
73
0
40
0
0
LTYPE
72
65
70
0
2
DASHED
3
_ _ _ 
73
2
40
7.5
49
5
49
-2.5
0
LTYPE
72
65
70
0
2
DOTTED
3
. . . 
73
2
40
1.5
49
0.5
49
-1
0
ENDTAB
0
TABLE
2
LAYER
0
ENDTAB
0
ENDSEC
0
SECTION
2
ENTITIES
0
LINE
8
0
6
CONTINUOUS
10
50.5
20
-160.5
11
60
21
-160.5
0
ARC
8
0
6
CONTINUOUS
10
60
20
-166.5
40
6
50
360
51
90
0
LINE
8
0
6
CONTINUOUS
10
66
20
-166.5
11
66
21
-169
0
LINE
8
0
6
CONTINUOUS
10
68.5
20
-171.5
11
88.4457518
21
-171.5
0
ARC
8
0
6
CONTINUOUS
10
95.6568543
20
-173.5
40
6
50
450
51
148.0342811
0
LINE
8
0
6
CONTINUOUS
10
95.6568543
20
-167.5
11
96.3431457
21
-167.5
0
ARC
8
0
6
CONTINUOUS
10
96.3431457
20
-173.5
40
6
50
31.9657189
51
90
0
LINE
8
0
6
CONTINUOUS
10
103.5542482
20
-171.5
11
115.6933741
21
-171.5
0
ARC
8
0
6
CONTINUOUS
10
115.6933741
20
-177.5
40
6
50
352.0000008
51
90
0
LINE
8
0
6
CONTINUOUS
10
121.6349825
20
-178.3350385
11
120.6642253
21
-185.2423354
0
LINE
8
0
6
CONTINUOUS
10
122.7919627
20
-188.0659384
11
124.7559017
21
-188.341952
0
ARC
8
0
6
CONTINUOUS
10
123.9208631
20
-194.2835604
40
6
50
346
51
81.9999999
0
LINE
8
0
6
CONTINUOUS
10
129.7426375
20
-195.7350918
11
125.9791542
21
-210.8295988
0
LINE
8
0
6
CONTINUOUS
10
127.8000887
20
-213.8601428
11
142.9817385
21
-217.6453533
0
ARC
8
0
6
CONTINUOUS
10
141.5302071
20
-223.4671276
40
6
50
425.9999991
51
76
0
LINE
8
0
6
CONTINUOUS
10
143.970627
20
-217.9858549
11
162.8012107
21
-226.3697709
0
LINE
8
0
6
CONTINUOUS
10
166.1019158
20
-225.1027487
11
172.3549985
21
-211.058095
0
ARC
8
0
6
CONTINUOUS
10
177.8362712
20
-213.4985149
40
6
50
115.1930625
51
155.9999999
0
LINE
8
0
6
CONTINUOUS
10
176.4254474
20
-206.9807258
11
185.6206152
21
-189.6871305
0
LINE
8
0
6
CONTINUOUS
10
184.5869252
20
-186.3060825
11
169.6827915
21
-178.3814141
0
ARC
8
0
6
CONTINUOUS
10
172.499621
20
-173.0837285
40
6
50
223.4938333
51
241.9999998
0
LINE
8
0
6
CONTINUOUS
10
167.1058516
20
-176.5564374
11
158.334151
21
-173.7063391
0
ARC
8
0
6
CONTINUOUS
10
160.188253
20
-168
40
6
50
89.9999998
51
251.9999997
0
LINE
8
0
6
CONTINUOUS
10
160.188253
20
-162
11
178.3
21
-162
0
LINE
8
0
6
CONTINUOUS
10
180.8
20
-159.5
11
180.8
21
-100.5
0
LINE
8
0
6
CONTINUOUS
10
178.3
20
-98
11
148.1979158
21
-98
0
ARC
8
0
6
CONTINUOUS
10
148.1979158
20
-92
40
6
50
246.4435354
51
270
0
LINE
8
0
6
CONTINUOUS
10
113.6568543
20
-97.5
11
145.8
21
-97.5
0
ARC
8
0
6
CONTINUOUS
10
113.6568543
20
-91.5
40
6
50
211.9657189
51
270
0
LINE
8
0
6
CONTINUOUS
10
106.4457518
20
-93.5
11
85.5542482
21
-93.5
0
ARC
8
0
6
CONTINUOUS
10
78.3431457
20
-91.5
40
6
50
270
51
328.0342811
0
LINE
8
0
6
CONTINUOUS
10
78.3431457
20
-97.5
11
68.1240384
21
-97.5
0
ARC
8
0
6
CONTINUOUS
10
60
20
-97.5
40
6
50
270
51
342.8953648
0
LINE
8
0
6
CONTINUOUS
10
60
20
-103.5
11
50.5
21
-103.5
0
LINE
8
0
6
CONTINUOUS
10
48
20
-158
11
48
21
-106
0
LINE
8
0
6
CONTINUOUS
10
340
20
-160.5
11
349.5
21
-160.5
0
LINE
8
0
6
CONTINUOUS
10
352
20
-158
11
352
21
-106
0
LINE
8
0
6
CONTINUOUS
10
349.5
20
-103.5
11
340
21
-103.5
0
ARC
8
0
6
CONTINUOUS
10
340
20
-97.5
40
6
50
197.1046352
51
270
0
LINE
8
0
6
CONTINUOUS
10
331.8759616
20
-97.5
11
321.6568543
21
-97.5
0
ARC
8
0
6
CONTINUOUS
10
321.6568543
20
-91.5
40
6
50
211.9657189
51
270
0
LINE
8
0
6
CONTINUOUS
10
314.4457518
20
-93.5
11
293.5542482
21
-93.5
0
ARC
8
0
6
CONTINUOUS
10
286.3431457
20
-91.5
40
6
50
270
51
328.0342811
0
LINE
8
0
6
CONTINUOUS
10
254.2
20
-97.5
11
286.3431457
21
-97.5
0
ARC
8
0
6
CONTINUOUS
10
251.8020842
20
-92
40
6
50
270
51
293.5564646
0
LINE
8
0
6
CONTINUOUS
10
251.8020842
20
-98
11
221.7
21
-98
0
LINE
8
0
6
CONTINUOUS
10
219.2
20
-100.5
11
219.2
21
-159.5
0
LINE
8
0
6
CONTINUOUS
10
221.7
20
-162
11
239.8117469
21
-162
0
ARC
8
0
6
CONTINUOUS
10
239.8117469
20
-168
40
6
50
288.0000003
51
90
0
LINE
8
0
6
CONTINUOUS
10
241.6658489
20
-173.7063391
11
232.8941484
21
-176.5564374
0
ARC
8
0
6
CONTINUOUS
10
227.500379
20
-173.0837285
40
6
50
298.0000005
51
316.5061667
0
LINE
8
0
6
CONTINUOUS
10
230.3172084
20
-178.381414
11
215.4130748
21
-186.3060825
0
LINE
8
0
6
CONTINUOUS
10
214.3793848
20
-189.6871304
11
223.5745527
21
-206.9807259
0
ARC
8
0
6
CONTINUOUS
10
222.1637289
20
-213.498515
40
6
50
23.9999993
51
64.8069375
0
LINE
8
0
6
CONTINUOUS
10
227.6450017
20
-211.0580953
11
234.9144803
21
-227.3856119
0
LINE
8
0
6
CONTINUOUS
10
234.9149259
20
-227.3866125
11
256.0293733
21
-217.9858548
0
ARC
8
0
6
CONTINUOUS
10
258.4697932
20
-223.4671276
40
6
50
464.0000005
51
114
0
LINE
8
0
6
CONTINUOUS
10
257.0182618
20
-217.6453532
11
272.1999112
21
-213.8601428
0
LINE
8
0
6
CONTINUOUS
10
274.0208458
20
-210.8295988
11
270.2573625
21
-195.7350918
0
ARC
8
0
6
CONTINUOUS
10
276.0791369
20
-194.2835604
40
6
50
98.0000008
51
194
0
LINE
8
0
6
CONTINUOUS
10
275.2440983
20
-188.341952
11
277.2080373
21
-188.0659383
0
LINE
8
0
6
CONTINUOUS
10
279.3357747
20
-185.2423354
11
278.3650175
21
-178.3350386
0
ARC
8
0
6
CONTINUOUS
10
284.3066259
20
-177.5
40
6
50
89.9999999
51
187.9999998
0
LINE
8
0
6
CONTINUOUS
10
284.3066259
20
-171.5
11
296.4457518
21
-171.5
0
ARC
8
0
6
CONTINUOUS
10
303.6568543
20
-173.5
40
6
50
450
51
148.0342811
0
LINE
8
0
6
CONTINUOUS
10
303.6568543
20
-167.5
11
304.3431457
21
-167.5
0
ARC
8
0
6
CONTINUOUS
10
304.3431457
20
-173.5
40
6
50
31.9657189
51
90
0
LINE
8
0
6
CONTINUOUS
10
311.5542482
20
-171.5
11
331.5
21
-171.5
0
LINE
8
0
6
CONTINUOUS
10
334
20
-169
11
334
21
-166.5
0
ARC
8
0
6
CONTINUOUS
10
340
20
-166.5
40
6
50
90
51
180
0
ARC
8
0
6
CONTINUOUS
10
68.5
20
-169
40
2.5
50
180
51
270
0
ARC
8
0
6
CONTINUOUS
10
88.4457518
20
-169
40
2.5
50
270
51
328.0342811
0
ARC
8
0
6
CONTINUOUS
10
103.5542482
20
-169
40
2.5
50
211.9657189
51
270
0
ARC
8
0
6
CONTINUOUS
10
119.1593123
20
-177.9871058
40
2.5
50
352.0000003
51
352.0000008
0
ARC
8
0
6
CONTINUOUS
10
123.1398955
20
-185.5902682
40
2.5
50
172.0000003
51
262.0000003
0
ARC
8
0
6
CONTINUOUS
10
128.4048935
20
-211.4344035
40
2.5
50
165.9999994
51
255.9999994
0
ARC
8
0
6
CONTINUOUS
10
163.8180521
20
-224.0859072
40
2.5
50
246.0000032
51
336.0000032
0
ARC
8
0
6
CONTINUOUS
10
174.2180785
20
-205.8070468
40
2.5
50
295.1930625
51
331.9999983
0
ARC
8
0
6
CONTINUOUS
10
183.4132462
20
-188.5134515
40
2.5
50
331.9999983
51
61.9999983
0
ARC
8
0
6
CONTINUOUS
10
170.8564705
20
-176.1740451
40
2.5
50
241.9999983
51
241.9999998
0
ARC
8
0
6
CONTINUOUS
10
166.3333091
20
-178.9340788
40
2.5
50
43.4938333
51
71.9999994
0
ARC
8
0
6
CONTINUOUS
10
159.1066935
20
-171.3286978
40
2.5
50
251.9999994
51
251.9999997
0
ARC
8
0
6
CONTINUOUS
10
178.3
20
-159.5
40
2.5
50
270
51
0
0
ARC
8
0
6
CONTINUOUS
10
178.3
20
-100.5
40
2.5
50
0
51
90
0
ARC
8
0
6
CONTINUOUS
10
106.4457518
20
-96
40
2.5
50
31.9657189
51
90
0
ARC
8
0
6
CONTINUOUS
10
85.5542482
20
-96
40
2.5
50
90
51
148.0342811
0
ARC
8
0
6
CONTINUOUS
10
68.1240384
20
-100
40
2.5
50
90
51
162.8953648
0
ARC
8
0
6
CONTINUOUS
10
50.5
20
-106
40
2.5
50
90
51
180
0
ARC
8
0
6
CONTINUOUS
10
50.5
20
-158
40
2.5
50
180
51
270
0
ARC
8
0
6
CONTINUOUS
10
349.5
20
-158
40
2.5
50
270
51
0
0
ARC
8
0
6
CONTINUOUS
10
349.5
20
-106
40
2.5
50
0
51
90
0
ARC
8
0
6
CONTINUOUS
10
331.8759616
20
-100
40
2.5
50
17.1046352
51
90
0
ARC
8
0
6
CONTINUOUS
10
314.4457518
20
-96
40
2.5
50
31.9657189
51
90
0
ARC
8
0
6
CONTINUOUS
10
293.5542482
20
-96
40
2.5
50
90
51
148.0342811
0
ARC
8
0
6
CONTINUOUS
10
221.7
20
-100.5
40
2.5
50
90
51
180
0
ARC
8
0
6
CONTINUOUS
10
221.7
20
-159.5
40
2.5
50
180
51
270
0
ARC
8
0
6
CONTINUOUS
10
233.6666909
20
-178.9340788
40
2.5
50
108.0000006
51
136.5061667
0
ARC
8
0
6
CONTINUOUS
10
216.5867538
20
-188.5134514
40
2.5
50
118.0000017
51
208.0000017
0
ARC
8
0
6
CONTINUOUS
10
225.7819216
20
-205.8070469
40
2.5
50
208.0000017
51
244.8069375
0
ARC
8
0
6
CONTINUOUS
10
225.361138
20
-212.0749368
40
2.5
50
23.9999968
51
23.9999993
0
ARC
8
0
6
CONTINUOUS
10
271.5951065
20
-211.4344035
40
2.5
50
284.0000006
51
14.0000006
0
ARC
8
0
6
CONTINUOUS
10
275.592031
20
-190.8176222
40
2.5
50
97.9999997
51
98.0000008
0
ARC
8
0
6
CONTINUOUS
10
276.8601046
20
-185.5902681
40
2.5
50
277.9999997
51
7.9999997
0
ARC
8
0
6
CONTINUOUS
10
296.4457518
20
-169
40
2.5
50
270
51
328.0342811
0
ARC
8
0
6
CONTINUOUS
10
311.5542482
20
-169
40
2.5
50
211.9657189
51
270
0
ARC
8
0
6
CONTINUOUS
10
331.5
20
-169
40
2.5
50
270
51
0
0
CIRCLE
8
0
6
CONTINUOUS
10
176
20
-102.7
40
1.1
0
CIRCLE
8
0
6
CONTINUOUS
10
124
20
-129.7
40
1.1
0
CIRCLE
8
0
6
CONTINUOUS
10
149
20
-147.7
40
1.1
0
CIRCLE
8
0
6
CONTINUOUS
10
176
20
-157.7
40
1.1
0
CIRCLE
8
0
6
CONTINUOUS
10
124
20
-168.7
40
1.1
0
CIRCLE
8
0
6
CONTINUOUS
10
151
20
-203.7
40
1.1
0
CIRCLE
8
0
6
CONTINUOUS
10
224
20
-102.7
40
1.1
0
CIRCLE
8
0
6
CONTINUOUS
10
276
20
-129.7
40
1.1
0
CIRCLE
8
0
6
CONTINUOUS
10
251
20
-147.7
40
1.1
0
CIRCLE
8
0
6
CONTINUOUS
10
224
20
-157.7
40
1.1
0
CIRCLE
8
0
6
CONTINUOUS
10
276
20
-168.7
40
1.1
0
CIRCLE
8
0
6
CONTINUOUS
10
249
20
-203.7
40
1.1
0
LINE
8
0
6
CONTINUOUS
10
51.25
20
-157.25
11
68.75
21
-157.25
0
LINE
8
0
6
CONTINUOUS
10
68.75
20
-157.25
11
68.75
21
-140.75
0
LINE
8
0
6
CONTINUOUS
10
68.75
20
-140.75
11
51.25
21
-140.75
0
LINE
8
0
6
CONTINUOUS
10
51.25
20
-140.75
11
51.25
21
-157.25
0
LINE
8
0
6
CONTINUOUS
10
51.25
20
-140.25
11
68.75
21
-140.25
0
LINE
8
0
6
CONTINUOUS
10
68.75
20
-140.25
11
68.75
21
-123.75
0
LINE
8
0
6
CONTINUOUS
10
68.75
20
-123.75
11
51.25
21
-123.75
0
LINE
8
0
6
CONTINUOUS
10
51.25
20
-123.75
11
51.25
21
-140.25
0
LINE
8
0
6
CONTINUOUS
10
51.25
20
-123.25
11
68.75
21
-123.25
0
LINE
8
0
6
CONTINUOUS
10
68.75
20
-123.25
11
68.75
21
-106.75
0
LINE
8
0
6
CONTINUOUS
10
68.75
20
-106.75
11
51.25
21
-106.75
0
LINE
8
0
6
CONTINUOUS
10
51.25
20
-106.75
11
51.25
21
-123.25
0
LINE
8
0
6
CONTINUOUS
10
69.25
20
-168.25
11
86.75
21
-168.25
0
LINE
8
0
6
CONTINUOUS
10
86.75
20
-168.25
11
86.75
21
-151.75
0
LINE
8
0
6
CONTINUOUS
10
86.75
20
-151.75
11
69.25
21
-151.75
0
LINE
8
0
6
CONTINUOUS
10
69.25
20
-151.75
11
69.25
21
-168.25
0
LINE
8
0
6
CONTINUOUS
10
69.25
20
-151.25
11
86.75
21
-151.25
0
LINE
8
0
6
CONTINUOUS
10
86.75
20
-151.25
11
86.75
21
-134.75
0
LINE
8
0
6
CONTINUOUS
10
86.75
20
-134.75
11
69.25
21
-134.75
0
LINE
8
0
6
CONTINUOUS
10
69.25
20
-134.75
11
69.25
21
-151.25
0
LINE
8
0
6
CONTINUOUS
10
69.25
20
-134.25
11
86.75
21
-134.25
0
LINE
8
0
6
CONTINUOUS
10
86.75
20
-134.25
11
86.75
21
-117.75
0
LINE
8
0
6
CONTINUOUS
10
86.75
20
-117.75
11
69.25
21
-117.75
0
LINE
8
0
6
CONTINUOUS
10
69.25
20
-117.75
11
69.25
21
-134.25
0
LINE
8
0
6
CONTINUOUS
10
69.25
20
-117.25
11
86.75
21
-117.25
0
LINE
8
0
6
CONTINUOUS
10
86.75
20
-117.25
11
86.75
21
-100.75
0
LINE
8
0
6
CONTINUOUS
10
86.75
20
-100.75
11
69.25
21
-100.75
0
LINE
8
0
6
CONTINUOUS
10
69.25
20
-100.75
11
69.25
21
-117.25
0
LINE
8
0
6
CONTINUOUS
10
87.25
20
-164.25
11
104.75
21
-164.25
0
LINE
8
0
6
CONTINUOUS
10
104.75
20
-164.25
11
104.75
21
-147.75
0
LINE
8
0
6
CONTINUOUS
10
104.75
20
-147.75
11
87.25
21
-147.75
0
LINE
8
0
6
CONTINUOUS
10
87.25
20
-147.75
11
87.25
21
-164.25
0
LINE
8
0
6
CONTINUOUS
10
87.25
20
-147.25
11
104.75
21
-147.25
0
LINE
8
0
6
CONTINUOUS
10
104.75
20
-147.25
11
104.75
21
-130.75
0
LINE
8
0
6
CONTINUOUS
10
104.75
20
-130.75
11
87.25
21
-130.75
0
LINE
8
0
6
CONTINUOUS
10
87.25
20
-130.75
11
87.25
21
-147.25
0
LINE
8
0
6
CONTINUOUS
10
87.25
20
-130.25
11
104.75
21
-130.25
0
LINE
8
0
6
CONTINUOUS
10
104.75
20
-130.25
11
104.75
21
-113.75
0
LINE
8
0
6
CONTINUOUS
10
104.75
20
-113.75
11
87.25
21
-113.75
0
LINE
8
0
6
CONTINUOUS
10
87.25
20
-113.75
11
87.25
21
-130.25
0
LINE
8
0
6
CONTINUOUS
10
87.25
20
-113.25
11
104.75
21
-113.25
0
LINE
8
0
6
CONTINUOUS
10
104.75
20
-113.25
11
104.75
21
-96.75
0
LINE
8
0
6
CONTINUOUS
10
104.75
20
-96.75
11
87.25
21
-96.75
0
LINE
8
0
6
CONTINUOUS
10
87.25
20
-96.75
11
87.25
21
-113.25
0
LINE
8
0
6
CONTINUOUS
10
105.25
20
-168.25
11
122.75
21
-168.25
0
LINE
8
0
6
CONTINUOUS
10
122.75
20
-168.25
11
122.75
21
-151.75
0
LINE
8
0
6
CONTINUOUS
10
122.75
20
-151.75
11
105.25
21
-151.75
0
LINE
8
0
6
CONTINUOUS
10
105.25
20
-151.75
11
105.25
21
-168.25
0
LINE
8
0
6
CONTINUOUS
10
105.25
20
-151.25
11
122.75
21
-151.25
0
LINE
8
0
6
CONTINUOUS
10
122.75
20
-151.25
11
122.75
21
-134.75
0
LINE
8
0
6
CONTINUOUS
10
122.75
20
-134.75
11
105.25
21
-134.75
0
LINE
8
0
6
CONTINUOUS
10
105.25
20
-134.75
11
105.25
21
-151.25
0
LINE
8
0
6
CONTINUOUS
10
105.25
20
-134.25
11
122.75
21
-134.25
0
LINE
8
0
6
CONTINUOUS
10
122.75
20
-134.25
11
122.75
21
-117.75
0
LINE
8
0
6
CONTINUOUS
10
122.75
20
-117.75
11
105.25
21
-117.75
0
LINE
8
0
6
CONTINUOUS
10
105.25
20
-117.75
11
105.25
21
-134.25
0
LINE
8
0
6
CONTINUOUS
10
105.25
20
-117.25
11
122.75
21
-117.25
0
LINE
8
0
6
CONTINUOUS
10
122.75
20
-117.25
11
122.75
21
-100.75
0
LINE
8
0
6
CONTINUOUS
10
122.75
20
-100.75
11
105.25
21
-100.75
0
LINE
8
0
6
CONTINUOUS
10
105.25
20
-100.75
11
105.25
21
-117.25
0
LINE
8
0
6
CONTINUOUS
10
125.05
20
-168.25
11
142.55
21
-168.25
0
LINE
8
0
6
CONTINUOUS
10
142.55
20
-168.25
11
142.55
21
-151.75
0
LINE
8
0
6
CONTINUOUS
10
142.55
20
-151.75
11
125.05
21
-151.75
0
LINE
8
0
6
CONTINUOUS
10
125.05
20
-151.75
11
125.05
21
-168.25
0
LINE
8
0
6
CONTINUOUS
10
125.05
20
-151.25
11
142.55
21
-151.25
0
LINE
8
0
6
CONTINUOUS
10
142.55
20
-151.25
11
142.55
21
-134.75
0
LINE
8
0
6
CONTINUOUS
10
142.55
20
-134.75
11
125.05
21
-134.75
0
LINE
8
0
6
CONTINUOUS
10
125.05
20
-134.75
11
125.05
21
-151.25
0
LINE
8
0
6
CONTINUOUS
10
125.05
20
-134.25
11
142.55
21
-134.25
0
LINE
8
0
6
CONTINUOUS
10
142.55
20
-134.25
11
142.55
21
-117.75
0
LINE
8
0
6
CONTINUOUS
10
142.55
20
-117.75
11
125.05
21
-117.75
0
LINE
8
0
6
CONTINUOUS
10
125.05
20
-117.75
11
125.05
21
-134.25
0
LINE
8
0
6
CONTINUOUS
10
125.05
20
-117.25
11
142.55
21
-117.25
0
LINE
8
0
6
CONTINUOUS
10
142.55
20
-117.25
11
142.55
21
-100.75
0
LINE
8
0
6
CONTINUOUS
10
142.55
20
-100.75
11
125.05
21
-100.75
0
LINE
8
0
6
CONTINUOUS
10
125.05
20
-100.75
11
125.05
21
-117.25
0
LINE
8
0
6
CONTINUOUS
10
123.9869763
20
-184.9519469
11
141.3166675
21
-187.3874762
0
LINE
8
0
6
CONTINUOUS
10
141.3166675
20
-187.3874762
11
143.6130237
21
-171.0480531
0
LINE
8
0
6
CONTINUOUS
10
143.6130237
20
-171.0480531
11
126.2833325
21
-168.6125238
0
LINE
8
0
6
CONTINUOUS
10
126.2833325
20
-168.6125238
11
123.9869763
21
-184.9519469
0
LINE
8
0
6
CONTINUOUS
10
141.9288653
20
-189.1423176
11
158.5723543
21
-194.550115
0
LINE
8
0
6
CONTINUOUS
10
158.5723543
20
-194.550115
11
163.6711347
21
-178.8576824
0
LINE
8
0
6
CONTINUOUS
10
163.6711347
20
-178.8576824
11
147.0276457
21
-173.449885
0
LINE
8
0
6
CONTINUOUS
10
147.0276457
20
-173.449885
11
141.9288653
21
-189.1423176
0
LINE
8
0
6
CONTINUOUS
10
159.2010682
20
-195.1764415
11
174.652651
21
-203.3921938
0
LINE
8
0
6
CONTINUOUS
10
174.652651
20
-203.3921938
11
182.3989318
21
-188.8235585
0
LINE
8
0
6
CONTINUOUS
10
182.3989318
20
-188.8235585
11
166.947349
21
-180.6078062
0
LINE
8
0
6
CONTINUOUS
10
166.947349
20
-180.6078062
11
159.2010682
21
-195.1764415
0
LINE
8
0
6
CONTINUOUS
10
129.3140568
20
-210.8881232
11
146.294232
21
-215.1217563
0
LINE
8
0
6
CONTINUOUS
10
146.294232
20
-215.1217563
11
150.2859432
21
-199.1118768
0
LINE
8
0
6
CONTINUOUS
10
150.2859432
20
-199.1118768
11
133.305768
21
-194.8782437
0
LINE
8
0
6
CONTINUOUS
10
133.305768
20
-194.8782437
11
129.3140568
21
-210.8881232
0
LINE
8
0
6
CONTINUOUS
10
147.4508999
20
-215.9778044
11
163.4379454
21
-223.0956957
0
LINE
8
0
6
CONTINUOUS
10
163.4379454
20
-223.0956957
11
170.1491001
21
-208.0221956
0
LINE
8
0
6
CONTINUOUS
10
170.1491001
20
-208.0221956
11
154.1620546
21
-200.9043043
0
LINE
8
0
6
CONTINUOUS
10
154.1620546
20
-200.9043043
11
147.4508999
21
-215.9778044
0
LINE
8
0
6
CONTINUOUS
10
331.25
20
-157.25
11
348.75
21
-157.25
0
LINE
8
0
6
CONTINUOUS
10
348.75
20
-157.25
11
348.75
21
-140.75
0
LINE
8
0
6
CONTINUOUS
10
348.75
20
-140.75
11
331.25
21
-140.75
0
LINE
8
0
6
CONTINUOUS
10
331.25
20
-140.75
11
331.25
21
-157.25
0
LINE
8
0
6
CONTINUOUS
10
331.25
20
-140.25
11
348.75
21
-140.25
0
LINE
8
0
6
CONTINUOUS
10
348.75
20
-140.25
11
348.75
21
-123.75
0
LINE
8
0
6
CONTINUOUS
10
348.75
20
-123.75
11
331.25
21
-123.75
0
LINE
8
0
6
CONTINUOUS
10
331.25
20
-123.75
11
331.25
21
-140.25
0
LINE
8
0
6
CONTINUOUS
10
331.25
20
-123.25
11
348.75
21
-123.25
0
LINE
8
0
6
CONTINUOUS
10
348.75
20
-123.25
11
348.75
21
-106.75
0
LINE
8
0
6
CONTINUOUS
10
348.75
20
-106.75
11
331.25
21
-106.75
0
LINE
8
0
6
CONTINUOUS
10
331.25
20
-106.75
11
331.25
21
-123.25
0
LINE
8
0
6
CONTINUOUS
10
313.25
20
-168.25
11
330.75
21
-168.25
0
LINE
8
0
6
CONTINUOUS
10
330.75
20
-168.25
11
330.75
21
-151.75
0
LINE
8
0
6
CONTINUOUS
10
330.75
20
-151.75
11
313.25
21
-151.75
0
LINE
8
0
6
CONTINUOUS
10
313.25
20
-151.75
11
313.25
21
-168.25
0
LINE
8
0
6
CONTINUOUS
10
313.25
20
-151.25
11
330.75
21
-151.25
0
LINE
8
0
6
CONTINUOUS
10
330.75
20
-151.25
11
330.75
21
-134.75
0
LINE
8
0
6
CONTINUOUS
10
330.75
20
-134.75
11
313.25
21
-134.75
0
LINE
8
0
6
CONTINUOUS
10
313.25
20
-134.75
11
313.25
21
-151.25
0
LINE
8
0
6
CONTINUOUS
10
313.25
20
-134.25
11
330.75
21
-134.25
0
LINE
8
0
6
CONTINUOUS
10
330.75
20
-134.25
11
330.75
21
-117.75
0
LINE
8
0
6
CONTINUOUS
10
330.75
20
-117.75
11
313.25
21
-117.75
0
LINE
8
0
6
CONTINUOUS
10
313.25
20
-117.75
11
313.25
21
-134.25
0
LINE
8
0
6
CONTINUOUS
10
313.25
20
-117.25
11
330.75
21
-117.25
0
LINE
8
0
6
CONTINUOUS
10
330.75
20
-117.25
11
330.75
21
-100.75
0
LINE
8
0
6
CONTINUOUS
10
330.75
20
-100.75
11
313.25
21
-100.75
0
LINE
8
0
6
CONTINUOUS
10
313.25
20
-100.75
11
313.25
21
-117.25
0
LINE
8
0
6
CONTINUOUS
10
295.25
20
-164.25
11
312.75
21
-164.25
0
LINE
8
0
6
CONTINUOUS
10
312.75
20
-164.25
11
312.75
21
-147.75
0
LINE
8
0
6
CONTINUOUS
10
312.75
20
-147.75
11
295.25
21
-147.75
0
LINE
8
0
6
CONTINUOUS
10
295.25
20
-147.75
11
295.25
21
-164.25
0
LINE
8
0
6
CONTINUOUS
10
295.25
20
-147.25
11
312.75
21
-147.25
0
LINE
8
0
6
CONTINUOUS
10
312.75
20
-147.25
11
312.75
21
-130.75
0
LINE
8
0
6
CONTINUOUS
10
312.75
20
-130.75
11
295.25
21
-130.75
0
LINE
8
0
6
CONTINUOUS
10
295.25
20
-130.75
11
295.25
21
-147.25
0
LINE
8
0
6
CONTINUOUS
10
295.25
20
-130.25
11
312.75
21
-130.25
0
LINE
8
0
6
CONTINUOUS
10
312.75
20
-130.25
11
312.75
21
-113.75
0
LINE
8
0
6
CONTINUOUS
10
312.75
20
-113.75
11
295.25
21
-113.75
0
LINE
8
0
6
CONTINUOUS
10
295.25
20
-113.75
11
295.25
21
-130.25
0
LINE
8
0
6
CONTINUOUS
10
295.25
20
-113.25
11
312.75
21
-113.25
0
LINE
8
0
6
CONTINUOUS
10
312.75
20
-113.25
11
312.75
21
-96.75
0
LINE
8
0
6
CONTINUOUS
10
312.75
20
-96.75
11
295.25
21
-96.75
0
LINE
8
0
6
CONTINUOUS
10
295.25
20
-96.75
11
295.25
21
-113.25
0
LINE
8
0
6
CONTINUOUS
10
277.25
20
-168.25
11
294.75
21
-168.25
0
LINE
8
0
6
CONTINUOUS
10
294.75
20
-168.25
11
294.75
21
-151.75
0
LINE
8
0
6
CONTINUOUS
10
294.75
20
-151.75
11
277.25
21
-151.75
0
LINE
8
0
6
CONTINUOUS
10
277.25
20
-151.75
11
277.25
21
-168.25
0
LINE
8
0
6
CONTINUOUS
10
277.25
20
-151.25
11
294.75
21
-151.25
0
LINE
8
0
6
CONTINUOUS
10
294.75
20
-151.25
11
294.75
21
-134.75
0
LINE
8
0
6
CONTINUOUS
10
294.75
20
-134.75
11
277.25
21
-134.75
0
LINE
8
0
6
CONTINUOUS
10
277.25
20
-134.75
11
277.25
21
-151.25
0
LINE
8
0
6
CONTINUOUS
10
277.25
20
-134.25
11
294.75
21
-134.25
0
LINE
8
0
6
CONTINUOUS
10
294.75
20
-134.25
11
294.75
21
-117.75
0
LINE
8
0
6
CONTINUOUS
10
294.75
20
-117.75
11
277.25
21
-117.75
0
LINE
8
0
6
CONTINUOUS
10
277.25
20
-117.75
11
277.25
21
-134.25
0
LINE
8
0
6
CONTINUOUS
10
277.25
20
-117.25
11
294.75
21
-117.25
0
LINE
8
0
6
CONTINUOUS
10
294.75
20
-117.25
11
294.75
21
-100.75
0
LINE
8
0
6
CONTINUOUS
10
294.75
20
-100.75
11
277.25
21
-100.75
0
LINE
8
0
6
CONTINUOUS
10
277.25
20
-100.75
11
277.25
21
-117.25
0
LINE
8
0
6
CONTINUOUS
10
257.45
20
-168.25
11
274.95
21
-168.25
0
LINE
8
0
6
CONTINUOUS
10
274.95
20
-168.25
11
274.95
21
-151.75
0
LINE
8
0
6
CONTINUOUS
10
274.95
20
-151.75
11
257.45
21
-151.75
0
LINE
8
0
6
CONTINUOUS
10
257.45
20
-151.75
11
257.45
21
-168.25
0
LINE
8
0
6
CONTINUOUS
10
257.45
20
-151.25
11
274.95
21
-151.25
0
LINE
8
0
6
CONTINUOUS
10
274.95
20
-151.25
11
274.95
21
-134.75
0
LINE
8
0
6
CONTINUOUS
10
274.95
20
-134.75
11
257.45
21
-134.75
0
LINE
8
0
6
CONTINUOUS
10
257.45
20
-134.75
11
257.45
21
-151.25
0
LINE
8
0
6
CONTINUOUS
10
257.45
20
-134.25
11
274.95
21
-134.25
0
LINE
8
0
6
CONTINUOUS
10
274.95
20
-134.25
11
274.95
21
-117.75
0
LINE
8
0
6
CONTINUOUS
10
274.95
20
-117.75
11
257.45
21
-117.75
0
LINE
8
0
6
CONTINUOUS
10
257.45
20
-117.75
11
257.45
21
-134.25
0
LINE
8
0
6
CONTINUOUS
10
257.45
20
-117.25
11
274.95
21
-117.25
0
LINE
8
0
6
CONTINUOUS
10
274.95
20
-117.25
11
274.95
21
-100.75
0
LINE
8
0
6
CONTINUOUS
10
274.95
20
-100.75
11
257.45
21
-100.75
0
LINE
8
0
6
CONTINUOUS
10
257.45
20
-100.75
11
257.45
21
-117.25
0
LINE
8
0
6
CONTINUOUS
10
258.6833325
20
-187.3874762
11
276.0130237
21
-184.9519469
0
LINE
8
0
6
CONTINUOUS
10
276.0130237
20
-184.9519469
11
273.7166675
21
-168.6125238
0
LINE
8
0
6
CONTINUOUS
10
273.7166675
20
-168.6125238
11
256.3869763
21
-171.0480531
0
LINE
8
0
6
CONTINUOUS
10
256.3869763
20
-171.0480531
11
258.6833325
21
-187.3874762
0
LINE
8
0
6
CONTINUOUS
10
241.4276457
20
-194.550115
11
258.0711347
21
-189.1423176
0
LINE
8
0
6
CONTINUOUS
10
258.0711347
20
-189.1423176
11
252.9723543
21
-173.449885
0
LINE
8
0
6
CONTINUOUS
10
252.9723543
20
-173.449885
11
236.3288653
21
-178.8576824
0
LINE
8
0
6
CONTINUOUS
10
236.3288653
20
-178.8576824
11
241.4276457
21
-194.550115
0
LINE
8
0
6
CONTINUOUS
10
225.347349
20
-203.3921938
11
240.7989318
21
-195.1764415
0
LINE
8
0
6
CONTINUOUS
10
240.7989318
20
-195.1764415
11
233.052651
21
-180.6078062
0
LINE
8
0
6
CONTINUOUS
10
233.052651
20
-180.6078062
11
217.6010682
21
-188.8235585
0
LINE
8
0
6
CONTINUOUS
10
217.6010682
20
-188.8235585
11
225.347349
21
-203.3921938
0
LINE
8
0
6
CONTINUOUS
10
253.705768
20
-215.1217563
11
270.6859432
21
-210.8881232
0
LINE
8
0
6
CONTINUOUS
10
270.6859432
20
-210.8881232
11
266.694232
21
-194.8782437
0
LINE
8
0
6
CONTINUOUS
10
266.694232
20
-194.8782437
11
249.7140568
21
-199.1118768
0
LINE
8
0
6
CONTINUOUS
10
249.7140568
20
-199.1118768
11
253.705768
21
-215.1217563
0
LINE
8
0
6
CONTINUOUS
10
236.5620546
20
-223.0956957
11
252.5491001
21
-215.9778044
0
LINE
8
0
6
CONTINUOUS
10
252.5491001
20
-215.9778044
11
245.8379454
21
-200.9043043
0
LINE
8
0
6
CONTINUOUS
10
245.8379454
20
-200.9043043
11
229.8508999
21
-208.0221956
0
LINE
8
0
6
CONTINUOUS
10
229.8508999
20
-208.0221956
11
236.5620546
21
-223.0956957
0
ENDSEC
0
EOF