0
SECTION
2
HEADER
9
$INSUNITS
70
4
0
ENDSEC
0
SECTION
2
TABLES
0
TABLE
2
LTYPE
0
LTYPE
72
65
70
0
2
CONTINUOUS
3
______
73
0
40
0
0
LTYPE
72
65
70
0
2
DASHED
3
_ _ _ 
73
2
40
7.5
49
5
49
-2.5
0
LTYPE
72
65
70
0
2
DOTTED
3
. . . 
73
2
40
1.5
49
0.5
49
-1
0
ENDTAB
0
TABLE
2
LAYER
0
ENDTAB
0
ENDSEC
0
SECTION
2
ENTITIES
0
LINE
8
0
6
CONTINUOUS
10
50.25
20
-172
11
107.447649
21
-172
0
ARC
8
0
6
CONTINUOUS
10
107.447649
20
-190
40
18
50
370.6939949
51
90
0
LINE
8
0
6
CONTINUOUS
10
125.1350295
20
-186.6598547
11
130.1085024
21
-211.1680041
0
LINE
8
0
6
CONTINUOUS
10
131.7245905
20
-213.0276063
11
162.7388652
21
-224.002276
0
LINE
8
0
6
CONTINUOUS
10
165.7139735
20
-222.9360371
11
176.3865968
21
-205.2293216
0
LINE
8
0
6
CONTINUOUS
10
176.4528302
20
-205.1124431
11
183.8100727
21
-191.2754825
0
ARC
8
0
6
CONTINUOUS
10
193.9400418
20
-173.7298736
40
18
50
133.6109662
51
232.9995446
0
LINE
8
0
6
CONTINUOUS
10
182.3
20
-158.8870565
11
182.3
21
-98.5
0
LINE
8
0
6
CONTINUOUS
10
179.8
20
-96
11
160.9664079
21
-96
0
ARC
8
0
6
CONTINUOUS
10
160.9664079
20
-78
40
18
50
225.0170423
51
270
0
LINE
8
0
6
CONTINUOUS
10
146.4750312
20
-90
11
50.25
21
-90
0
LINE
8
0
6
CONTINUOUS
10
47.75
20
-92.5
11
47.75
21
-169.5
0
ARC
8
0
6
CONTINUOUS
10
132.5585632
20
-210.6708098
40
2.5
50
191.4713378
51
250.5132358
0
ARC
8
0
6
CONTINUOUS
10
163.5728379
20
-221.6454796
40
2.5
50
250.5132358
51
328.9207626
0
ARC
8
0
6
CONTINUOUS
10
174.2454613
20
-203.9387641
40
2.5
50
328.9207626
51
331.9999983
0
ARC
8
0
6
CONTINUOUS
10
181.6027037
20
-190.1018035
40
2.5
50
331.9999983
51
52.9995446
0
ARC
8
0
6
CONTINUOUS
10
179.8
20
-158.8870565
40
2.5
50
313.6109662
51
0
0
ARC
8
0
6
CONTINUOUS
10
179.8
20
-98.5
40
2.5
50
0
51
90
0
ARC
8
0
6
CONTINUOUS
10
146.4750312
20
-92.5
40
2.5
50
45.0170423
51
90
0
ARC
8
0
6
CONTINUOUS
10
50.25
20
-92.5
40
2.5
50
90
51
180
0
ARC
8
0
6
CONTINUOUS
10
50.25
20
-169.5
40
2.5
50
180
51
270
0
CIRCLE
8
0
6
CONTINUOUS
10
177.7
20
-100.3
40
1.1
0
CIRCLE
8
0
6
CONTINUOUS
10
63.7
20
-105.3
40
1.1
0
CIRCLE
8
0
6
CONTINUOUS
10
125.7
20
-114.3
40
1.1
0
CIRCLE
8
0
6
CONTINUOUS
10
177.7
20
-159.3
40
1.1
0
CIRCLE
8
0
6
CONTINUOUS
10
103.7
20
-167.3
40
1.1
0
CIRCLE
8
0
6
CONTINUOUS
10
152.7
20
-204.3
40
1.1
0
LINE
8
0
6
CONTINUOUS
10
292.552351
20
-172
11
349.75
21
-172
0
LINE
8
0
6
CONTINUOUS
10
352.25
20
-169.5
11
352.25
21
-92.5
0
LINE
8
0
6
CONTINUOUS
10
349.75
20
-90
11
253.5249688
21
-90
0
ARC
8
0
6
CONTINUOUS
10
239.0335921
20
-78
40
18
50
270
51
314.9829577
0
LINE
8
0
6
CONTINUOUS
10
239.0335921
20
-96
11
220.2
21
-96
0
LINE
8
0
6
CONTINUOUS
10
217.7
20
-98.5
11
217.7
21
-158.8870565
0
ARC
8
0
6
CONTINUOUS
10
206.0599582
20
-173.7298736
40
18
50
307.0004554
51
46.3890338
0
LINE
8
0
6
CONTINUOUS
10
216.1899273
20
-191.2754825
11
223.5471698
21
-205.1124431
0
LINE
8
0
6
CONTINUOUS
10
223.6134032
20
-205.2293216
11
234.2860265
21
-222.9360371
0
LINE
8
0
6
CONTINUOUS
10
237.2611348
20
-224.002276
11
268.2754095
21
-213.0276063
0
LINE
8
0
6
CONTINUOUS
10
269.8914976
20
-211.1680041
11
274.8649705
21
-186.6598547
0
ARC
8
0
6
CONTINUOUS
10
292.552351
20
-190
40
18
50
90
51
169.3060051
0
ARC
8
0
6
CONTINUOUS
10
349.75
20
-169.5
40
2.5
50
270
51
0
0
ARC
8
0
6
CONTINUOUS
10
349.75
20
-92.5
40
2.5
50
0
51
90
0
ARC
8
0
6
CONTINUOUS
10
253.5249688
20
-92.5
40
2.5
50
90
51
134.9829577
0
ARC
8
0
6
CONTINUOUS
10
220.2
20
-98.5
40
2.5
50
90
51
180
0
ARC
8
0
6
CONTINUOUS
10
220.2
20
-158.8870565
40
2.5
50
180
51
226.3890338
0
ARC
8
0
6
CONTINUOUS
10
218.3972963
20
-190.1018035
40
2.5
50
127.0004554
51
208.0000017
0
ARC
8
0
6
CONTINUOUS
10
225.7545387
20
-203.9387641
40
2.5
50
208.0000017
51
211.0792374
0
ARC
8
0
6
CONTINUOUS
10
236.4271621
20
-221.6454796
40
2.5
50
211.0792374
51
289.4867642
0
ARC
8
0
6
CONTINUOUS
10
267.4414368
20
-210.6708098
40
2.5
50
289.4867642
51
348.5286622
0
CIRCLE
8
0
6
CONTINUOUS
10
222.3
20
-100.3
40
1.1
0
CIRCLE
8
0
6
CONTINUOUS
10
336.3
20
-105.3
40
1.1
0
CIRCLE
8
0
6
CONTINUOUS
10
274.3
20
-114.3
40
1.1
0
CIRCLE
8
0
6
CONTINUOUS
10
222.3
20
-159.3
40
1.1
0
CIRCLE
8
0
6
CONTINUOUS
10
296.3
20
-167.3
40
1.1
0
CIRCLE
8
0
6
CONTINUOUS
10
247.3
20
-204.3
40
1.1
0
LINE
8
0
6
CONTINUOUS
10
51.25
20
-162.25
11
68.75
21
-162.25
0
LINE
8
0
6
CONTINUOUS
10
68.75
20
-162.25
11
68.75
21
-145.75
0
LINE
8
0
6
CONTINUOUS
10
68.75
20
-145.75
11
51.25
21
-145.75
0
LINE
8
0
6
CONTINUOUS
10
51.25
20
-145.75
11
51.25
21
-162.25
0
LINE
8
0
6
CONTINUOUS
10
51.25
20
-144.25
11
68.75
21
-144.25
0
LINE
8
0
6
CONTINUOUS
10
68.75
20
-144.25
11
68.75
21
-127.75
0
LINE
8
0
6
CONTINUOUS
10
68.75
20
-127.75
11
51.25
21
-127.75
0
LINE
8
0
6
CONTINUOUS
10
51.25
20
-127.75
11
51.25
21
-144.25
0
LINE
8
0
6
CONTINUOUS
10
51.25
20
-126.25
11
68.75
21
-126.25
0
LINE
8
0
6
CONTINUOUS
10
68.75
20
-126.25
11
68.75
21
-109.75
0
LINE
8
0
6
CONTINUOUS
10
68.75
20
-109.75
11
51.25
21
-109.75
0
LINE
8
0
6
CONTINUOUS
10
51.25
20
-109.75
11
51.25
21
-126.25
0
LINE
8
0
6
CONTINUOUS
10
69.75
20
-168.25
11
87.25
21
-168.25
0
LINE
8
0
6
CONTINUOUS
10
87.25
20
-168.25
11
87.25
21
-151.75
0
LINE
8
0
6
CONTINUOUS
10
87.25
20
-151.75
11
69.75
21
-151.75
0
LINE
8
0
6
CONTINUOUS
10
69.75
20
-151.75
11
69.75
21
-168.25
0
LINE
8
0
6
CONTINUOUS
10
69.75
20
-150.25
11
87.25
21
-150.25
0
LINE
8
0
6
CONTINUOUS
10
87.25
20
-150.25
11
87.25
21
-133.75
0
LINE
8
0
6
CONTINUOUS
10
87.25
20
-133.75
11
69.75
21
-133.75
0
LINE
8
0
6
CONTINUOUS
10
69.75
20
-133.75
11
69.75
21
-150.25
0
LINE
8
0
6
CONTINUOUS
10
69.75
20
-132.25
11
87.25
21
-132.25
0
LINE
8
0
6
CONTINUOUS
10
87.25
20
-132.25
11
87.25
21
-115.75
0
LINE
8
0
6
CONTINUOUS
10
87.25
20
-115.75
11
69.75
21
-115.75
0
LINE
8
0
6
CONTINUOUS
10
69.75
20
-115.75
11
69.75
21
-132.25
0
LINE
8
0
6
CONTINUOUS
10
69.75
20
-114.25
11
87.25
21
-114.25
0
LINE
8
0
6
CONTINUOUS
10
87.25
20
-114.25
11
87.25
21
-97.75
0
LINE
8
0
6
CONTINUOUS
10
87.25
20
-97.75
11
69.75
21
-97.75
0
LINE
8
0
6
CONTINUOUS
10
69.75
20
-97.75
11
69.75
21
-114.25
0
LINE
8
0
6
CONTINUOUS
10
88.25
20
-164.25
11
105.75
21
-164.25
0
LINE
8
0
6
CONTINUOUS
10
105.75
20
-164.25
11
105.75
21
-147.75
0
LINE
8
0
6
CONTINUOUS
10
105.75
20
-147.75
11
88.25
21
-147.75
0
LINE
8
0
6
CONTINUOUS
10
88.25
20
-147.75
11
88.25
21
-164.25
0
LINE
8
0
6
CONTINUOUS
10
88.25
20
-146.25
11
105.75
21
-146.25
0
LINE
8
0
6
CONTINUOUS
10
105.75
20
-146.25
11
105.75
21
-129.75
0
LINE
8
0
6
CONTINUOUS
10
105.75
20
-129.75
11
88.25
21
-129.75
0
LINE
8
0
6
CONTINUOUS
10
88.25
20
-129.75
11
88.25
21
-146.25
0
LINE
8
0
6
CONTINUOUS
10
88.25
20
-128.25
11
105.75
21
-128.25
0
LINE
8
0
6
CONTINUOUS
10
105.75
20
-128.25
11
105.75
21
-111.75
0
LINE
8
0
6
CONTINUOUS
10
105.75
20
-111.75
11
88.25
21
-111.75
0
LINE
8
0
6
CONTINUOUS
10
88.25
20
-111.75
11
88.25
21
-128.25
0
LINE
8
0
6
CONTINUOUS
10
88.25
20
-110.25
11
105.75
21
-110.25
0
LINE
8
0
6
CONTINUOUS
10
105.75
20
-110.25
11
105.75
21
-93.75
0
LINE
8
0
6
CONTINUOUS
10
105.75
20
-93.75
11
88.25
21
-93.75
0
LINE
8
0
6
CONTINUOUS
10
88.25
20
-93.75
11
88.25
21
-110.25
0
LINE
8
0
6
CONTINUOUS
10
106.75
20
-168.25
11
124.25
21
-168.25
0
LINE
8
0
6
CONTINUOUS
10
124.25
20
-168.25
11
124.25
21
-151.75
0
LINE
8
0
6
CONTINUOUS
10
124.25
20
-151.75
11
106.75
21
-151.75
0
LINE
8
0
6
CONTINUOUS
10
106.75
20
-151.75
11
106.75
21
-168.25
0
LINE
8
0
6
CONTINUOUS
10
106.75
20
-150.25
11
124.25
21
-150.25
0
LINE
8
0
6
CONTINUOUS
10
124.25
20
-150.25
11
124.25
21
-133.75
0
LINE
8
0
6
CONTINUOUS
10
124.25
20
-133.75
11
106.75
21
-133.75
0
LINE
8
0
6
CONTINUOUS
10
106.75
20
-133.75
11
106.75
21
-150.25
0
LINE
8
0
6
CONTINUOUS
10
106.75
20
-132.25
11
124.25
21
-132.25
0
LINE
8
0
6
CONTINUOUS
10
124.25
20
-132.25
11
124.25
21
-115.75
0
LINE
8
0
6
CONTINUOUS
10
124.25
20
-115.75
11
106.75
21
-115.75
0
LINE
8
0
6
CONTINUOUS
10
106.75
20
-115.75
11
106.75
21
-132.25
0
LINE
8
0
6
CONTINUOUS
10
106.75
20
-114.25
11
124.25
21
-114.25
0
LINE
8
0
6
CONTINUOUS
10
124.25
20
-114.25
11
124.25
21
-97.75
0
LINE
8
0
6
CONTINUOUS
10
124.25
20
-97.75
11
106.75
21
-97.75
0
LINE
8
0
6
CONTINUOUS
10
106.75
20
-97.75
11
106.75
21
-114.25
0
LINE
8
0
6
CONTINUOUS
10
126.55
20
-168.25
11
144.05
21
-168.25
0
LINE
8
0
6
CONTINUOUS
10
144.05
20
-168.25
11
144.05
21
-151.75
0
LINE
8
0
6
CONTINUOUS
10
144.05
20
-151.75
11
126.55
21
-151.75
0
LINE
8
0
6
CONTINUOUS
10
126.55
20
-151.75
11
126.55
21
-168.25
0
LINE
8
0
6
CONTINUOUS
10
126.55
20
-150.25
11
144.05
21
-150.25
0
LINE
8
0
6
CONTINUOUS
10
144.05
20
-150.25
11
144.05
21
-133.75
0
LINE
8
0
6
CONTINUOUS
10
144.05
20
-133.75
11
126.55
21
-133.75
0
LINE
8
0
6
CONTINUOUS
10
126.55
20
-133.75
11
126.55
21
-150.25
0
LINE
8
0
6
CONTINUOUS
10
126.55
20
-132.25
11
144.05
21
-132.25
0
LINE
8
0
6
CONTINUOUS
10
144.05
20
-132.25
11
144.05
21
-115.75
0
LINE
8
0
6
CONTINUOUS
10
144.05
20
-115.75
11
126.55
21
-115.75
0
LINE
8
0
6
CONTINUOUS
10
126.55
20
-115.75
11
126.55
21
-132.25
0
LINE
8
0
6
CONTINUOUS
10
126.55
20
-114.25
11
144.05
21
-114.25
0
LINE
8
0
6
CONTINUOUS
10
144.05
20
-114.25
11
144.05
21
-97.75
0
LINE
8
0
6
CONTINUOUS
10
144.05
20
-97.75
11
126.55
21
-97.75
0
LINE
8
0
6
CONTINUOUS
10
126.55
20
-97.75
11
126.55
21
-114.25
0
LINE
8
0
6
CONTINUOUS
10
125.4869763
20
-185.9519469
11
142.8166675
21
-188.3874762
0
LINE
8
0
6
CONTINUOUS
10
142.8166675
20
-188.3874762
11
145.1130237
21
-172.0480531
0
LINE
8
0
6
CONTINUOUS
10
145.1130237
20
-172.0480531
11
127.7833325
21
-169.6125238
0
LINE
8
0
6
CONTINUOUS
10
127.7833325
20
-169.6125238
11
125.4869763
21
-185.9519469
0
LINE
8
0
6
CONTINUOUS
10
143.5288653
20
-190.0423176
11
160.1723543
21
-195.450115
0
LINE
8
0
6
CONTINUOUS
10
160.1723543
20
-195.450115
11
165.2711347
21
-179.7576824
0
LINE
8
0
6
CONTINUOUS
10
165.2711347
20
-179.7576824
11
148.6276457
21
-174.349885
0
LINE
8
0
6
CONTINUOUS
10
148.6276457
20
-174.349885
11
143.5288653
21
-190.0423176
0
LINE
8
0
6
CONTINUOUS
10
161.1010682
20
-196.1764415
11
176.552651
21
-204.3921938
0
LINE
8
0
6
CONTINUOUS
10
176.552651
20
-204.3921938
11
184.2989318
21
-189.8235585
0
LINE
8
0
6
CONTINUOUS
10
184.2989318
20
-189.8235585
11
168.847349
21
-181.6078062
0
LINE
8
0
6
CONTINUOUS
10
168.847349
20
-181.6078062
11
161.1010682
21
-196.1764415
0
LINE
8
0
6
CONTINUOUS
10
130.8140568
20
-211.8881232
11
147.794232
21
-216.1217563
0
LINE
8
0
6
CONTINUOUS
10
147.794232
20
-216.1217563
11
151.7859432
21
-200.1118768
0
LINE
8
0
6
CONTINUOUS
10
151.7859432
20
-200.1118768
11
134.805768
21
-195.8782437
0
LINE
8
0
6
CONTINUOUS
10
134.805768
20
-195.8782437
11
130.8140568
21
-211.8881232
0
LINE
8
0
6
CONTINUOUS
10
148.7508999
20
-216.7778044
11
164.7379454
21
-223.8956957
0
LINE
8
0
6
CONTINUOUS
10
164.7379454
20
-223.8956957
11
171.4491001
21
-208.8221956
0
LINE
8
0
6
CONTINUOUS
10
171.4491001
20
-208.8221956
11
155.4620546
21
-201.7043043
0
LINE
8
0
6
CONTINUOUS
10
155.4620546
20
-201.7043043
11
148.7508999
21
-216.7778044
0
LINE
8
0
6
CONTINUOUS
10
331.25
20
-162.25
11
348.75
21
-162.25
0
LINE
8
0
6
CONTINUOUS
10
348.75
20
-162.25
11
348.75
21
-145.75
0
LINE
8
0
6
CONTINUOUS
10
348.75
20
-145.75
11
331.25
21
-145.75
0
LINE
8
0
6
CONTINUOUS
10
331.25
20
-145.75
11
331.25
21
-162.25
0
LINE
8
0
6
CONTINUOUS
10
331.25
20
-144.25
11
348.75
21
-144.25
0
LINE
8
0
6
CONTINUOUS
10
348.75
20
-144.25
11
348.75
21
-127.75
0
LINE
8
0
6
CONTINUOUS
10
348.75
20
-127.75
11
331.25
21
-127.75
0
LINE
8
0
6
CONTINUOUS
10
331.25
20
-127.75
11
331.25
21
-144.25
0
LINE
8
0
6
CONTINUOUS
10
331.25
20
-126.25
11
348.75
21
-126.25
0
LINE
8
0
6
CONTINUOUS
10
348.75
20
-126.25
11
348.75
21
-109.75
0
LINE
8
0
6
CONTINUOUS
10
348.75
20
-109.75
11
331.25
21
-109.75
0
LINE
8
0
6
CONTINUOUS
10
331.25
20
-109.75
11
331.25
21
-126.25
0
LINE
8
0
6
CONTINUOUS
10
312.75
20
-168.25
11
330.25
21
-168.25
0
LINE
8
0
6
CONTINUOUS
10
330.25
20
-168.25
11
330.25
21
-151.75
0
LINE
8
0
6
CONTINUOUS
10
330.25
20
-151.75
11
312.75
21
-151.75
0
LINE
8
0
6
CONTINUOUS
10
312.75
20
-151.75
11
312.75
21
-168.25
0
LINE
8
0
6
CONTINUOUS
10
312.75
20
-150.25
11
330.25
21
-150.25
0
LINE
8
0
6
CONTINUOUS
10
330.25
20
-150.25
11
330.25
21
-133.75
0
LINE
8
0
6
CONTINUOUS
10
330.25
20
-133.75
11
312.75
21
-133.75
0
LINE
8
0
6
CONTINUOUS
10
312.75
20
-133.75
11
312.75
21
-150.25
0
LINE
8
0
6
CONTINUOUS
10
312.75
20
-132.25
11
330.25
21
-132.25
0
LINE
8
0
6
CONTINUOUS
10
330.25
20
-132.25
11
330.25
21
-115.75
0
LINE
8
0
6
CONTINUOUS
10
330.25
20
-115.75
11
312.75
21
-115.75
0
LINE
8
0
6
CONTINUOUS
10
312.75
20
-115.75
11
312.75
21
-132.25
0
LINE
8
0
6
CONTINUOUS
10
312.75
20
-114.25
11
330.25
21
-114.25
0
LINE
8
0
6
CONTINUOUS
10
330.25
20
-114.25
11
330.25
21
-97.75
0
LINE
8
0
6
CONTINUOUS
10
330.25
20
-97.75
11
312.75
21
-97.75
0
LINE
8
0
6
CONTINUOUS
10
312.75
20
-97.75
11
312.75
21
-114.25
0
LINE
8
0
6
CONTINUOUS
10
294.25
20
-164.25
11
311.75
21
-164.25
0
LINE
8
0
6
CONTINUOUS
10
311.75
20
-164.25
11
311.75
21
-147.75
0
LINE
8
0
6
CONTINUOUS
10
311.75
20
-147.75
11
294.25
21
-147.75
0
LINE
8
0
6
CONTINUOUS
10
294.25
20
-147.75
11
294.25
21
-164.25
0
LINE
8
0
6
CONTINUOUS
10
294.25
20
-146.25
11
311.75
21
-146.25
0
LINE
8
0
6
CONTINUOUS
10
311.75
20
-146.25
11
311.75
21
-129.75
0
LINE
8
0
6
CONTINUOUS
10
311.75
20
-129.75
11
294.25
21
-129.75
0
LINE
8
0
6
CONTINUOUS
10
294.25
20
-129.75
11
294.25
21
-146.25
0
LINE
8
0
6
CONTINUOUS
10
294.25
20
-128.25
11
311.75
21
-128.25
0
LINE
8
0
6
CONTINUOUS
10
311.75
20
-128.25
11
311.75
21
-111.75
0
LINE
8
0
6
CONTINUOUS
10
311.75
20
-111.75
11
294.25
21
-111.75
0
LINE
8
0
6
CONTINUOUS
10
294.25
20
-111.75
11
294.25
21
-128.25
0
LINE
8
0
6
CONTINUOUS
10
294.25
20
-110.25
11
311.75
21
-110.25
0
LINE
8
0
6
CONTINUOUS
10
311.75
20
-110.25
11
311.75
21
-93.75
0
LINE
8
0
6
CONTINUOUS
10
311.75
20
-93.75
11
294.25
21
-93.75
0
LINE
8
0
6
CONTINUOUS
10
294.25
20
-93.75
11
294.25
21
-110.25
0
LINE
8
0
6
CONTINUOUS
10
275.75
20
-168.25
11
293.25
21
-168.25
0
LINE
8
0
6
CONTINUOUS
10
293.25
20
-168.25
11
293.25
21
-151.75
0
LINE
8
0
6
CONTINUOUS
10
293.25
20
-151.75
11
275.75
21
-151.75
0
LINE
8
0
6
CONTINUOUS
10
275.75
20
-151.75
11
275.75
21
-168.25
0
LINE
8
0
6
CONTINUOUS
10
275.75
20
-150.25
11
293.25
21
-150.25
0
LINE
8
0
6
CONTINUOUS
10
293.25
20
-150.25
11
293.25
21
-133.75
0
LINE
8
0
6
CONTINUOUS
10
293.25
20
-133.75
11
275.75
21
-133.75
0
LINE
8
0
6
CONTINUOUS
10
275.75
20
-133.75
11
275.75
21
-150.25
0
LINE
8
0
6
CONTINUOUS
10
275.75
20
-132.25
11
293.25
21
-132.25
0
LINE
8
0
6
CONTINUOUS
10
293.25
20
-132.25
11
293.25
21
-115.75
0
LINE
8
0
6
CONTINUOUS
10
293.25
20
-115.75
11
275.75
21
-115.75
0
LINE
8
0
6
CONTINUOUS
10
275.75
20
-115.75
11
275.75
21
-132.25
0
LINE
8
0
6
CONTINUOUS
10
275.75
20
-114.25
11
293.25
21
-114.25
0
LINE
8
0
6
CONTINUOUS
10
293.25
20
-114.25
11
293.25
21
-97.75
0
LINE
8
0
6
CONTINUOUS
10
293.25
20
-97.75
11
275.75
21
-97.75
0
LINE
8
0
6
CONTINUOUS
10
275.75
20
-97.75
11
275.75
21
-114.25
0
LINE
8
0
6
CONTINUOUS
10
255.95
20
-168.25
11
273.45
21
-168.25
0
LINE
8
0
6
CONTINUOUS
10
273.45
20
-168.25
11
273.45
21
-151.75
0
LINE
8
0
6
CONTINUOUS
10
273.45
20
-151.75
11
255.95
21
-151.75
0
LINE
8
0
6
CONTINUOUS
10
255.95
20
-151.75
11
255.95
21
-168.25
0
LINE
8
0
6
CONTINUOUS
10
255.95
20
-150.25
11
273.45
21
-150.25
0
LINE
8
0
6
CONTINUOUS
10
273.45
20
-150.25
11
273.45
21
-133.75
0
LINE
8
0
6
CONTINUOUS
10
273.45
20
-133.75
11
255.95
21
-133.75
0
LINE
8
0
6
CONTINUOUS
10
255.95
20
-133.75
11
255.95
21
-150.25
0
LINE
8
0
6
CONTINUOUS
10
255.95
20
-132.25
11
273.45
21
-132.25
0
LINE
8
0
6
CONTINUOUS
10
273.45
20
-132.25
11
273.45
21
-115.75
0
LINE
8
0
6
CONTINUOUS
10
273.45
20
-115.75
11
255.95
21
-115.75
0
LINE
8
0
6
CONTINUOUS
10
255.95
20
-115.75
11
255.95
21
-132.25
0
LINE
8
0
6
CONTINUOUS
10
255.95
20
-114.25
11
273.45
21
-114.25
0
LINE
8
0
6
CONTINUOUS
10
273.45
20
-114.25
11
273.45
21
-97.75
0
LINE
8
0
6
CONTINUOUS
10
273.45
20
-97.75
11
255.95
21
-97.75
0
LINE
8
0
6
CONTINUOUS
10
255.95
20
-97.75
11
255.95
21
-114.25
0
LINE
8
0
6
CONTINUOUS
10
257.1833325
20
-188.3874762
11
274.5130237
21
-185.9519469
0
LINE
8
0
6
CONTINUOUS
10
274.5130237
20
-185.9519469
11
272.2166675
21
-169.6125238
0
LINE
8
0
6
CONTINUOUS
10
272.2166675
20
-169.6125238
11
254.8869763
21
-172.0480531
0
LINE
8
0
6
CONTINUOUS
10
254.8869763
20
-172.0480531
11
257.1833325
21
-188.3874762
0
LINE
8
0
6
CONTINUOUS
10
239.8276457
20
-195.450115
11
256.4711347
21
-190.0423176
0
LINE
8
0
6
CONTINUOUS
10
256.4711347
20
-190.0423176
11
251.3723543
21
-174.349885
0
LINE
8
0
6
CONTINUOUS
10
251.3723543
20
-174.349885
11
234.7288653
21
-179.7576824
0
LINE
8
0
6
CONTINUOUS
10
234.7288653
20
-179.7576824
11
239.8276457
21
-195.450115
0
LINE
8
0
6
CONTINUOUS
10
223.447349
20
-204.3921938
11
238.8989318
21
-196.1764415
0
LINE
8
0
6
CONTINUOUS
10
238.8989318
20
-196.1764415
11
231.152651
21
-181.6078062
0
LINE
8
0
6
CONTINUOUS
10
231.152651
20
-181.6078062
11
215.7010682
21
-189.8235585
0
LINE
8
0
6
CONTINUOUS
10
215.7010682
20
-189.8235585
11
223.447349
21
-204.3921938
0
LINE
8
0
6
CONTINUOUS
10
252.205768
20
-216.1217563
11
269.1859432
21
-211.8881232
0
LINE
8
0
6
CONTINUOUS
10
269.1859432
20
-211.8881232
11
265.194232
21
-195.8782437
0
LINE
8
0
6
CONTINUOUS
10
265.194232
20
-195.8782437
11
248.2140568
21
-200.1118768
0
LINE
8
0
6
CONTINUOUS
10
248.2140568
20
-200.1118768
11
252.205768
21
-216.1217563
0
LINE
8
0
6
CONTINUOUS
10
235.2620546
20
-223.8956957
11
251.2491001
21
-216.7778044
0
LINE
8
0
6
CONTINUOUS
10
251.2491001
20
-216.7778044
11
244.5379454
21
-201.7043043
0
LINE
8
0
6
CONTINUOUS
10
244.5379454
20
-201.7043043
11
228.5508999
21
-208.8221956
0
LINE
8
0
6
CONTINUOUS
10
228.5508999
20
-208.8221956
11
235.2620546
21
-223.8956957
0
ENDSEC
0
EOF