0
SECTION
2
HEADER
9
$INSUNITS
70
4
0
ENDSEC
0
SECTION
2
TABLES
0
TABLE
2
LTYPE
0
LTYPE
72
65
70
0
2
CONTINUOUS
3
______
73
0
40
0
0
LTYPE
72
65
70
0
2
DASHED
3
_ _ _ 
73
2
40
7.5
49
5
49
-2.5
0
LTYPE
72
65
70
0
2
DOTTED
3
. . . 
73
2
40
1.5
49
0.5
49
-1
0
ENDTAB
0
TABLE
2
LAYER
0
ENDTAB
0
ENDSEC
0
SECTION
2
ENTITIES
0
LINE
8
0
6
CONTINUOUS
10
50.5
20
-160.5
11
63.5
21
-160.5
0
LINE
8
0
6
CONTINUOUS
10
48
20
-158
11
48
21
-106
0
LINE
8
0
6
CONTINUOUS
10
63.5
20
-103.5
11
50.5
21
-103.5
0
LINE
8
0
6
CONTINUOUS
10
68.5
20
-171.5
11
87.5
21
-171.5
0
LINE
8
0
6
CONTINUOUS
10
90
20
-169
11
90
21
-167.5
0
LINE
8
0
6
CONTINUOUS
10
66
20
-163
11
66
21
-169
0
LINE
8
0
6
CONTINUOUS
10
84
20
-97.5
11
68.5
21
-97.5
0
LINE
8
0
6
CONTINUOUS
10
66
20
-100
11
66
21
-101
0
LINE
8
0
6
CONTINUOUS
10
90
20
-167.5
11
99.5
21
-167.5
0
LINE
8
0
6
CONTINUOUS
10
108
20
-97.5
11
108
21
-96
0
LINE
8
0
6
CONTINUOUS
10
105.5
20
-93.5
11
86.5
21
-93.5
0
LINE
8
0
6
CONTINUOUS
10
84
20
-96
11
84
21
-97.5
0
LINE
8
0
6
CONTINUOUS
10
102
20
-171.5
11
119.7196635
21
-171.5
0
LINE
8
0
6
CONTINUOUS
10
102
20
-170
11
102
21
-171.5
0
LINE
8
0
6
CONTINUOUS
10
110.3
20
-97.5
11
108
21
-97.5
0
LINE
8
0
6
CONTINUOUS
10
145.8
20
-168.0734729
11
145.8
21
-106.5
0
LINE
8
0
6
CONTINUOUS
10
122.7919627
20
-188.0659384
11
138.1595949
21
-190.2257182
0
LINE
8
0
6
CONTINUOUS
10
147.0372335
20
-170.0357481
11
147.2837075
21
-168.2819944
0
LINE
8
0
6
CONTINUOUS
10
147.2837075
20
-168.2819944
11
145.8
21
-168.0734729
0
LINE
8
0
6
CONTINUOUS
10
122.1953337
20
-174.3479327
11
120.6642253
21
-185.2423354
0
LINE
8
0
6
CONTINUOUS
10
137.8336264
20
-191.228946
11
142.3
21
-192.6801588
0
LINE
8
0
6
CONTINUOUS
10
167.6025282
20
-177.2753184
11
167.7663736
21
-176.771054
0
LINE
8
0
6
CONTINUOUS
10
167.7663736
20
-176.771054
11
147.0372335
21
-170.0357481
0
LINE
8
0
6
CONTINUOUS
10
138.1595949
20
-190.2257182
11
137.8336264
21
-191.228946
0
LINE
8
0
6
CONTINUOUS
10
174.2294433
20
-206.848023
11
175.9964481
21
-207.7875561
0
LINE
8
0
6
CONTINUOUS
10
175.9964481
20
-207.7875561
11
185.6206152
21
-189.6871305
0
LINE
8
0
6
CONTINUOUS
10
184.5869252
20
-186.3060825
11
167.6025282
21
-177.2753184
0
LINE
8
0
6
CONTINUOUS
10
127.8000888
20
-213.8601428
11
143.2788529
21
-217.7194322
0
LINE
8
0
6
CONTINUOUS
10
142.3
20
-193.7712633
11
133.3642924
21
-191.5433411
0
LINE
8
0
6
CONTINUOUS
10
130.3337484
20
-193.3642757
11
125.9791542
21
-210.8295988
0
LINE
8
0
6
CONTINUOUS
10
143.6908896
20
-217.8613078
11
162.8012106
21
-226.369771
0
LINE
8
0
6
CONTINUOUS
10
166.1019158
20
-225.1027488
11
174.2294433
21
-206.848023
0
LINE
8
0
6
CONTINUOUS
10
336.5
20
-160.5
11
349.5
21
-160.5
0
LINE
8
0
6
CONTINUOUS
10
352
20
-158
11
352
21
-106
0
LINE
8
0
6
CONTINUOUS
10
349.5
20
-103.5
11
336.5
21
-103.5
0
LINE
8
0
6
CONTINUOUS
10
310
20
-171.5
11
331.5
21
-171.5
0
LINE
8
0
6
CONTINUOUS
10
334
20
-169
11
334
21
-163
0
LINE
8
0
6
CONTINUOUS
10
310
20
-170
11
310
21
-171.5
0
LINE
8
0
6
CONTINUOUS
10
334
20
-101
11
334
21
-100
0
LINE
8
0
6
CONTINUOUS
10
331.5
20
-97.5
11
318.5
21
-97.5
0
LINE
8
0
6
CONTINUOUS
10
298
20
-167.5
11
307.5
21
-167.5
0
LINE
8
0
6
CONTINUOUS
10
316
20
-95
11
316
21
-93.5
0
LINE
8
0
6
CONTINUOUS
10
316
20
-93.5
11
294.5
21
-93.5
0
LINE
8
0
6
CONTINUOUS
10
292
20
-96
11
292
21
-97.5
0
LINE
8
0
6
CONTINUOUS
10
280.2803365
20
-171.5
11
295.5
21
-171.5
0
LINE
8
0
6
CONTINUOUS
10
298
20
-169
11
298
21
-167.5
0
LINE
8
0
6
CONTINUOUS
10
292
20
-97.5
11
289.7
21
-97.5
0
LINE
8
0
6
CONTINUOUS
10
254.2
20
-168.0734729
11
254.2
21
-106.5
0
LINE
8
0
6
CONTINUOUS
10
261.8404051
20
-190.2257182
11
277.2080373
21
-188.0659384
0
LINE
8
0
6
CONTINUOUS
10
279.3357747
20
-185.2423354
11
277.8046663
21
-174.3479327
0
LINE
8
0
6
CONTINUOUS
10
254.2
20
-168.0734729
11
252.7162925
21
-168.2819944
0
LINE
8
0
6
CONTINUOUS
10
252.7162925
20
-168.2819944
11
252.9627665
21
-170.0357481
0
LINE
8
0
6
CONTINUOUS
10
257.7
20
-192.6801588
11
262.1663736
21
-191.228946
0
LINE
8
0
6
CONTINUOUS
10
262.1663736
20
-191.228946
11
261.8404051
21
-190.2257182
0
LINE
8
0
6
CONTINUOUS
10
252.9627665
20
-170.0357481
11
232.2336264
21
-176.771054
0
LINE
8
0
6
CONTINUOUS
10
232.2336264
20
-176.771054
11
232.3974718
21
-177.2753184
0
LINE
8
0
6
CONTINUOUS
10
224.0035519
20
-207.7875561
11
225.7705567
21
-206.848023
0
LINE
8
0
6
CONTINUOUS
10
232.3974718
20
-177.2753184
11
215.4130748
21
-186.3060825
0
LINE
8
0
6
CONTINUOUS
10
214.3793848
20
-189.6871305
11
224.0035519
21
-207.7875561
0
LINE
8
0
6
CONTINUOUS
10
256.7211471
20
-217.7194322
11
272.1999112
21
-213.8601428
0
LINE
8
0
6
CONTINUOUS
10
274.0208458
20
-210.8295988
11
269.6662516
21
-193.3642757
0
LINE
8
0
6
CONTINUOUS
10
266.6357076
20
-191.5433411
11
257.7
21
-193.7712633
0
LINE
8
0
6
CONTINUOUS
10
237.1987894
20
-226.369771
11
256.3091104
21
-217.8613078
0
LINE
8
0
6
CONTINUOUS
10
225.7705567
20
-206.848023
11
233.8980842
21
-225.1027488
0
LINE
8
0
6
CONTINUOUS
10
142.3
20
-192.6801588
11
142.3
21
-193.7712633
0
LINE
8
0
6
CONTINUOUS
10
257.7
20
-193.7712633
11
257.7
21
-192.6801588
0
LINE
8
0
6
CONTINUOUS
10
156.8
20
-101.5
11
156.8
21
-66.5
0
LINE
8
0
6
CONTINUOUS
10
154.3
20
-64
11
135.3
21
-64
0
LINE
8
0
6
CONTINUOUS
10
132.8
20
-66.5
11
132.8
21
-68
0
LINE
8
0
6
CONTINUOUS
10
148.3
20
-104
11
154.3
21
-104
0
LINE
8
0
6
CONTINUOUS
10
243.2
20
-66.5
11
243.2
21
-101.5
0
LINE
8
0
6
CONTINUOUS
10
245.7
20
-104
11
251.7
21
-104
0
LINE
8
0
6
CONTINUOUS
10
267.2
20
-65.5
11
267.2
21
-64
0
LINE
8
0
6
CONTINUOUS
10
267.2
20
-64
11
245.7
21
-64
0
LINE
8
0
6
CONTINUOUS
10
128.8
20
-65.5
11
128.8
21
-64
0
LINE
8
0
6
CONTINUOUS
10
128.8
20
-64
11
115.3
21
-64
0
LINE
8
0
6
CONTINUOUS
10
112.8
20
-66.5
11
112.8
21
-95
0
LINE
8
0
6
CONTINUOUS
10
287.2
20
-95
11
287.2
21
-66.5
0
LINE
8
0
6
CONTINUOUS
10
284.7
20
-64
11
273.7
21
-64
0
LINE
8
0
6
CONTINUOUS
10
271.2
20
-66.5
11
271.2
21
-68
0
LINE
8
0
6
CONTINUOUS
10
132.8
20
-68
11
131.3
21
-68
0
LINE
8
0
6
CONTINUOUS
10
271.2
20
-68
11
269.7
21
-68
0
ARC
8
0
6
CONTINUOUS
10
63.5
20
-163
40
2.5
50
0
51
90
0
ARC
8
0
6
CONTINUOUS
10
68.5
20
-169
40
2.5
50
180
51
270
0
ARC
8
0
6
CONTINUOUS
10
87.5
20
-169
40
2.5
50
270
51
0
0
ARC
8
0
6
CONTINUOUS
10
99.5
20
-170
40
2.5
50
0
51
90
0
ARC
8
0
6
CONTINUOUS
10
119.7196635
20
-174
40
2.5
50
352.0000003
51
90
0
ARC
8
0
6
CONTINUOUS
10
123.1398954
20
-185.5902682
40
2.5
50
172.0000003
51
262.0000003
0
ARC
8
0
6
CONTINUOUS
10
132.7594877
20
-193.9690804
40
2.5
50
75.9999994
51
165.9999994
0
ARC
8
0
6
CONTINUOUS
10
128.4048935
20
-211.4344035
40
2.5
50
165.9999994
51
255.9999994
0
ARC
8
0
6
CONTINUOUS
10
142.6740482
20
-220.1451715
40
2.5
50
66.0000032
51
75.9999994
0
ARC
8
0
6
CONTINUOUS
10
163.8180521
20
-224.0859073
40
2.5
50
246.0000032
51
336.0000032
0
ARC
8
0
6
CONTINUOUS
10
183.4132462
20
-188.5134515
40
2.5
50
331.9999983
51
61.9999983
0
ARC
8
0
6
CONTINUOUS
10
148.3
20
-106.5
40
2.5
50
90
51
180
0
ARC
8
0
6
CONTINUOUS
10
154.3
20
-101.5
40
2.5
50
270
51
0
0
ARC
8
0
6
CONTINUOUS
10
154.3
20
-66.5
40
2.5
50
0
51
90
0
ARC
8
0
6
CONTINUOUS
10
135.3
20
-66.5
40
2.5
50
90
51
180
0
ARC
8
0
6
CONTINUOUS
10
131.3
20
-65.5
40
2.5
50
180
51
270
0
ARC
8
0
6
CONTINUOUS
10
115.3
20
-66.5
40
2.5
50
90
51
180
0
ARC
8
0
6
CONTINUOUS
10
110.3
20
-95
40
2.5
50
270
51
0
0
ARC
8
0
6
CONTINUOUS
10
105.5
20
-96
40
2.5
50
0
51
90
0
ARC
8
0
6
CONTINUOUS
10
86.5
20
-96
40
2.5
50
90
51
180
0
ARC
8
0
6
CONTINUOUS
10
68.5
20
-100
40
2.5
50
90
51
180
0
ARC
8
0
6
CONTINUOUS
10
63.5
20
-101
40
2.5
50
270
51
0
0
ARC
8
0
6
CONTINUOUS
10
50.5
20
-106
40
2.5
50
90
51
180
0
ARC
8
0
6
CONTINUOUS
10
50.5
20
-158
40
2.5
50
180
51
270
0
ARC
8
0
6
CONTINUOUS
10
349.5
20
-158
40
2.5
50
270
51
0
0
ARC
8
0
6
CONTINUOUS
10
349.5
20
-106
40
2.5
50
0
51
90
0
ARC
8
0
6
CONTINUOUS
10
336.5
20
-101
40
2.5
50
180
51
270
0
ARC
8
0
6
CONTINUOUS
10
331.5
20
-100
40
2.5
50
0
51
90
0
ARC
8
0
6
CONTINUOUS
10
318.5
20
-95
40
2.5
50
180
51
270
0
ARC
8
0
6
CONTINUOUS
10
294.5
20
-96
40
2.5
50
90
51
180
0
ARC
8
0
6
CONTINUOUS
10
289.7
20
-95
40
2.5
50
180
51
270
0
ARC
8
0
6
CONTINUOUS
10
284.7
20
-66.5
40
2.5
50
0
51
90
0
ARC
8
0
6
CONTINUOUS
10
273.7
20
-66.5
40
2.5
50
90
51
180
0
ARC
8
0
6
CONTINUOUS
10
269.7
20
-65.5
40
2.5
50
180
51
270
0
ARC
8
0
6
CONTINUOUS
10
245.7
20
-66.5
40
2.5
50
90
51
180
0
ARC
8
0
6
CONTINUOUS
10
245.7
20
-101.5
40
2.5
50
180
51
270
0
ARC
8
0
6
CONTINUOUS
10
251.7
20
-106.5
40
2.5
50
0
51
90
0
ARC
8
0
6
CONTINUOUS
10
216.5867538
20
-188.5134515
40
2.5
50
118.0000017
51
208.0000017
0
ARC
8
0
6
CONTINUOUS
10
236.1819479
20
-224.0859073
40
2.5
50
203.9999968
51
293.9999968
0
ARC
8
0
6
CONTINUOUS
10
257.3259518
20
-220.1451715
40
2.5
50
104.0000006
51
113.9999968
0
ARC
8
0
6
CONTINUOUS
10
271.5951065
20
-211.4344035
40
2.5
50
284.0000006
51
14.0000006
0
ARC
8
0
6
CONTINUOUS
10
267.2405123
20
-193.9690804
40
2.5
50
14.0000006
51
104.0000006
0
ARC
8
0
6
CONTINUOUS
10
276.8601046
20
-185.5902682
40
2.5
50
277.9999997
51
7.9999997
0
ARC
8
0
6
CONTINUOUS
10
280.2803365
20
-174
40
2.5
50
90
51
187.9999997
0
ARC
8
0
6
CONTINUOUS
10
295.5
20
-169
40
2.5
50
270
51
0
0
ARC
8
0
6
CONTINUOUS
10
307.5
20
-170
40
2.5
50
0
51
90
0
ARC
8
0
6
CONTINUOUS
10
331.5
20
-169
40
2.5
50
270
51
0
0
ARC
8
0
6
CONTINUOUS
10
336.5
20
-163
40
2.5
50
90
51
180
0
CIRCLE
8
0
6
CONTINUOUS
10
117
20
-68.7
40
1.1
0
CIRCLE
8
0
6
CONTINUOUS
10
129
20
-94.7
40
1.1
0
CIRCLE
8
0
6
CONTINUOUS
10
124
20
-145.7
40
1.1
0
CIRCLE
8
0
6
CONTINUOUS
10
124
20
-168.7
40
1.1
0
CIRCLE
8
0
6
CONTINUOUS
10
165
20
-180.7
40
1.1
0
CIRCLE
8
0
6
CONTINUOUS
10
170
20
-205.7
40
1.1
0
CIRCLE
8
0
6
CONTINUOUS
10
283
20
-68.7
40
1.1
0
CIRCLE
8
0
6
CONTINUOUS
10
271
20
-94.7
40
1.1
0
CIRCLE
8
0
6
CONTINUOUS
10
276
20
-145.7
40
1.1
0
CIRCLE
8
0
6
CONTINUOUS
10
276
20
-168.7
40
1.1
0
CIRCLE
8
0
6
CONTINUOUS
10
235
20
-180.7
40
1.1
0
CIRCLE
8
0
6
CONTINUOUS
10
230
20
-205.7
40
1.1
0
LINE
8
0
6
CONTINUOUS
10
51.25
20
-157.25
11
68.75
21
-157.25
0
LINE
8
0
6
CONTINUOUS
10
68.75
20
-157.25
11
68.75
21
-140.75
0
LINE
8
0
6
CONTINUOUS
10
68.75
20
-140.75
11
51.25
21
-140.75
0
LINE
8
0
6
CONTINUOUS
10
51.25
20
-140.75
11
51.25
21
-157.25
0
LINE
8
0
6
CONTINUOUS
10
51.25
20
-140.25
11
68.75
21
-140.25
0
LINE
8
0
6
CONTINUOUS
10
68.75
20
-140.25
11
68.75
21
-123.75
0
LINE
8
0
6
CONTINUOUS
10
68.75
20
-123.75
11
51.25
21
-123.75
0
LINE
8
0
6
CONTINUOUS
10
51.25
20
-123.75
11
51.25
21
-140.25
0
LINE
8
0
6
CONTINUOUS
10
51.25
20
-123.25
11
68.75
21
-123.25
0
LINE
8
0
6
CONTINUOUS
10
68.75
20
-123.25
11
68.75
21
-106.75
0
LINE
8
0
6
CONTINUOUS
10
68.75
20
-106.75
11
51.25
21
-106.75
0
LINE
8
0
6
CONTINUOUS
10
51.25
20
-106.75
11
51.25
21
-123.25
0
LINE
8
0
6
CONTINUOUS
10
69.25
20
-168.25
11
86.75
21
-168.25
0
LINE
8
0
6
CONTINUOUS
10
86.75
20
-168.25
11
86.75
21
-151.75
0
LINE
8
0
6
CONTINUOUS
10
86.75
20
-151.75
11
69.25
21
-151.75
0
LINE
8
0
6
CONTINUOUS
10
69.25
20
-151.75
11
69.25
21
-168.25
0
LINE
8
0
6
CONTINUOUS
10
69.25
20
-151.25
11
86.75
21
-151.25
0
LINE
8
0
6
CONTINUOUS
10
86.75
20
-151.25
11
86.75
21
-134.75
0
LINE
8
0
6
CONTINUOUS
10
86.75
20
-134.75
11
69.25
21
-134.75
0
LINE
8
0
6
CONTINUOUS
10
69.25
20
-134.75
11
69.25
21
-151.25
0
LINE
8
0
6
CONTINUOUS
10
69.25
20
-134.25
11
86.75
21
-134.25
0
LINE
8
0
6
CONTINUOUS
10
86.75
20
-134.25
11
86.75
21
-117.75
0
LINE
8
0
6
CONTINUOUS
10
86.75
20
-117.75
11
69.25
21
-117.75
0
LINE
8
0
6
CONTINUOUS
10
69.25
20
-117.75
11
69.25
21
-134.25
0
LINE
8
0
6
CONTINUOUS
10
69.25
20
-117.25
11
86.75
21
-117.25
0
LINE
8
0
6
CONTINUOUS
10
86.75
20
-117.25
11
86.75
21
-100.75
0
LINE
8
0
6
CONTINUOUS
10
86.75
20
-100.75
11
69.25
21
-100.75
0
LINE
8
0
6
CONTINUOUS
10
69.25
20
-100.75
11
69.25
21
-117.25
0
LINE
8
0
6
CONTINUOUS
10
87.25
20
-164.25
11
104.75
21
-164.25
0
LINE
8
0
6
CONTINUOUS
10
104.75
20
-164.25
11
104.75
21
-147.75
0
LINE
8
0
6
CONTINUOUS
10
104.75
20
-147.75
11
87.25
21
-147.75
0
LINE
8
0
6
CONTINUOUS
10
87.25
20
-147.75
11
87.25
21
-164.25
0
LINE
8
0
6
CONTINUOUS
10
87.25
20
-147.25
11
104.75
21
-147.25
0
LINE
8
0
6
CONTINUOUS
10
104.75
20
-147.25
11
104.75
21
-130.75
0
LINE
8
0
6
CONTINUOUS
10
104.75
20
-130.75
11
87.25
21
-130.75
0
LINE
8
0
6
CONTINUOUS
10
87.25
20
-130.75
11
87.25
21
-147.25
0
LINE
8
0
6
CONTINUOUS
10
87.25
20
-130.25
11
104.75
21
-130.25
0
LINE
8
0
6
CONTINUOUS
10
104.75
20
-130.25
11
104.75
21
-113.75
0
LINE
8
0
6
CONTINUOUS
10
104.75
20
-113.75
11
87.25
21
-113.75
0
LINE
8
0
6
CONTINUOUS
10
87.25
20
-113.75
11
87.25
21
-130.25
0
LINE
8
0
6
CONTINUOUS
10
87.25
20
-113.25
11
104.75
21
-113.25
0
LINE
8
0
6
CONTINUOUS
10
104.75
20
-113.25
11
104.75
21
-96.75
0
LINE
8
0
6
CONTINUOUS
10
104.75
20
-96.75
11
87.25
21
-96.75
0
LINE
8
0
6
CONTINUOUS
10
87.25
20
-96.75
11
87.25
21
-113.25
0
LINE
8
0
6
CONTINUOUS
10
105.25
20
-168.25
11
122.75
21
-168.25
0
LINE
8
0
6
CONTINUOUS
10
122.75
20
-168.25
11
122.75
21
-151.75
0
LINE
8
0
6
CONTINUOUS
10
122.75
20
-151.75
11
105.25
21
-151.75
0
LINE
8
0
6
CONTINUOUS
10
105.25
20
-151.75
11
105.25
21
-168.25
0
LINE
8
0
6
CONTINUOUS
10
105.25
20
-151.25
11
122.75
21
-151.25
0
LINE
8
0
6
CONTINUOUS
10
122.75
20
-151.25
11
122.75
21
-134.75
0
LINE
8
0
6
CONTINUOUS
10
122.75
20
-134.75
11
105.25
21
-134.75
0
LINE
8
0
6
CONTINUOUS
10
105.25
20
-134.75
11
105.25
21
-151.25
0
LINE
8
0
6
CONTINUOUS
10
105.25
20
-134.25
11
122.75
21
-134.25
0
LINE
8
0
6
CONTINUOUS
10
122.75
20
-134.25
11
122.75
21
-117.75
0
LINE
8
0
6
CONTINUOUS
10
122.75
20
-117.75
11
105.25
21
-117.75
0
LINE
8
0
6
CONTINUOUS
10
105.25
20
-117.75
11
105.25
21
-134.25
0
LINE
8
0
6
CONTINUOUS
10
105.25
20
-117.25
11
122.75
21
-117.25
0
LINE
8
0
6
CONTINUOUS
10
122.75
20
-117.25
11
122.75
21
-100.75
0
LINE
8
0
6
CONTINUOUS
10
122.75
20
-100.75
11
105.25
21
-100.75
0
LINE
8
0
6
CONTINUOUS
10
105.25
20
-100.75
11
105.25
21
-117.25
0
LINE
8
0
6
CONTINUOUS
10
125.05
20
-168.25
11
142.55
21
-168.25
0
LINE
8
0
6
CONTINUOUS
10
142.55
20
-168.25
11
142.55
21
-151.75
0
LINE
8
0
6
CONTINUOUS
10
142.55
20
-151.75
11
125.05
21
-151.75
0
LINE
8
0
6
CONTINUOUS
10
125.05
20
-151.75
11
125.05
21
-168.25
0
LINE
8
0
6
CONTINUOUS
10
125.05
20
-151.25
11
142.55
21
-151.25
0
LINE
8
0
6
CONTINUOUS
10
142.55
20
-151.25
11
142.55
21
-134.75
0
LINE
8
0
6
CONTINUOUS
10
142.55
20
-134.75
11
125.05
21
-134.75
0
LINE
8
0
6
CONTINUOUS
10
125.05
20
-134.75
11
125.05
21
-151.25
0
LINE
8
0
6
CONTINUOUS
10
125.05
20
-134.25
11
142.55
21
-134.25
0
LINE
8
0
6
CONTINUOUS
10
142.55
20
-134.25
11
142.55
21
-117.75
0
LINE
8
0
6
CONTINUOUS
10
142.55
20
-117.75
11
125.05
21
-117.75
0
LINE
8
0
6
CONTINUOUS
10
125.05
20
-117.75
11
125.05
21
-134.25
0
LINE
8
0
6
CONTINUOUS
10
125.05
20
-117.25
11
142.55
21
-117.25
0
LINE
8
0
6
CONTINUOUS
10
142.55
20
-117.25
11
142.55
21
-100.75
0
LINE
8
0
6
CONTINUOUS
10
142.55
20
-100.75
11
125.05
21
-100.75
0
LINE
8
0
6
CONTINUOUS
10
125.05
20
-100.75
11
125.05
21
-117.25
0
LINE
8
0
6
CONTINUOUS
10
123.9869763
20
-184.9519469
11
141.3166675
21
-187.3874762
0
LINE
8
0
6
CONTINUOUS
10
141.3166675
20
-187.3874762
11
143.6130237
21
-171.0480531
0
LINE
8
0
6
CONTINUOUS
10
143.6130237
20
-171.0480531
11
126.2833325
21
-168.6125238
0
LINE
8
0
6
CONTINUOUS
10
126.2833325
20
-168.6125238
11
123.9869763
21
-184.9519469
0
LINE
8
0
6
CONTINUOUS
10
141.9288653
20
-189.1423176
11
158.5723543
21
-194.550115
0
LINE
8
0
6
CONTINUOUS
10
158.5723543
20
-194.550115
11
163.6711347
21
-178.8576824
0
LINE
8
0
6
CONTINUOUS
10
163.6711347
20
-178.8576824
11
147.0276457
21
-173.449885
0
LINE
8
0
6
CONTINUOUS
10
147.0276457
20
-173.449885
11
141.9288653
21
-189.1423176
0
LINE
8
0
6
CONTINUOUS
10
159.2010682
20
-195.1764415
11
174.652651
21
-203.3921938
0
LINE
8
0
6
CONTINUOUS
10
174.652651
20
-203.3921938
11
182.3989318
21
-188.8235585
0
LINE
8
0
6
CONTINUOUS
10
182.3989318
20
-188.8235585
11
166.947349
21
-180.6078062
0
LINE
8
0
6
CONTINUOUS
10
166.947349
20
-180.6078062
11
159.2010682
21
-195.1764415
0
LINE
8
0
6
CONTINUOUS
10
129.3140568
20
-210.8881232
11
146.294232
21
-215.1217563
0
LINE
8
0
6
CONTINUOUS
10
146.294232
20
-215.1217563
11
150.2859432
21
-199.1118768
0
LINE
8
0
6
CONTINUOUS
10
150.2859432
20
-199.1118768
11
133.305768
21
-194.8782437
0
LINE
8
0
6
CONTINUOUS
10
133.305768
20
-194.8782437
11
129.3140568
21
-210.8881232
0
LINE
8
0
6
CONTINUOUS
10
147.4508999
20
-215.9778044
11
163.4379454
21
-223.0956957
0
LINE
8
0
6
CONTINUOUS
10
163.4379454
20
-223.0956957
11
170.1491001
21
-208.0221956
0
LINE
8
0
6
CONTINUOUS
10
170.1491001
20
-208.0221956
11
154.1620546
21
-200.9043043
0
LINE
8
0
6
CONTINUOUS
10
154.1620546
20
-200.9043043
11
147.4508999
21
-215.9778044
0
LINE
8
0
6
CONTINUOUS
10
331.25
20
-157.25
11
348.75
21
-157.25
0
LINE
8
0
6
CONTINUOUS
10
348.75
20
-157.25
11
348.75
21
-140.75
0
LINE
8
0
6
CONTINUOUS
10
348.75
20
-140.75
11
331.25
21
-140.75
0
LINE
8
0
6
CONTINUOUS
10
331.25
20
-140.75
11
331.25
21
-157.25
0
LINE
8
0
6
CONTINUOUS
10
331.25
20
-140.25
11
348.75
21
-140.25
0
LINE
8
0
6
CONTINUOUS
10
348.75
20
-140.25
11
348.75
21
-123.75
0
LINE
8
0
6
CONTINUOUS
10
348.75
20
-123.75
11
331.25
21
-123.75
0
LINE
8
0
6
CONTINUOUS
10
331.25
20
-123.75
11
331.25
21
-140.25
0
LINE
8
0
6
CONTINUOUS
10
331.25
20
-123.25
11
348.75
21
-123.25
0
LINE
8
0
6
CONTINUOUS
10
348.75
20
-123.25
11
348.75
21
-106.75
0
LINE
8
0
6
CONTINUOUS
10
348.75
20
-106.75
11
331.25
21
-106.75
0
LINE
8
0
6
CONTINUOUS
10
331.25
20
-106.75
11
331.25
21
-123.25
0
LINE
8
0
6
CONTINUOUS
10
313.25
20
-168.25
11
330.75
21
-168.25
0
LINE
8
0
6
CONTINUOUS
10
330.75
20
-168.25
11
330.75
21
-151.75
0
LINE
8
0
6
CONTINUOUS
10
330.75
20
-151.75
11
313.25
21
-151.75
0
LINE
8
0
6
CONTINUOUS
10
313.25
20
-151.75
11
313.25
21
-168.25
0
LINE
8
0
6
CONTINUOUS
10
313.25
20
-151.25
11
330.75
21
-151.25
0
LINE
8
0
6
CONTINUOUS
10
330.75
20
-151.25
11
330.75
21
-134.75
0
LINE
8
0
6
CONTINUOUS
10
330.75
20
-134.75
11
313.25
21
-134.75
0
LINE
8
0
6
CONTINUOUS
10
313.25
20
-134.75
11
313.25
21
-151.25
0
LINE
8
0
6
CONTINUOUS
10
313.25
20
-134.25
11
330.75
21
-134.25
0
LINE
8
0
6
CONTINUOUS
10
330.75
20
-134.25
11
330.75
21
-117.75
0
LINE
8
0
6
CONTINUOUS
10
330.75
20
-117.75
11
313.25
21
-117.75
0
LINE
8
0
6
CONTINUOUS
10
313.25
20
-117.75
11
313.25
21
-134.25
0
LINE
8
0
6
CONTINUOUS
10
313.25
20
-117.25
11
330.75
21
-117.25
0
LINE
8
0
6
CONTINUOUS
10
330.75
20
-117.25
11
330.75
21
-100.75
0
LINE
8
0
6
CONTINUOUS
10
330.75
20
-100.75
11
313.25
21
-100.75
0
LINE
8
0
6
CONTINUOUS
10
313.25
20
-100.75
11
313.25
21
-117.25
0
LINE
8
0
6
CONTINUOUS
10
295.25
20
-164.25
11
312.75
21
-164.25
0
LINE
8
0
6
CONTINUOUS
10
312.75
20
-164.25
11
312.75
21
-147.75
0
LINE
8
0
6
CONTINUOUS
10
312.75
20
-147.75
11
295.25
21
-147.75
0
LINE
8
0
6
CONTINUOUS
10
295.25
20
-147.75
11
295.25
21
-164.25
0
LINE
8
0
6
CONTINUOUS
10
295.25
20
-147.25
11
312.75
21
-147.25
0
LINE
8
0
6
CONTINUOUS
10
312.75
20
-147.25
11
312.75
21
-130.75
0
LINE
8
0
6
CONTINUOUS
10
312.75
20
-130.75
11
295.25
21
-130.75
0
LINE
8
0
6
CONTINUOUS
10
295.25
20
-130.75
11
295.25
21
-147.25
0
LINE
8
0
6
CONTINUOUS
10
295.25
20
-130.25
11
312.75
21
-130.25
0
LINE
8
0
6
CONTINUOUS
10
312.75
20
-130.25
11
312.75
21
-113.75
0
LINE
8
0
6
CONTINUOUS
10
312.75
20
-113.75
11
295.25
21
-113.75
0
LINE
8
0
6
CONTINUOUS
10
295.25
20
-113.75
11
295.25
21
-130.25
0
LINE
8
0
6
CONTINUOUS
10
295.25
20
-113.25
11
312.75
21
-113.25
0
LINE
8
0
6
CONTINUOUS
10
312.75
20
-113.25
11
312.75
21
-96.75
0
LINE
8
0
6
CONTINUOUS
10
312.75
20
-96.75
11
295.25
21
-96.75
0
LINE
8
0
6
CONTINUOUS
10
295.25
20
-96.75
11
295.25
21
-113.25
0
LINE
8
0
6
CONTINUOUS
10
277.25
20
-168.25
11
294.75
21
-168.25
0
LINE
8
0
6
CONTINUOUS
10
294.75
20
-168.25
11
294.75
21
-151.75
0
LINE
8
0
6
CONTINUOUS
10
294.75
20
-151.75
11
277.25
21
-151.75
0
LINE
8
0
6
CONTINUOUS
10
277.25
20
-151.75
11
277.25
21
-168.25
0
LINE
8
0
6
CONTINUOUS
10
277.25
20
-151.25
11
294.75
21
-151.25
0
LINE
8
0
6
CONTINUOUS
10
294.75
20
-151.25
11
294.75
21
-134.75
0
LINE
8
0
6
CONTINUOUS
10
294.75
20
-134.75
11
277.25
21
-134.75
0
LINE
8
0
6
CONTINUOUS
10
277.25
20
-134.75
11
277.25
21
-151.25
0
LINE
8
0
6
CONTINUOUS
10
277.25
20
-134.25
11
294.75
21
-134.25
0
LINE
8
0
6
CONTINUOUS
10
294.75
20
-134.25
11
294.75
21
-117.75
0
LINE
8
0
6
CONTINUOUS
10
294.75
20
-117.75
11
277.25
21
-117.75
0
LINE
8
0
6
CONTINUOUS
10
277.25
20
-117.75
11
277.25
21
-134.25
0
LINE
8
0
6
CONTINUOUS
10
277.25
20
-117.25
11
294.75
21
-117.25
0
LINE
8
0
6
CONTINUOUS
10
294.75
20
-117.25
11
294.75
21
-100.75
0
LINE
8
0
6
CONTINUOUS
10
294.75
20
-100.75
11
277.25
21
-100.75
0
LINE
8
0
6
CONTINUOUS
10
277.25
20
-100.75
11
277.25
21
-117.25
0
LINE
8
0
6
CONTINUOUS
10
257.45
20
-168.25
11
274.95
21
-168.25
0
LINE
8
0
6
CONTINUOUS
10
274.95
20
-168.25
11
274.95
21
-151.75
0
LINE
8
0
6
CONTINUOUS
10
274.95
20
-151.75
11
257.45
21
-151.75
0
LINE
8
0
6
CONTINUOUS
10
257.45
20
-151.75
11
257.45
21
-168.25
0
LINE
8
0
6
CONTINUOUS
10
257.45
20
-151.25
11
274.95
21
-151.25
0
LINE
8
0
6
CONTINUOUS
10
274.95
20
-151.25
11
274.95
21
-134.75
0
LINE
8
0
6
CONTINUOUS
10
274.95
20
-134.75
11
257.45
21
-134.75
0
LINE
8
0
6
CONTINUOUS
10
257.45
20
-134.75
11
257.45
21
-151.25
0
LINE
8
0
6
CONTINUOUS
10
257.45
20
-134.25
11
274.95
21
-134.25
0
LINE
8
0
6
CONTINUOUS
10
274.95
20
-134.25
11
274.95
21
-117.75
0
LINE
8
0
6
CONTINUOUS
10
274.95
20
-117.75
11
257.45
21
-117.75
0
LINE
8
0
6
CONTINUOUS
10
257.45
20
-117.75
11
257.45
21
-134.25
0
LINE
8
0
6
CONTINUOUS
10
257.45
20
-117.25
11
274.95
21
-117.25
0
LINE
8
0
6
CONTINUOUS
10
274.95
20
-117.25
11
274.95
21
-100.75
0
LINE
8
0
6
CONTINUOUS
10
274.95
20
-100.75
11
257.45
21
-100.75
0
LINE
8
0
6
CONTINUOUS
10
257.45
20
-100.75
11
257.45
21
-117.25
0
LINE
8
0
6
CONTINUOUS
10
258.6833325
20
-187.3874762
11
276.0130237
21
-184.9519469
0
LINE
8
0
6
CONTINUOUS
10
276.0130237
20
-184.9519469
11
273.7166675
21
-168.6125238
0
LINE
8
0
6
CONTINUOUS
10
273.7166675
20
-168.6125238
11
256.3869763
21
-171.0480531
0
LINE
8
0
6
CONTINUOUS
10
256.3869763
20
-171.0480531
11
258.6833325
21
-187.3874762
0
LINE
8
0
6
CONTINUOUS
10
241.4276457
20
-194.550115
11
258.0711347
21
-189.1423176
0
LINE
8
0
6
CONTINUOUS
10
258.0711347
20
-189.1423176
11
252.9723543
21
-173.449885
0
LINE
8
0
6
CONTINUOUS
10
252.9723543
20
-173.449885
11
236.3288653
21
-178.8576824
0
LINE
8
0
6
CONTINUOUS
10
236.3288653
20
-178.8576824
11
241.4276457
21
-194.550115
0
LINE
8
0
6
CONTINUOUS
10
225.347349
20
-203.3921938
11
240.7989318
21
-195.1764415
0
LINE
8
0
6
CONTINUOUS
10
240.7989318
20
-195.1764415
11
233.052651
21
-180.6078062
0
LINE
8
0
6
CONTINUOUS
10
233.052651
20
-180.6078062
11
217.6010682
21
-188.8235585
0
LINE
8
0
6
CONTINUOUS
10
217.6010682
20
-188.8235585
11
225.347349
21
-203.3921938
0
LINE
8
0
6
CONTINUOUS
10
253.705768
20
-215.1217563
11
270.6859432
21
-210.8881232
0
LINE
8
0
6
CONTINUOUS
10
270.6859432
20
-210.8881232
11
266.694232
21
-194.8782437
0
LINE
8
0
6
CONTINUOUS
10
266.694232
20
-194.8782437
11
249.7140568
21
-199.1118768
0
LINE
8
0
6
CONTINUOUS
10
249.7140568
20
-199.1118768
11
253.705768
21
-215.1217563
0
LINE
8
0
6
CONTINUOUS
10
236.5620546
20
-223.0956957
11
252.5491001
21
-215.9778044
0
LINE
8
0
6
CONTINUOUS
10
252.5491001
20
-215.9778044
11
245.8379454
21
-200.9043043
0
LINE
8
0
6
CONTINUOUS
10
245.8379454
20
-200.9043043
11
229.8508999
21
-208.0221956
0
LINE
8
0
6
CONTINUOUS
10
229.8508999
20
-208.0221956
11
236.5620546
21
-223.0956957
0
ENDSEC
0
EOF